<svg version="1.1" xmlns="http://www.w3.org/2000/svg" xmlns:xlink="http://www.w3.org/1999/xlink" width="1504.953125" height="811"><defs/><g><g><rect fill="#ffffff" stroke="none" x="956" y="383" width="253.5087890625" height="163" transform="matrix(1 0 0 1 -222 -373)"/></g><g><path fill="none" stroke="#000000" paint-order="fill stroke markers" d=" M 734 10 L 987.5087890625 10 L 987.5087890625 173 L 734 173 L 734 10 Z Z" stroke-miterlimit="10" stroke-dasharray=""/></g><g><path fill="none" stroke="#000000" paint-order="fill stroke markers" d=" M 734 35 L 988.5087890625 35" stroke-miterlimit="10" stroke-dasharray=""/></g><g><path fill="none" stroke="#000000" paint-order="fill stroke markers" d=" M 734 163 L 988.5087890625 163" stroke-miterlimit="10" stroke-dasharray=""/></g><g><g><path fill="none" stroke="none"/><text fill="#000000" stroke="none" font-family="Arial" font-size="13px" font-style="normal" font-weight="bold" text-decoration="undefined" x="1083.25439453125" y="396.5" text-anchor="middle" dominant-baseline="central" transform="matrix(1 0 0 1 -222 -373)">DashboardComponent</text></g></g><g><g><path fill="none" stroke="none"/><text fill="#000000" stroke="none" font-family="Arial" font-size="13px" font-style="normal" font-weight="normal" text-decoration="undefined" x="961" y="419.5" text-anchor="start" dominant-baseline="central" transform="matrix(1 0 0 1 -222 -373)">-router: Router</text></g></g><g><g><path fill="none" stroke="none"/><text fill="#000000" stroke="none" font-family="Arial" font-size="13px" font-style="normal" font-weight="normal" text-decoration="undefined" x="961" y="434.5" text-anchor="start" dominant-baseline="central" transform="matrix(1 0 0 1 -222 -373)">-queryListener: function</text></g></g><g><g><path fill="none" stroke="none"/><text fill="#000000" stroke="none" font-family="Arial" font-size="13px" font-style="normal" font-weight="normal" text-decoration="undefined" x="961" y="449.5" text-anchor="start" dominant-baseline="central" transform="matrix(1 0 0 1 -222 -373)">«get/set»-insideFrame: boolean</text></g></g><g><g><path fill="none" stroke="none"/><text fill="#000000" stroke="none" font-family="Arial" font-size="13px" font-style="normal" font-weight="normal" text-decoration="undefined" x="961" y="464.5" text-anchor="start" dominant-baseline="central" transform="matrix(1 0 0 1 -222 -373)">+mobileQuery: MediaQueryList;</text></g></g><g><g><path fill="none" stroke="none"/><text fill="#000000" stroke="none" font-family="Arial" font-size="13px" font-style="normal" font-weight="normal" text-decoration="undefined" x="961" y="479.5" text-anchor="start" dominant-baseline="central" transform="matrix(1 0 0 1 -222 -373)">+tabletQuery: MediaQueryList;</text></g></g><g><g><path fill="none" stroke="none"/><text fill="#000000" stroke="none" font-family="Arial" font-size="13px" font-style="normal" font-weight="normal" text-decoration="undefined" x="961" y="494.5" text-anchor="start" dominant-baseline="central" transform="matrix(1 0 0 1 -222 -373)">-route: ActivatedRoute</text></g></g><g><g><path fill="none" stroke="none"/><text fill="#000000" stroke="none" font-family="Arial" font-size="13px" font-style="normal" font-weight="normal" text-decoration="undefined" x="961" y="509.5" text-anchor="start" dominant-baseline="central" transform="matrix(1 0 0 1 -222 -373)">-iframeInitService: IframeInitializerService</text></g></g><g><g><path fill="none" stroke="none"/><text fill="#000000" stroke="none" font-family="Arial" font-size="13px" font-style="normal" font-weight="normal" text-decoration="undefined" x="961" y="524.5" text-anchor="start" dominant-baseline="central" transform="matrix(1 0 0 1 -222 -373)">-authInfoService: AuthInformationsService</text></g></g><g><path fill="none" stroke="#000000" paint-order="fill stroke markers" d=" M 743 174 L 466 370" stroke-miterlimit="10" stroke-dasharray=""/></g><g><path fill="none" stroke="#000000" paint-order="fill stroke markers" d=" M 471.8644804458437 360.693665109168 L 466 370 L 476.72738640069224 367.5662413820917" stroke-miterlimit="10" stroke-dasharray=""/></g><g><rect fill="#ffffff" stroke="none" x="232" y="744" width="493.07568359375" height="296" transform="matrix(1 0 0 1 -222 -373)"/></g><g><path fill="none" stroke="#000000" paint-order="fill stroke markers" d=" M 10 371 L 503.07568359375 371 L 503.07568359375 667 L 10 667 L 10 371 Z Z" stroke-miterlimit="10" stroke-dasharray=""/></g><g><path fill="none" stroke="#000000" paint-order="fill stroke markers" d=" M 10 396 L 504.07568359375 396" stroke-miterlimit="10" stroke-dasharray=""/></g><g><path fill="none" stroke="#000000" paint-order="fill stroke markers" d=" M 10 554 L 504.07568359375 554" stroke-miterlimit="10" stroke-dasharray=""/></g><g><g><path fill="none" stroke="none"/><text fill="#000000" stroke="none" font-family="Arial" font-size="13px" font-style="normal" font-weight="bold" text-decoration="undefined" x="479.037841796875" y="757.5" text-anchor="middle" dominant-baseline="central" transform="matrix(1 0 0 1 -222 -373)">LogModifierComponent</text></g></g><g><g><path fill="none" stroke="none"/><text fill="#000000" stroke="none" font-family="Arial" font-size="13px" font-style="normal" font-weight="normal" text-decoration="undefined" x="237" y="780.5" text-anchor="start" dominant-baseline="central" transform="matrix(1 0 0 1 -222 -373)">+activeAttributes: Array&lt;QualityattributeModel&gt;</text></g></g><g><g><path fill="none" stroke="none"/><text fill="#000000" stroke="none" font-family="Arial" font-size="13px" font-style="normal" font-weight="normal" text-decoration="undefined" x="237" y="795.5" text-anchor="start" dominant-baseline="central" transform="matrix(1 0 0 1 -222 -373)">-activeAttributesService: ActiveAttributesService</text></g></g><g><g><path fill="none" stroke="none"/><text fill="#000000" stroke="none" font-family="Arial" font-size="13px" font-style="normal" font-weight="normal" text-decoration="undefined" x="237" y="810.5" text-anchor="start" dominant-baseline="central" transform="matrix(1 0 0 1 -222 -373)">+displayedColumns: Array&lt;string&gt;</text></g></g><g><g><path fill="none" stroke="none"/><text fill="#000000" stroke="none" font-family="Arial" font-size="13px" font-style="normal" font-weight="normal" text-decoration="undefined" x="237" y="825.5" text-anchor="start" dominant-baseline="central" transform="matrix(1 0 0 1 -222 -373)">-snackBar: MatSnackBar</text></g></g><g><g><path fill="none" stroke="none"/><text fill="#000000" stroke="none" font-family="Arial" font-size="13px" font-style="normal" font-weight="normal" text-decoration="undefined" x="237" y="840.5" text-anchor="start" dominant-baseline="central" transform="matrix(1 0 0 1 -222 -373)">-form: FormGroup</text></g></g><g><g><path fill="none" stroke="none"/><text fill="#000000" stroke="none" font-family="Arial" font-size="13px" font-style="normal" font-weight="normal" text-decoration="undefined" x="237" y="855.5" text-anchor="start" dominant-baseline="central" transform="matrix(1 0 0 1 -222 -373)">+addLog: boolean</text></g></g><g><g><path fill="none" stroke="none"/><text fill="#000000" stroke="none" font-family="Arial" font-size="13px" font-style="normal" font-weight="normal" text-decoration="undefined" x="237" y="870.5" text-anchor="start" dominant-baseline="central" transform="matrix(1 0 0 1 -222 -373)">-dialog: MatDialog</text></g></g><g><g><path fill="none" stroke="none"/><text fill="#000000" stroke="none" font-family="Arial" font-size="13px" font-style="normal" font-weight="normal" text-decoration="undefined" x="237" y="885.5" text-anchor="start" dominant-baseline="central" transform="matrix(1 0 0 1 -222 -373)">-translateService: TranslateService</text></g></g><g><g><path fill="none" stroke="none"/><text fill="#000000" stroke="none" font-family="Arial" font-size="13px" font-style="normal" font-weight="normal" text-decoration="undefined" x="237" y="900.5" text-anchor="start" dominant-baseline="central" transform="matrix(1 0 0 1 -222 -373)">-authInfoService: AuthInformationsService</text></g></g><g><g><path fill="none" stroke="none"/><text fill="#000000" stroke="none" font-family="Arial" font-size="13px" font-style="normal" font-weight="normal" text-decoration="undefined" x="237" y="915.5" text-anchor="start" dominant-baseline="central" transform="matrix(1 0 0 1 -222 -373)">-loadingService: LoadingService</text></g></g><g><g><path fill="none" stroke="none"/><text fill="#000000" stroke="none" font-family="Arial" font-size="13px" font-style="normal" font-weight="normal" text-decoration="undefined" x="237" y="938.5" text-anchor="start" dominant-baseline="central" transform="matrix(1 0 0 1 -222 -373)">+add(): void</text></g></g><g><g><path fill="none" stroke="none"/><text fill="#000000" stroke="none" font-family="Arial" font-size="13px" font-style="normal" font-weight="normal" text-decoration="undefined" x="237" y="953.5" text-anchor="start" dominant-baseline="central" transform="matrix(1 0 0 1 -222 -373)">+update(): void</text></g></g><g><g><path fill="none" stroke="none"/><text fill="#000000" stroke="none" font-family="Arial" font-size="13px" font-style="normal" font-weight="normal" text-decoration="undefined" x="237" y="968.5" text-anchor="start" dominant-baseline="central" transform="matrix(1 0 0 1 -222 -373)">-openSnackBar(message: string, type: string): void</text></g></g><g><g><path fill="none" stroke="none"/><text fill="#000000" stroke="none" font-family="Arial" font-size="13px" font-style="normal" font-weight="normal" text-decoration="undefined" x="237" y="983.5" text-anchor="start" dominant-baseline="central" transform="matrix(1 0 0 1 -222 -373)">-initializeForm(): void</text></g></g><g><g><path fill="none" stroke="none"/><text fill="#000000" stroke="none" font-family="Arial" font-size="13px" font-style="normal" font-weight="normal" text-decoration="undefined" x="237" y="998.5" text-anchor="start" dominant-baseline="central" transform="matrix(1 0 0 1 -222 -373)">+addDialog(): void</text></g></g><g><g><path fill="none" stroke="none"/><text fill="#000000" stroke="none" font-family="Arial" font-size="13px" font-style="normal" font-weight="normal" text-decoration="undefined" x="237" y="1013.5" text-anchor="start" dominant-baseline="central" transform="matrix(1 0 0 1 -222 -373)">+updateDialog(): void</text></g></g><g><g><path fill="none" stroke="none"/><text fill="#000000" stroke="none" font-family="Arial" font-size="13px" font-style="normal" font-weight="normal" text-decoration="undefined" x="237" y="1028.5" text-anchor="start" dominant-baseline="central" transform="matrix(1 0 0 1 -222 -373)">-clearDialog(): void</text></g></g><g><path fill="none" stroke="#000000" paint-order="fill stroke markers" d=" M 818 174 L 726 354" stroke-miterlimit="10" stroke-dasharray=""/></g><g><path fill="none" stroke="#000000" paint-order="fill stroke markers" d=" M 726.8768451194686 343.0350037557479 L 726 354 L 734.3734463300223 346.8665999300308" stroke-miterlimit="10" stroke-dasharray=""/></g><g><rect fill="#ffffff" stroke="none" x="760" y="728" width="301.90966796875" height="146" transform="matrix(1 0 0 1 -222 -373)"/></g><g><path fill="none" stroke="#000000" paint-order="fill stroke markers" d=" M 538 355 L 839.90966796875 355 L 839.90966796875 501 L 538 501 L 538 355 Z Z" stroke-miterlimit="10" stroke-dasharray=""/></g><g><path fill="none" stroke="#000000" paint-order="fill stroke markers" d=" M 538 380 L 840.90966796875 380" stroke-miterlimit="10" stroke-dasharray=""/></g><g><path fill="none" stroke="#000000" paint-order="fill stroke markers" d=" M 538 478 L 840.90966796875 478" stroke-miterlimit="10" stroke-dasharray=""/></g><g><g><path fill="none" stroke="none"/><text fill="#000000" stroke="none" font-family="Arial" font-size="13px" font-style="normal" font-weight="bold" text-decoration="undefined" x="911.454833984375" y="741.5" text-anchor="middle" dominant-baseline="central" transform="matrix(1 0 0 1 -222 -373)">LogViewerComponent</text></g></g><g><g><path fill="none" stroke="none"/><text fill="#000000" stroke="none" font-family="Arial" font-size="13px" font-style="normal" font-weight="normal" text-decoration="undefined" x="765" y="764.5" text-anchor="start" dominant-baseline="central" transform="matrix(1 0 0 1 -222 -373)">-activeAttributesService: ActiveAttributesService</text></g></g><g><g><path fill="none" stroke="none"/><text fill="#000000" stroke="none" font-family="Arial" font-size="13px" font-style="normal" font-weight="normal" text-decoration="undefined" x="765" y="779.5" text-anchor="start" dominant-baseline="central" transform="matrix(1 0 0 1 -222 -373)">+displayedColumns: Array&lt;string&gt;</text></g></g><g><g><path fill="none" stroke="none"/><text fill="#000000" stroke="none" font-family="Arial" font-size="13px" font-style="normal" font-weight="normal" text-decoration="undefined" x="765" y="794.5" text-anchor="start" dominant-baseline="central" transform="matrix(1 0 0 1 -222 -373)">-snackBar: MatSnackBar</text></g></g><g><g><path fill="none" stroke="none"/><text fill="#000000" stroke="none" font-family="Arial" font-size="13px" font-style="normal" font-weight="normal" text-decoration="undefined" x="765" y="809.5" text-anchor="start" dominant-baseline="central" transform="matrix(1 0 0 1 -222 -373)">-translateService: TranslateService</text></g></g><g><g><path fill="none" stroke="none"/><text fill="#000000" stroke="none" font-family="Arial" font-size="13px" font-style="normal" font-weight="normal" text-decoration="undefined" x="765" y="824.5" text-anchor="start" dominant-baseline="central" transform="matrix(1 0 0 1 -222 -373)">-authInfoService: AuthInformationsService</text></g></g><g><g><path fill="none" stroke="none"/><text fill="#000000" stroke="none" font-family="Arial" font-size="13px" font-style="normal" font-weight="normal" text-decoration="undefined" x="765" y="839.5" text-anchor="start" dominant-baseline="central" transform="matrix(1 0 0 1 -222 -373)">-loadingService: LoadingService</text></g></g><g><g><path fill="none" stroke="none"/><text fill="#000000" stroke="none" font-family="Arial" font-size="13px" font-style="normal" font-weight="normal" text-decoration="undefined" x="765" y="862.5" text-anchor="start" dominant-baseline="central" transform="matrix(1 0 0 1 -222 -373)">-openSnackBar(message: string, type: string): void</text></g></g><g><path fill="none" stroke="#000000" paint-order="fill stroke markers" d=" M 989 139 L 1257 241" stroke-miterlimit="10" stroke-dasharray=""/></g><g><path fill="none" stroke="#000000" paint-order="fill stroke markers" d=" M 1246.0046349063468 241.31929055306102 L 1257 241 L 1248.9993302654177 233.4508752958942" stroke-miterlimit="10" stroke-dasharray=""/></g><g><rect fill="#ffffff" stroke="none" x="1480" y="592" width="196.443359375" height="118" transform="matrix(1 0 0 1 -222 -373)"/></g><g><path fill="none" stroke="#000000" paint-order="fill stroke markers" d=" M 1258 219 L 1454.443359375 219 L 1454.443359375 337 L 1258 337 L 1258 219 Z Z" stroke-miterlimit="10" stroke-dasharray=""/></g><g><path fill="none" stroke="#000000" paint-order="fill stroke markers" d=" M 1258 244 L 1455.443359375 244" stroke-miterlimit="10" stroke-dasharray=""/></g><g><path fill="none" stroke="#000000" paint-order="fill stroke markers" d=" M 1258 327 L 1455.443359375 327" stroke-miterlimit="10" stroke-dasharray=""/></g><g><g><path fill="none" stroke="none"/><text fill="#000000" stroke="none" font-family="Arial" font-size="13px" font-style="normal" font-weight="bold" text-decoration="undefined" x="1578.7216796875" y="605.5" text-anchor="middle" dominant-baseline="central" transform="matrix(1 0 0 1 -222 -373)">SplashScreenComponent</text></g></g><g><g><path fill="none" stroke="none"/><text fill="#000000" stroke="none" font-family="Arial" font-size="13px" font-style="normal" font-weight="normal" text-decoration="undefined" x="1485" y="628.5" text-anchor="start" dominant-baseline="central" transform="matrix(1 0 0 1 -222 -373)">+splashTransition: string</text></g></g><g><g><path fill="none" stroke="none"/><text fill="#000000" stroke="none" font-family="Arial" font-size="13px" font-style="normal" font-weight="normal" text-decoration="undefined" x="1485" y="643.5" text-anchor="start" dominant-baseline="central" transform="matrix(1 0 0 1 -222 -373)">+opacityChange: number</text></g></g><g><g><path fill="none" stroke="none"/><text fill="#000000" stroke="none" font-family="Arial" font-size="13px" font-style="normal" font-weight="normal" text-decoration="undefined" x="1485" y="658.5" text-anchor="start" dominant-baseline="central" transform="matrix(1 0 0 1 -222 -373)">+showSplash: boolean</text></g></g><g><g><path fill="none" stroke="none"/><text fill="#000000" stroke="none" font-family="Arial" font-size="13px" font-style="normal" font-weight="normal" text-decoration="undefined" x="1485" y="673.5" text-anchor="start" dominant-baseline="central" transform="matrix(1 0 0 1 -222 -373)">+animationDuration: number</text></g></g><g><g><path fill="none" stroke="none"/><text fill="#000000" stroke="none" font-family="Arial" font-size="13px" font-style="normal" font-weight="normal" text-decoration="undefined" x="1485" y="688.5" text-anchor="start" dominant-baseline="central" transform="matrix(1 0 0 1 -222 -373)">-loadingService: LoadingService</text></g></g><g><path fill="none" stroke="#000000" paint-order="fill stroke markers" d=" M 949 174 L 1167 378" stroke-miterlimit="10" stroke-dasharray=""/></g><g><path fill="none" stroke="#000000" paint-order="fill stroke markers" d=" M 1156.703337611305 374.1297618092382 L 1167 378 L 1162.45583187086 367.98248853187033" stroke-miterlimit="10" stroke-dasharray=""/></g><g><rect fill="#ffffff" stroke="none" x="1384" y="752" width="331.953125" height="296" transform="matrix(1 0 0 1 -222 -373)"/></g><g><path fill="none" stroke="#000000" paint-order="fill stroke markers" d=" M 1162 379 L 1493.953125 379 L 1493.953125 675 L 1162 675 L 1162 379 Z Z" stroke-miterlimit="10" stroke-dasharray=""/></g><g><path fill="none" stroke="#000000" paint-order="fill stroke markers" d=" M 1162 404 L 1494.953125 404" stroke-miterlimit="10" stroke-dasharray=""/></g><g><path fill="none" stroke="#000000" paint-order="fill stroke markers" d=" M 1162 607 L 1494.953125 607" stroke-miterlimit="10" stroke-dasharray=""/></g><g><g><path fill="none" stroke="none"/><text fill="#000000" stroke="none" font-family="Arial" font-size="13px" font-style="normal" font-weight="bold" text-decoration="undefined" x="1550.4765625" y="765.5" text-anchor="middle" dominant-baseline="central" transform="matrix(1 0 0 1 -222 -373)">ToolbarComponent</text></g></g><g><g><path fill="none" stroke="none"/><text fill="#000000" stroke="none" font-family="Arial" font-size="13px" font-style="normal" font-weight="normal" text-decoration="undefined" x="1389" y="788.5" text-anchor="start" dominant-baseline="central" transform="matrix(1 0 0 1 -222 -373)">+today: Date</text></g></g><g><g><path fill="none" stroke="none"/><text fill="#000000" stroke="none" font-family="Arial" font-size="13px" font-style="normal" font-weight="normal" text-decoration="undefined" x="1389" y="803.5" text-anchor="start" dominant-baseline="central" transform="matrix(1 0 0 1 -222 -373)">+user: string</text></g></g><g><g><path fill="none" stroke="none"/><text fill="#000000" stroke="none" font-family="Arial" font-size="13px" font-style="normal" font-weight="normal" text-decoration="undefined" x="1389" y="818.5" text-anchor="start" dominant-baseline="central" transform="matrix(1 0 0 1 -222 -373)">+languages: Array&lt;string&gt;</text></g></g><g><g><path fill="none" stroke="none"/><text fill="#000000" stroke="none" font-family="Arial" font-size="13px" font-style="normal" font-weight="normal" text-decoration="undefined" x="1389" y="833.5" text-anchor="start" dominant-baseline="central" transform="matrix(1 0 0 1 -222 -373)">+activeLanguage: string</text></g></g><g><g><path fill="none" stroke="none"/><text fill="#000000" stroke="none" font-family="Arial" font-size="13px" font-style="normal" font-weight="normal" text-decoration="undefined" x="1389" y="848.5" text-anchor="start" dominant-baseline="central" transform="matrix(1 0 0 1 -222 -373)">+isDark: boolean</text></g></g><g><g><path fill="none" stroke="none"/><text fill="#000000" stroke="none" font-family="Arial" font-size="13px" font-style="normal" font-weight="normal" text-decoration="undefined" x="1389" y="863.5" text-anchor="start" dominant-baseline="central" transform="matrix(1 0 0 1 -222 -373)">+strictLang: Array&lt;string&gt;</text></g></g><g><g><path fill="none" stroke="none"/><text fill="#000000" stroke="none" font-family="Arial" font-size="13px" font-style="normal" font-weight="normal" text-decoration="undefined" x="1389" y="878.5" text-anchor="start" dominant-baseline="central" transform="matrix(1 0 0 1 -222 -373)">-queryListener: function</text></g></g><g><g><path fill="none" stroke="none"/><text fill="#000000" stroke="none" font-family="Arial" font-size="13px" font-style="normal" font-weight="normal" text-decoration="undefined" x="1389" y="893.5" text-anchor="start" dominant-baseline="central" transform="matrix(1 0 0 1 -222 -373)">+mobileQuery: MediaQueryList</text></g></g><g><g><path fill="none" stroke="none"/><text fill="#000000" stroke="none" font-family="Arial" font-size="13px" font-style="normal" font-weight="normal" text-decoration="undefined" x="1389" y="908.5" text-anchor="start" dominant-baseline="central" transform="matrix(1 0 0 1 -222 -373)">-dialog: MatDialog</text></g></g><g><g><path fill="none" stroke="none"/><text fill="#000000" stroke="none" font-family="Arial" font-size="13px" font-style="normal" font-weight="normal" text-decoration="undefined" x="1389" y="923.5" text-anchor="start" dominant-baseline="central" transform="matrix(1 0 0 1 -222 -373)">-languageService: LanguageService</text></g></g><g><g><path fill="none" stroke="none"/><text fill="#000000" stroke="none" font-family="Arial" font-size="13px" font-style="normal" font-weight="normal" text-decoration="undefined" x="1389" y="938.5" text-anchor="start" dominant-baseline="central" transform="matrix(1 0 0 1 -222 -373)">-themeService: ThemeService</text></g></g><g><g><path fill="none" stroke="none"/><text fill="#000000" stroke="none" font-family="Arial" font-size="13px" font-style="normal" font-weight="normal" text-decoration="undefined" x="1389" y="953.5" text-anchor="start" dominant-baseline="central" transform="matrix(1 0 0 1 -222 -373)">-logoutService: LogoutService</text></g></g><g><g><path fill="none" stroke="none"/><text fill="#000000" stroke="none" font-family="Arial" font-size="13px" font-style="normal" font-weight="normal" text-decoration="undefined" x="1389" y="968.5" text-anchor="start" dominant-baseline="central" transform="matrix(1 0 0 1 -222 -373)">-authInfoService: AuthInformationsService</text></g></g><g><g><path fill="none" stroke="none"/><text fill="#000000" stroke="none" font-family="Arial" font-size="13px" font-style="normal" font-weight="normal" text-decoration="undefined" x="1389" y="991.5" text-anchor="start" dominant-baseline="central" transform="matrix(1 0 0 1 -222 -373)">+toggleTheme({checked}: MatSlideToggleChange): void</text></g></g><g><g><path fill="none" stroke="none"/><text fill="#000000" stroke="none" font-family="Arial" font-size="13px" font-style="normal" font-weight="normal" text-decoration="undefined" x="1389" y="1006.5" text-anchor="start" dominant-baseline="central" transform="matrix(1 0 0 1 -222 -373)">+changeActiveLanguage(language: string): void</text></g></g><g><g><path fill="none" stroke="none"/><text fill="#000000" stroke="none" font-family="Arial" font-size="13px" font-style="normal" font-weight="normal" text-decoration="undefined" x="1389" y="1021.5" text-anchor="start" dominant-baseline="central" transform="matrix(1 0 0 1 -222 -373)">+openLogoutDialog(): void</text></g></g><g><g><path fill="none" stroke="none"/><text fill="#000000" stroke="none" font-family="Arial" font-size="13px" font-style="normal" font-weight="normal" text-decoration="undefined" x="1389" y="1036.5" text-anchor="start" dominant-baseline="central" transform="matrix(1 0 0 1 -222 -373)">+openLogoutUserDialog(): void</text></g></g><g><path fill="none" stroke="#000000" paint-order="fill stroke markers" d=" M 893 174 L 965 354" stroke-miterlimit="10" stroke-dasharray=""/></g><g><path fill="none" stroke="#000000" paint-order="fill stroke markers" d=" M 957.3172381947315 346.1275689241817 L 965 354 L 965.1341164273886 343.00081763111893" stroke-miterlimit="10" stroke-dasharray=""/></g><g><rect fill="#ffffff" stroke="none" x="1112" y="728" width="190.30517578125" height="101" transform="matrix(1 0 0 1 -222 -373)"/></g><g><path fill="none" stroke="#000000" paint-order="fill stroke markers" d=" M 890 355 L 1080.30517578125 355 L 1080.30517578125 456 L 890 456 L 890 355 Z Z" stroke-miterlimit="10" stroke-dasharray=""/></g><g><path fill="none" stroke="#000000" paint-order="fill stroke markers" d=" M 890 380 L 1081.30517578125 380" stroke-miterlimit="10" stroke-dasharray=""/></g><g><path fill="none" stroke="#000000" paint-order="fill stroke markers" d=" M 890 418 L 1081.30517578125 418" stroke-miterlimit="10" stroke-dasharray=""/></g><g><g><path fill="none" stroke="none"/><text fill="#000000" stroke="none" font-family="Arial" font-size="13px" font-style="normal" font-weight="bold" text-decoration="undefined" x="1207.652587890625" y="741.5" text-anchor="middle" dominant-baseline="central" transform="matrix(1 0 0 1 -222 -373)">SidenavComponent</text></g></g><g><g><path fill="none" stroke="none"/><text fill="#000000" stroke="none" font-family="Arial" font-size="13px" font-style="normal" font-weight="normal" text-decoration="undefined" x="1117" y="764.5" text-anchor="start" dominant-baseline="central" transform="matrix(1 0 0 1 -222 -373)">-dialog: MatDialog</text></g></g><g><g><path fill="none" stroke="none"/><text fill="#000000" stroke="none" font-family="Arial" font-size="13px" font-style="normal" font-weight="normal" text-decoration="undefined" x="1117" y="779.5" text-anchor="start" dominant-baseline="central" transform="matrix(1 0 0 1 -222 -373)">-logoutService: LogoutService</text></g></g><g><g><path fill="none" stroke="none"/><text fill="#000000" stroke="none" font-family="Arial" font-size="13px" font-style="normal" font-weight="normal" text-decoration="undefined" x="1117" y="802.5" text-anchor="start" dominant-baseline="central" transform="matrix(1 0 0 1 -222 -373)">+openLogoutDialog(): void</text></g></g><g><g><path fill="none" stroke="none"/><text fill="#000000" stroke="none" font-family="Arial" font-size="13px" font-style="normal" font-weight="normal" text-decoration="undefined" x="1117" y="817.5" text-anchor="start" dominant-baseline="central" transform="matrix(1 0 0 1 -222 -373)">+openLogoutUserDialog(): void</text></g></g><g><rect fill="#ffffff" stroke="none" x="936" y="968" width="301.90966796875" height="206" transform="matrix(1 0 0 1 -222 -373)"/></g><g><path fill="none" stroke="#000000" paint-order="fill stroke markers" d=" M 714 595 L 1015.90966796875 595 L 1015.90966796875 801 L 714 801 L 714 595 Z Z" stroke-miterlimit="10" stroke-dasharray=""/></g><g><path fill="none" stroke="#000000" paint-order="fill stroke markers" d=" M 714 620 L 1016.90966796875 620" stroke-miterlimit="10" stroke-dasharray=""/></g><g><path fill="none" stroke="#000000" paint-order="fill stroke markers" d=" M 714 748 L 1016.90966796875 748" stroke-miterlimit="10" stroke-dasharray=""/></g><g><g><path fill="none" stroke="none"/><text fill="#000000" stroke="none" font-family="Arial" font-size="13px" font-style="normal" font-weight="bold" text-decoration="undefined" x="1087.454833984375" y="981.5" text-anchor="middle" dominant-baseline="central" transform="matrix(1 0 0 1 -222 -373)">PhasesComponent</text></g></g><g><g><path fill="none" stroke="none"/><text fill="#000000" stroke="none" font-family="Arial" font-size="13px" font-style="normal" font-weight="normal" text-decoration="undefined" x="941" y="1004.5" text-anchor="start" dominant-baseline="central" transform="matrix(1 0 0 1 -222 -373)">-activePhaseService: ActivePhaseService</text></g></g><g><g><path fill="none" stroke="none"/><text fill="#000000" stroke="none" font-family="Arial" font-size="13px" font-style="normal" font-weight="normal" text-decoration="undefined" x="941" y="1019.5" text-anchor="start" dominant-baseline="central" transform="matrix(1 0 0 1 -222 -373)">+phases: Array&lt;QualityphaseModel&gt;</text></g></g><g><g><path fill="none" stroke="none"/><text fill="#000000" stroke="none" font-family="Arial" font-size="13px" font-style="normal" font-weight="normal" text-decoration="undefined" x="941" y="1034.5" text-anchor="start" dominant-baseline="central" transform="matrix(1 0 0 1 -222 -373)">-snackBar: MatSnackBar</text></g></g><g><g><path fill="none" stroke="none"/><text fill="#000000" stroke="none" font-family="Arial" font-size="13px" font-style="normal" font-weight="normal" text-decoration="undefined" x="941" y="1049.5" text-anchor="start" dominant-baseline="central" transform="matrix(1 0 0 1 -222 -373)">+qualityPhaseService: QualityPhaseService</text></g></g><g><g><path fill="none" stroke="none"/><text fill="#000000" stroke="none" font-family="Arial" font-size="13px" font-style="normal" font-weight="normal" text-decoration="undefined" x="941" y="1064.5" text-anchor="start" dominant-baseline="central" transform="matrix(1 0 0 1 -222 -373)">+loading: boolean</text></g></g><g><g><path fill="none" stroke="none"/><text fill="#000000" stroke="none" font-family="Arial" font-size="13px" font-style="normal" font-weight="normal" text-decoration="undefined" x="941" y="1079.5" text-anchor="start" dominant-baseline="central" transform="matrix(1 0 0 1 -222 -373)">-translateService: TranslateService</text></g></g><g><g><path fill="none" stroke="none"/><text fill="#000000" stroke="none" font-family="Arial" font-size="13px" font-style="normal" font-weight="normal" text-decoration="undefined" x="941" y="1094.5" text-anchor="start" dominant-baseline="central" transform="matrix(1 0 0 1 -222 -373)">-authInfoService: AuthInformationsService</text></g></g><g><g><path fill="none" stroke="none"/><text fill="#000000" stroke="none" font-family="Arial" font-size="13px" font-style="normal" font-weight="normal" text-decoration="undefined" x="941" y="1109.5" text-anchor="start" dominant-baseline="central" transform="matrix(1 0 0 1 -222 -373)">-logoutService: LogoutService</text></g></g><g><g><path fill="none" stroke="none"/><text fill="#000000" stroke="none" font-family="Arial" font-size="13px" font-style="normal" font-weight="normal" text-decoration="undefined" x="941" y="1132.5" text-anchor="start" dominant-baseline="central" transform="matrix(1 0 0 1 -222 -373)">+setActivePhase(phase: QualityphaseModel)</text></g></g><g><g><path fill="none" stroke="none"/><text fill="#000000" stroke="none" font-family="Arial" font-size="13px" font-style="normal" font-weight="normal" text-decoration="undefined" x="941" y="1147.5" text-anchor="start" dominant-baseline="central" transform="matrix(1 0 0 1 -222 -373)">-openSnackBar(message: string, type: string): void</text></g></g><g><g><path fill="none" stroke="none"/><text fill="#000000" stroke="none" font-family="Arial" font-size="13px" font-style="normal" font-weight="normal" text-decoration="undefined" x="941" y="1162.5" text-anchor="start" dominant-baseline="central" transform="matrix(1 0 0 1 -222 -373)">+select(id: string): void</text></g></g><g><path fill="none" stroke="#000000" paint-order="fill stroke markers" d=" M 861 174 L 863 594" stroke-miterlimit="10" stroke-dasharray=""/></g><g><path fill="none" stroke="#000000" paint-order="fill stroke markers" d=" M 858.7421368290047 583.8574854588676 L 863 594 L 867.1610768887426 583.8173952681069" stroke-miterlimit="10" stroke-dasharray=""/></g></g></svg>