<svg version="1.1" xmlns="http://www.w3.org/2000/svg" xmlns:xlink="http://www.w3.org/1999/xlink" width="695.08544921875" height="682"><defs/><g><g><rect fill="#ffffff" stroke="none" x="1165" y="607" width="674.08544921875" height="461" transform="matrix(1 0 0 1 -1155 -597)"/></g><g><path fill="none" stroke="#000000" paint-order="fill stroke markers" d=" M 10 10 L 684.08544921875 10 L 684.08544921875 471 L 10 471 L 10 10 Z Z" stroke-miterlimit="10" stroke-dasharray=""/></g><g><path fill="none" stroke="#000000" paint-order="fill stroke markers" d=" M 10 35 L 685.08544921875 35" stroke-miterlimit="10" stroke-dasharray=""/></g><g><path fill="none" stroke="#000000" paint-order="fill stroke markers" d=" M 10 298 L 685.08544921875 298" stroke-miterlimit="10" stroke-dasharray=""/></g><g><g><path fill="none" stroke="none"/><text fill="#000000" stroke="none" font-family="Arial" font-size="13px" font-style="normal" font-weight="bold" text-decoration="undefined" x="1502.542724609375" y="620.5" text-anchor="middle" dominant-baseline="central" transform="matrix(1 0 0 1 -1155 -597)">LogModifierComponent</text></g></g><g><g><path fill="none" stroke="none"/><text fill="#000000" stroke="none" font-family="Arial" font-size="13px" font-style="normal" font-weight="normal" text-decoration="undefined" x="1170" y="643.5" text-anchor="start" dominant-baseline="central" transform="matrix(1 0 0 1 -1155 -597)">+activeAttributes: Array&lt;QualityattributeModel&gt;</text></g></g><g><g><path fill="none" stroke="none"/><text fill="#000000" stroke="none" font-family="Arial" font-size="13px" font-style="normal" font-weight="normal" text-decoration="undefined" x="1170" y="658.5" text-anchor="start" dominant-baseline="central" transform="matrix(1 0 0 1 -1155 -597)">-activeAttributesService: ActiveAttributesService</text></g></g><g><g><path fill="none" stroke="none"/><text fill="#000000" stroke="none" font-family="Arial" font-size="13px" font-style="normal" font-weight="normal" text-decoration="undefined" x="1170" y="673.5" text-anchor="start" dominant-baseline="central" transform="matrix(1 0 0 1 -1155 -597)">+addLog: boolean</text></g></g><g><g><path fill="none" stroke="none"/><text fill="#000000" stroke="none" font-family="Arial" font-size="13px" font-style="normal" font-weight="normal" text-decoration="undefined" x="1170" y="688.5" text-anchor="start" dominant-baseline="central" transform="matrix(1 0 0 1 -1155 -597)">+displayedColumns: Array&lt;string&gt;</text></g></g><g><g><path fill="none" stroke="none"/><text fill="#000000" stroke="none" font-family="Arial" font-size="13px" font-style="normal" font-weight="normal" text-decoration="undefined" x="1170" y="703.5" text-anchor="start" dominant-baseline="central" transform="matrix(1 0 0 1 -1155 -597)">-snackBar: MatSnackBar</text></g></g><g><g><path fill="none" stroke="none"/><text fill="#000000" stroke="none" font-family="Arial" font-size="13px" font-style="normal" font-weight="normal" text-decoration="undefined" x="1170" y="718.5" text-anchor="start" dominant-baseline="central" transform="matrix(1 0 0 1 -1155 -597)">-dialog: MatDialog</text></g></g><g><g><path fill="none" stroke="none"/><text fill="#000000" stroke="none" font-family="Arial" font-size="13px" font-style="normal" font-weight="normal" text-decoration="undefined" x="1170" y="733.5" text-anchor="start" dominant-baseline="central" transform="matrix(1 0 0 1 -1155 -597)">-form: FormGroup</text></g></g><g><g><path fill="none" stroke="none"/><text fill="#000000" stroke="none" font-family="Arial" font-size="13px" font-style="normal" font-weight="normal" text-decoration="undefined" x="1170" y="748.5" text-anchor="start" dominant-baseline="central" transform="matrix(1 0 0 1 -1155 -597)">-translateService: TranslateService</text></g></g><g><g><path fill="none" stroke="none"/><text fill="#000000" stroke="none" font-family="Arial" font-size="13px" font-style="normal" font-weight="normal" text-decoration="undefined" x="1170" y="763.5" text-anchor="start" dominant-baseline="central" transform="matrix(1 0 0 1 -1155 -597)">-authInfoService: AuthInformationsService</text></g></g><g><g><path fill="none" stroke="none"/><text fill="#000000" stroke="none" font-family="Arial" font-size="13px" font-style="normal" font-weight="normal" text-decoration="undefined" x="1170" y="778.5" text-anchor="start" dominant-baseline="central" transform="matrix(1 0 0 1 -1155 -597)">-loadingService: LoadingService</text></g></g><g><g><path fill="none" stroke="none"/><text fill="#000000" stroke="none" font-family="Arial" font-size="13px" font-style="normal" font-weight="normal" text-decoration="undefined" x="1170" y="793.5" text-anchor="start" dominant-baseline="central" transform="matrix(1 0 0 1 -1155 -597)">+activeAttributes: Array&lt;QualityattributeModel&gt;</text></g></g><g><g><path fill="none" stroke="none"/><text fill="#000000" stroke="none" font-family="Arial" font-size="13px" font-style="normal" font-weight="normal" text-decoration="undefined" x="1170" y="808.5" text-anchor="start" dominant-baseline="central" transform="matrix(1 0 0 1 -1155 -597)">+defaultOption: string</text></g></g><g><g><path fill="none" stroke="none"/><text fill="#000000" stroke="none" font-family="Arial" font-size="13px" font-style="normal" font-weight="normal" text-decoration="undefined" x="1170" y="823.5" text-anchor="start" dominant-baseline="central" transform="matrix(1 0 0 1 -1155 -597)">-logToUpdate: QualitysavelogModel</text></g></g><g><g><path fill="none" stroke="none"/><text fill="#000000" stroke="none" font-family="Arial" font-size="13px" font-style="normal" font-weight="normal" text-decoration="undefined" x="1170" y="838.5" text-anchor="start" dominant-baseline="central" transform="matrix(1 0 0 1 -1155 -597)">+updateDataSource: Array&lt;any&gt;</text></g></g><g><g><path fill="none" stroke="none"/><text fill="#000000" stroke="none" font-family="Arial" font-size="13px" font-style="normal" font-weight="normal" text-decoration="undefined" x="1170" y="853.5" text-anchor="start" dominant-baseline="central" transform="matrix(1 0 0 1 -1155 -597)">-qualitySaveLogService: QualitySaveLogService</text></g></g><g><g><path fill="none" stroke="none"/><text fill="#000000" stroke="none" font-family="Arial" font-size="13px" font-style="normal" font-weight="normal" text-decoration="undefined" x="1170" y="868.5" text-anchor="start" dominant-baseline="central" transform="matrix(1 0 0 1 -1155 -597)">-activePhaseService: ActivePhaseService</text></g></g><g><g><path fill="none" stroke="none"/><text fill="#000000" stroke="none" font-family="Arial" font-size="13px" font-style="normal" font-weight="normal" text-decoration="undefined" x="1170" y="883.5" text-anchor="start" dominant-baseline="central" transform="matrix(1 0 0 1 -1155 -597)">-mainViewCommunicationsService: MainViewCommunicationsService</text></g></g><g><g><path fill="none" stroke="none"/><text fill="#000000" stroke="none" font-family="Arial" font-size="13px" font-style="normal" font-weight="normal" text-decoration="undefined" x="1170" y="906.5" text-anchor="start" dominant-baseline="central" transform="matrix(1 0 0 1 -1155 -597)">+add(): void</text></g></g><g><g><path fill="none" stroke="none"/><text fill="#000000" stroke="none" font-family="Arial" font-size="13px" font-style="normal" font-weight="normal" text-decoration="undefined" x="1170" y="921.5" text-anchor="start" dominant-baseline="central" transform="matrix(1 0 0 1 -1155 -597)">+addDialog(): void</text></g></g><g><g><path fill="none" stroke="none"/><text fill="#000000" stroke="none" font-family="Arial" font-size="13px" font-style="normal" font-weight="normal" text-decoration="undefined" x="1170" y="936.5" text-anchor="start" dominant-baseline="central" transform="matrix(1 0 0 1 -1155 -597)">-buildQualityValue(): void</text></g></g><g><g><path fill="none" stroke="none"/><text fill="#000000" stroke="none" font-family="Arial" font-size="13px" font-style="normal" font-weight="normal" text-decoration="undefined" x="1170" y="951.5" text-anchor="start" dominant-baseline="central" transform="matrix(1 0 0 1 -1155 -597)">-clearDialog(): void</text></g></g><g><g><path fill="none" stroke="none"/><text fill="#000000" stroke="none" font-family="Arial" font-size="13px" font-style="normal" font-weight="normal" text-decoration="undefined" x="1170" y="966.5" text-anchor="start" dominant-baseline="central" transform="matrix(1 0 0 1 -1155 -597)">-initializeForm(): void</text></g></g><g><g><path fill="none" stroke="none"/><text fill="#000000" stroke="none" font-family="Arial" font-size="13px" font-style="normal" font-weight="normal" text-decoration="undefined" x="1170" y="981.5" text-anchor="start" dominant-baseline="central" transform="matrix(1 0 0 1 -1155 -597)">-openFailSnackBar(message: string, type: string): void</text></g></g><g><g><path fill="none" stroke="none"/><text fill="#000000" stroke="none" font-family="Arial" font-size="13px" font-style="normal" font-weight="normal" text-decoration="undefined" x="1170" y="996.5" text-anchor="start" dominant-baseline="central" transform="matrix(1 0 0 1 -1155 -597)">+openSuccessSnackBar(message: string, type: string): void</text></g></g><g><g><path fill="none" stroke="none"/><text fill="#000000" stroke="none" font-family="Arial" font-size="13px" font-style="normal" font-weight="normal" text-decoration="undefined" x="1170" y="1011.5" text-anchor="start" dominant-baseline="central" transform="matrix(1 0 0 1 -1155 -597)">-prepareAddParams(token: string, c_projectphase_id: number, qualityvalue: string): Add$Params</text></g></g><g><g><path fill="none" stroke="none"/><text fill="#000000" stroke="none" font-family="Arial" font-size="13px" font-style="normal" font-weight="normal" text-decoration="undefined" x="1170" y="1026.5" text-anchor="start" dominant-baseline="central" transform="matrix(1 0 0 1 -1155 -597)">-prepareUpdateParams(token: string, c_projectphase_quality_log_id: number, qualityvalue: string): Update$Params</text></g></g><g><g><path fill="none" stroke="none"/><text fill="#000000" stroke="none" font-family="Arial" font-size="13px" font-style="normal" font-weight="normal" text-decoration="undefined" x="1170" y="1041.5" text-anchor="start" dominant-baseline="central" transform="matrix(1 0 0 1 -1155 -597)">+update(): void</text></g></g><g><g><path fill="none" stroke="none"/><text fill="#000000" stroke="none" font-family="Arial" font-size="13px" font-style="normal" font-weight="normal" text-decoration="undefined" x="1170" y="1056.5" text-anchor="start" dominant-baseline="central" transform="matrix(1 0 0 1 -1155 -597)">+updateDialog(): void</text></g></g><g><path fill="none" stroke="#000000" paint-order="fill stroke markers" d=" M 343 472 L 341 570" stroke-miterlimit="10" stroke-dasharray=""/></g><g><path fill="none" stroke="#000000" paint-order="fill stroke markers" d=" M 336.99871693839646 559.7535501825791 L 341 570 L 345.41599976267935 559.9253314647074" stroke-miterlimit="10" stroke-dasharray=""/></g><g><rect fill="#C0C0C0" stroke="none" x="1327" y="1175" width="350.71044921875" height="101" transform="matrix(1 0 0 1 -1155 -597)" fill-opacity="0.2"/></g><g><rect fill="#ffffff" stroke="none" x="1320" y="1168" width="350.71044921875" height="101" transform="matrix(1 0 0 1 -1155 -597)"/></g><g><path fill="none" stroke="#000000" paint-order="fill stroke markers" d=" M 165 571 L 515.71044921875 571 L 515.71044921875 672 L 165 672 L 165 571 Z Z" stroke-miterlimit="10" stroke-dasharray=""/></g><g><path fill="none" stroke="#000000" paint-order="fill stroke markers" d=" M 165 596 L 516.71044921875 596" stroke-miterlimit="10" stroke-dasharray=""/></g><g><path fill="none" stroke="#000000" paint-order="fill stroke markers" d=" M 165 634 L 516.71044921875 634" stroke-miterlimit="10" stroke-dasharray=""/></g><g><g><path fill="none" stroke="none"/><text fill="#000000" stroke="none" font-family="Arial" font-size="13px" font-style="normal" font-weight="bold" text-decoration="undefined" x="1495.855224609375" y="1181.5" text-anchor="middle" dominant-baseline="central" transform="matrix(1 0 0 1 -1155 -597)">ConfirmDataDialog</text></g></g><g><g><path fill="none" stroke="none"/><text fill="#000000" stroke="none" font-family="Arial" font-size="13px" font-style="normal" font-weight="normal" text-decoration="undefined" x="1325" y="1204.5" text-anchor="start" dominant-baseline="central" transform="matrix(1 0 0 1 -1155 -597)">+fromPage: string</text></g></g><g><g><path fill="none" stroke="none"/><text fill="#000000" stroke="none" font-family="Arial" font-size="13px" font-style="normal" font-weight="normal" text-decoration="undefined" x="1325" y="1219.5" text-anchor="start" dominant-baseline="central" transform="matrix(1 0 0 1 -1155 -597)">+dialogRef: MatDialogRef&lt;ConfirmDataDialogComponent&gt;</text></g></g><g><g><path fill="none" stroke="none"/><text fill="#000000" stroke="none" font-family="Arial" font-size="13px" font-style="normal" font-weight="normal" text-decoration="undefined" x="1325" y="1242.5" text-anchor="start" dominant-baseline="central" transform="matrix(1 0 0 1 -1155 -597)">+confirm(): void</text></g></g><g><g><path fill="none" stroke="none"/><text fill="#000000" stroke="none" font-family="Arial" font-size="13px" font-style="normal" font-weight="normal" text-decoration="undefined" x="1325" y="1257.5" text-anchor="start" dominant-baseline="central" transform="matrix(1 0 0 1 -1155 -597)">+cancel(): void</text></g></g></g></svg>