<svg version="1.1" xmlns="http://www.w3.org/2000/svg" xmlns:xlink="http://www.w3.org/1999/xlink" width="698.34814453125" height="661"><defs/><g><g><rect fill="#ffffff" stroke="none" x="795" y="316" width="677.34814453125" height="461" transform="matrix(1 0 0 1 -785 -306)"/></g><g><path fill="none" stroke="#000000" paint-order="fill stroke markers" d=" M 10 10 L 687.34814453125 10 L 687.34814453125 471 L 10 471 L 10 10 Z Z" stroke-miterlimit="10" stroke-dasharray=""/></g><g><path fill="none" stroke="#000000" paint-order="fill stroke markers" d=" M 10 35 L 688.34814453125 35" stroke-miterlimit="10" stroke-dasharray=""/></g><g><path fill="none" stroke="#000000" paint-order="fill stroke markers" d=" M 10 283 L 688.34814453125 283" stroke-miterlimit="10" stroke-dasharray=""/></g><g><g><path fill="none" stroke="none"/><text fill="#000000" stroke="none" font-family="Arial" font-size="13px" font-style="normal" font-weight="bold" text-decoration="undefined" x="1134.174072265625" y="329.5" text-anchor="middle" dominant-baseline="central" transform="matrix(1 0 0 1 -785 -306)">LogModifierComponent</text></g></g><g><g><path fill="none" stroke="none"/><text fill="#000000" stroke="none" font-family="Arial" font-size="13px" font-style="normal" font-weight="normal" text-decoration="undefined" x="800" y="352.5" text-anchor="start" dominant-baseline="central" transform="matrix(1 0 0 1 -785 -306)">+activeAttributes: Array&lt;QualityattributeModel&gt;</text></g></g><g><g><path fill="none" stroke="none"/><text fill="#000000" stroke="none" font-family="Arial" font-size="13px" font-style="normal" font-weight="normal" text-decoration="undefined" x="800" y="367.5" text-anchor="start" dominant-baseline="central" transform="matrix(1 0 0 1 -785 -306)">-activeAttributesService: ActiveAttributesService</text></g></g><g><g><path fill="none" stroke="none"/><text fill="#000000" stroke="none" font-family="Arial" font-size="13px" font-style="normal" font-weight="normal" text-decoration="undefined" x="800" y="382.5" text-anchor="start" dominant-baseline="central" transform="matrix(1 0 0 1 -785 -306)">+addLog: boolean</text></g></g><g><g><path fill="none" stroke="none"/><text fill="#000000" stroke="none" font-family="Arial" font-size="13px" font-style="normal" font-weight="normal" text-decoration="undefined" x="800" y="397.5" text-anchor="start" dominant-baseline="central" transform="matrix(1 0 0 1 -785 -306)">+displayedColumns: Array&lt;string&gt;</text></g></g><g><g><path fill="none" stroke="none"/><text fill="#000000" stroke="none" font-family="Arial" font-size="13px" font-style="normal" font-weight="normal" text-decoration="undefined" x="800" y="412.5" text-anchor="start" dominant-baseline="central" transform="matrix(1 0 0 1 -785 -306)">-snackBar: MatSnackBar</text></g></g><g><g><path fill="none" stroke="none"/><text fill="#000000" stroke="none" font-family="Arial" font-size="13px" font-style="normal" font-weight="normal" text-decoration="undefined" x="800" y="427.5" text-anchor="start" dominant-baseline="central" transform="matrix(1 0 0 1 -785 -306)">-dialog: MatDialog</text></g></g><g><g><path fill="none" stroke="none"/><text fill="#000000" stroke="none" font-family="Arial" font-size="13px" font-style="normal" font-weight="normal" text-decoration="undefined" x="800" y="442.5" text-anchor="start" dominant-baseline="central" transform="matrix(1 0 0 1 -785 -306)">-form: FormGroup</text></g></g><g><g><path fill="none" stroke="none"/><text fill="#000000" stroke="none" font-family="Arial" font-size="13px" font-style="normal" font-weight="normal" text-decoration="undefined" x="800" y="457.5" text-anchor="start" dominant-baseline="central" transform="matrix(1 0 0 1 -785 -306)">-translateService: TranslateService</text></g></g><g><g><path fill="none" stroke="none"/><text fill="#000000" stroke="none" font-family="Arial" font-size="13px" font-style="normal" font-weight="normal" text-decoration="undefined" x="800" y="472.5" text-anchor="start" dominant-baseline="central" transform="matrix(1 0 0 1 -785 -306)">-authInfoService: AuthInformationsService</text></g></g><g><g><path fill="none" stroke="none"/><text fill="#000000" stroke="none" font-family="Arial" font-size="13px" font-style="normal" font-weight="normal" text-decoration="undefined" x="800" y="487.5" text-anchor="start" dominant-baseline="central" transform="matrix(1 0 0 1 -785 -306)">-loadingService: LoadingService</text></g></g><g><g><path fill="none" stroke="none"/><text fill="#000000" stroke="none" font-family="Arial" font-size="13px" font-style="normal" font-weight="normal" text-decoration="undefined" x="800" y="502.5" text-anchor="start" dominant-baseline="central" transform="matrix(1 0 0 1 -785 -306)">+defaultOption: string</text></g></g><g><g><path fill="none" stroke="none"/><text fill="#000000" stroke="none" font-family="Arial" font-size="13px" font-style="normal" font-weight="normal" text-decoration="undefined" x="800" y="517.5" text-anchor="start" dominant-baseline="central" transform="matrix(1 0 0 1 -785 -306)">-logToUpdate: QualitysavelogModel</text></g></g><g><g><path fill="none" stroke="none"/><text fill="#000000" stroke="none" font-family="Arial" font-size="13px" font-style="normal" font-weight="normal" text-decoration="undefined" x="800" y="532.5" text-anchor="start" dominant-baseline="central" transform="matrix(1 0 0 1 -785 -306)">+updateDataSource: Array&lt;any&gt;</text></g></g><g><g><path fill="none" stroke="none"/><text fill="#000000" stroke="none" font-family="Arial" font-size="13px" font-style="normal" font-weight="normal" text-decoration="undefined" x="800" y="547.5" text-anchor="start" dominant-baseline="central" transform="matrix(1 0 0 1 -785 -306)">-qualitySaveLogService: QualitySaveLogService</text></g></g><g><g><path fill="none" stroke="none"/><text fill="#000000" stroke="none" font-family="Arial" font-size="13px" font-style="normal" font-weight="normal" text-decoration="undefined" x="800" y="562.5" text-anchor="start" dominant-baseline="central" transform="matrix(1 0 0 1 -785 -306)">-activePhaseService: ActivePhaseService</text></g></g><g><g><path fill="none" stroke="none"/><text fill="#000000" stroke="none" font-family="Arial" font-size="13px" font-style="normal" font-weight="normal" text-decoration="undefined" x="800" y="577.5" text-anchor="start" dominant-baseline="central" transform="matrix(1 0 0 1 -785 -306)">-mainViewCommunicationsService: MainViewCommunicationsService</text></g></g><g><g><path fill="none" stroke="none"/><text fill="#000000" stroke="none" font-family="Arial" font-size="13px" font-style="normal" font-weight="normal" text-decoration="undefined" x="800" y="600.5" text-anchor="start" dominant-baseline="central" transform="matrix(1 0 0 1 -785 -306)">+add(): void</text></g></g><g><g><path fill="none" stroke="none"/><text fill="#000000" stroke="none" font-family="Arial" font-size="13px" font-style="normal" font-weight="normal" text-decoration="undefined" x="800" y="615.5" text-anchor="start" dominant-baseline="central" transform="matrix(1 0 0 1 -785 -306)">+addDialog(): void</text></g></g><g><g><path fill="none" stroke="none"/><text fill="#000000" stroke="none" font-family="Arial" font-size="13px" font-style="normal" font-weight="normal" text-decoration="undefined" x="800" y="630.5" text-anchor="start" dominant-baseline="central" transform="matrix(1 0 0 1 -785 -306)">-buildQualityValue(): void</text></g></g><g><g><path fill="none" stroke="none"/><text fill="#000000" stroke="none" font-family="Arial" font-size="13px" font-style="normal" font-weight="normal" text-decoration="undefined" x="800" y="645.5" text-anchor="start" dominant-baseline="central" transform="matrix(1 0 0 1 -785 -306)">-clearDialog(): void</text></g></g><g><g><path fill="none" stroke="none"/><text fill="#000000" stroke="none" font-family="Arial" font-size="13px" font-style="normal" font-weight="normal" text-decoration="undefined" x="800" y="660.5" text-anchor="start" dominant-baseline="central" transform="matrix(1 0 0 1 -785 -306)">-initializeForm(): void</text></g></g><g><g><path fill="none" stroke="none"/><text fill="#000000" stroke="none" font-family="Arial" font-size="13px" font-style="normal" font-weight="normal" text-decoration="undefined" x="800" y="675.5" text-anchor="start" dominant-baseline="central" transform="matrix(1 0 0 1 -785 -306)">-openFailSnackBar(message: string, type: string): void</text></g></g><g><g><path fill="none" stroke="none"/><text fill="#000000" stroke="none" font-family="Arial" font-size="13px" font-style="normal" font-weight="normal" text-decoration="undefined" x="800" y="690.5" text-anchor="start" dominant-baseline="central" transform="matrix(1 0 0 1 -785 -306)">-openSuccessSnackBar(message: string, type: string): void</text></g></g><g><g><path fill="none" stroke="none"/><text fill="#000000" stroke="none" font-family="Arial" font-size="13px" font-style="normal" font-weight="normal" text-decoration="undefined" x="800" y="705.5" text-anchor="start" dominant-baseline="central" transform="matrix(1 0 0 1 -785 -306)">-prepareAddParams(token: string, c_projectphase_id: number, qualityvalue: string): Add$Params</text></g></g><g><g><path fill="none" stroke="none"/><text fill="#000000" stroke="none" font-family="Arial" font-size="13px" font-style="normal" font-weight="normal" text-decoration="undefined" x="800" y="720.5" text-anchor="start" dominant-baseline="central" transform="matrix(1 0 0 1 -785 -306)">-prepareUpdateParams(token: string, c_projectphase_quality_log_id: number, qualityvalue: string): Update$Params</text></g></g><g><g><path fill="none" stroke="none"/><text fill="#000000" stroke="none" font-family="Arial" font-size="13px" font-style="normal" font-weight="normal" text-decoration="undefined" x="800" y="735.5" text-anchor="start" dominant-baseline="central" transform="matrix(1 0 0 1 -785 -306)">+update(): void</text></g></g><g><g><path fill="none" stroke="none"/><text fill="#000000" stroke="none" font-family="Arial" font-size="13px" font-style="normal" font-weight="normal" text-decoration="undefined" x="800" y="750.5" text-anchor="start" dominant-baseline="central" transform="matrix(1 0 0 1 -785 -306)">+updateDialog(): void</text></g></g><g><path fill="none" stroke="#000000" paint-order="fill stroke markers" d=" M 349 472 L 350 549" stroke-miterlimit="10" stroke-dasharray=""/></g><g><path fill="none" stroke="#000000" paint-order="fill stroke markers" d=" M 345.65886553149994 538.8928465171246 L 350 549 L 354.07719114551537 538.7835176130465" stroke-miterlimit="10" stroke-dasharray=""/></g><g><rect fill="#ffffff" stroke="none" x="960" y="856" width="350.71044921875" height="101" transform="matrix(1 0 0 1 -785 -306)"/></g><g><path fill="none" stroke="#000000" paint-order="fill stroke markers" d=" M 175 550 L 525.71044921875 550 L 525.71044921875 651 L 175 651 L 175 550 Z Z" stroke-miterlimit="10" stroke-dasharray=""/></g><g><path fill="none" stroke="#000000" paint-order="fill stroke markers" d=" M 175 575 L 526.71044921875 575" stroke-miterlimit="10" stroke-dasharray=""/></g><g><path fill="none" stroke="#000000" paint-order="fill stroke markers" d=" M 175 613 L 526.71044921875 613" stroke-miterlimit="10" stroke-dasharray=""/></g><g><g><path fill="none" stroke="none"/><text fill="#000000" stroke="none" font-family="Arial" font-size="13px" font-style="normal" font-weight="bold" text-decoration="undefined" x="1135.855224609375" y="869.5" text-anchor="middle" dominant-baseline="central" transform="matrix(1 0 0 1 -785 -306)">ConfirmDataDialog</text></g></g><g><g><path fill="none" stroke="none"/><text fill="#000000" stroke="none" font-family="Arial" font-size="13px" font-style="normal" font-weight="normal" text-decoration="undefined" x="965" y="892.5" text-anchor="start" dominant-baseline="central" transform="matrix(1 0 0 1 -785 -306)">+fromPage: string</text></g></g><g><g><path fill="none" stroke="none"/><text fill="#000000" stroke="none" font-family="Arial" font-size="13px" font-style="normal" font-weight="normal" text-decoration="undefined" x="965" y="907.5" text-anchor="start" dominant-baseline="central" transform="matrix(1 0 0 1 -785 -306)">+dialogRef: MatDialogRef&lt;ConfirmDataDialogComponent&gt;</text></g></g><g><g><path fill="none" stroke="none"/><text fill="#000000" stroke="none" font-family="Arial" font-size="13px" font-style="normal" font-weight="normal" text-decoration="undefined" x="965" y="930.5" text-anchor="start" dominant-baseline="central" transform="matrix(1 0 0 1 -785 -306)">+confirm(): void</text></g></g><g><g><path fill="none" stroke="none"/><text fill="#000000" stroke="none" font-family="Arial" font-size="13px" font-style="normal" font-weight="normal" text-decoration="undefined" x="965" y="945.5" text-anchor="start" dominant-baseline="central" transform="matrix(1 0 0 1 -785 -306)">+cancel(): void</text></g></g></g></svg>