<svg version="1.1" xmlns="http://www.w3.org/2000/svg" xmlns:xlink="http://www.w3.org/1999/xlink" width="322.90966796875" height="226"><defs/><g><g><rect fill="#ffffff" stroke="none" x="379" y="394" width="301.90966796875" height="206" transform="matrix(1 0 0 1 -369 -384)"/></g><g><path fill="none" stroke="#000000" paint-order="fill stroke markers" d=" M 10 10 L 311.90966796875 10 L 311.90966796875 216 L 10 216 L 10 10 Z Z" stroke-miterlimit="10" stroke-dasharray=""/></g><g><path fill="none" stroke="#000000" paint-order="fill stroke markers" d=" M 10 35 L 312.90966796875 35" stroke-miterlimit="10" stroke-dasharray=""/></g><g><path fill="none" stroke="#000000" paint-order="fill stroke markers" d=" M 10 178 L 312.90966796875 178" stroke-miterlimit="10" stroke-dasharray=""/></g><g><g><path fill="none" stroke="none"/><text fill="#000000" stroke="none" font-family="Arial" font-size="13px" font-style="normal" font-weight="bold" text-decoration="undefined" x="530.454833984375" y="407.5" text-anchor="middle" dominant-baseline="central" transform="matrix(1 0 0 1 -369 -384)">LoginUsernameComponent</text></g></g><g><g><path fill="none" stroke="none"/><text fill="#000000" stroke="none" font-family="Arial" font-size="13px" font-style="normal" font-weight="normal" text-decoration="undefined" x="384" y="430.5" text-anchor="start" dominant-baseline="central" transform="matrix(1 0 0 1 -369 -384)">-router: Router</text></g></g><g><g><path fill="none" stroke="none"/><text fill="#000000" stroke="none" font-family="Arial" font-size="13px" font-style="normal" font-weight="normal" text-decoration="undefined" x="384" y="445.5" text-anchor="start" dominant-baseline="central" transform="matrix(1 0 0 1 -369 -384)">-snackBar: MatSnackBar</text></g></g><g><g><path fill="none" stroke="none"/><text fill="#000000" stroke="none" font-family="Arial" font-size="13px" font-style="normal" font-weight="normal" text-decoration="undefined" x="384" y="460.5" text-anchor="start" dominant-baseline="central" transform="matrix(1 0 0 1 -369 -384)">-authService: AuthenticationService</text></g></g><g><g><path fill="none" stroke="none"/><text fill="#000000" stroke="none" font-family="Arial" font-size="13px" font-style="normal" font-weight="normal" text-decoration="undefined" x="384" y="475.5" text-anchor="start" dominant-baseline="central" transform="matrix(1 0 0 1 -369 -384)">-formBuilder: FormBuilder</text></g></g><g><g><path fill="none" stroke="none"/><text fill="#000000" stroke="none" font-family="Arial" font-size="13px" font-style="normal" font-weight="normal" text-decoration="undefined" x="384" y="490.5" text-anchor="start" dominant-baseline="central" transform="matrix(1 0 0 1 -369 -384)">+loading: boolean</text></g></g><g><g><path fill="none" stroke="none"/><text fill="#000000" stroke="none" font-family="Arial" font-size="13px" font-style="normal" font-weight="normal" text-decoration="undefined" x="384" y="505.5" text-anchor="start" dominant-baseline="central" transform="matrix(1 0 0 1 -369 -384)">+hide: boolean</text></g></g><g><g><path fill="none" stroke="none"/><text fill="#000000" stroke="none" font-family="Arial" font-size="13px" font-style="normal" font-weight="normal" text-decoration="undefined" x="384" y="520.5" text-anchor="start" dominant-baseline="central" transform="matrix(1 0 0 1 -369 -384)">+form: FormGroup</text></g></g><g><g><path fill="none" stroke="none"/><text fill="#000000" stroke="none" font-family="Arial" font-size="13px" font-style="normal" font-weight="normal" text-decoration="undefined" x="384" y="535.5" text-anchor="start" dominant-baseline="central" transform="matrix(1 0 0 1 -369 -384)">-translateService: TranslateService</text></g></g><g><g><path fill="none" stroke="none"/><text fill="#000000" stroke="none" font-family="Arial" font-size="13px" font-style="normal" font-weight="normal" text-decoration="undefined" x="384" y="550.5" text-anchor="start" dominant-baseline="central" transform="matrix(1 0 0 1 -369 -384)">-authInfoService: AuthInformationsService</text></g></g><g><g><path fill="none" stroke="none"/><text fill="#000000" stroke="none" font-family="Arial" font-size="13px" font-style="normal" font-weight="normal" text-decoration="undefined" x="384" y="573.5" text-anchor="start" dominant-baseline="central" transform="matrix(1 0 0 1 -369 -384)">-openSnackBar(message: string, type: string): void</text></g></g><g><g><path fill="none" stroke="none"/><text fill="#000000" stroke="none" font-family="Arial" font-size="13px" font-style="normal" font-weight="normal" text-decoration="undefined" x="384" y="588.5" text-anchor="start" dominant-baseline="central" transform="matrix(1 0 0 1 -369 -384)">+login(): void</text></g></g></g></svg>