<svg version="1.1" xmlns="http://www.w3.org/2000/svg" xmlns:xlink="http://www.w3.org/1999/xlink" width="572.88671875" height="301"><defs/><g><g><rect fill="#ffffff" stroke="none" x="173" y="584" width="551.88671875" height="281" transform="matrix(1 0 0 1 -163 -574)"/></g><g><path fill="none" stroke="#000000" paint-order="fill stroke markers" d=" M 10 10 L 561.88671875 10 L 561.88671875 291 L 10 291 L 10 10 Z Z" stroke-miterlimit="10" stroke-dasharray=""/></g><g><path fill="none" stroke="#000000" paint-order="fill stroke markers" d=" M 10 35 L 562.88671875 35" stroke-miterlimit="10" stroke-dasharray=""/></g><g><path fill="none" stroke="#000000" paint-order="fill stroke markers" d=" M 10 193 L 562.88671875 193" stroke-miterlimit="10" stroke-dasharray=""/></g><g><g><path fill="none" stroke="none"/><text fill="#000000" stroke="none" font-family="Arial" font-size="13px" font-style="normal" font-weight="bold" text-decoration="undefined" x="449.443359375" y="597.5" text-anchor="middle" dominant-baseline="central" transform="matrix(1 0 0 1 -163 -574)">LoginPinComponent</text></g></g><g><g><path fill="none" stroke="none"/><text fill="#000000" stroke="none" font-family="Arial" font-size="13px" font-style="normal" font-weight="normal" text-decoration="undefined" x="178" y="620.5" text-anchor="start" dominant-baseline="central" transform="matrix(1 0 0 1 -163 -574)">-snackBar: MatSnackBar</text></g></g><g><g><path fill="none" stroke="none"/><text fill="#000000" stroke="none" font-family="Arial" font-size="13px" font-style="normal" font-weight="normal" text-decoration="undefined" x="178" y="635.5" text-anchor="start" dominant-baseline="central" transform="matrix(1 0 0 1 -163 -574)">-operatorsService: OperatorsService</text></g></g><g><g><path fill="none" stroke="none"/><text fill="#000000" stroke="none" font-family="Arial" font-size="13px" font-style="normal" font-weight="normal" text-decoration="undefined" x="178" y="650.5" text-anchor="start" dominant-baseline="central" transform="matrix(1 0 0 1 -163 -574)">-router: Router</text></g></g><g><g><path fill="none" stroke="none"/><text fill="#000000" stroke="none" font-family="Arial" font-size="13px" font-style="normal" font-weight="normal" text-decoration="undefined" x="178" y="665.5" text-anchor="start" dominant-baseline="central" transform="matrix(1 0 0 1 -163 -574)">-formBuilder: FormBuilder</text></g></g><g><g><path fill="none" stroke="none"/><text fill="#000000" stroke="none" font-family="Arial" font-size="13px" font-style="normal" font-weight="normal" text-decoration="undefined" x="178" y="680.5" text-anchor="start" dominant-baseline="central" transform="matrix(1 0 0 1 -163 -574)">+hide: boolean</text></g></g><g><g><path fill="none" stroke="none"/><text fill="#000000" stroke="none" font-family="Arial" font-size="13px" font-style="normal" font-weight="normal" text-decoration="undefined" x="178" y="695.5" text-anchor="start" dominant-baseline="central" transform="matrix(1 0 0 1 -163 -574)">+form: FormGroup</text></g></g><g><g><path fill="none" stroke="none"/><text fill="#000000" stroke="none" font-family="Arial" font-size="13px" font-style="normal" font-weight="normal" text-decoration="undefined" x="178" y="710.5" text-anchor="start" dominant-baseline="central" transform="matrix(1 0 0 1 -163 -574)">+loading: boolean</text></g></g><g><g><path fill="none" stroke="none"/><text fill="#000000" stroke="none" font-family="Arial" font-size="13px" font-style="normal" font-weight="normal" text-decoration="undefined" x="178" y="725.5" text-anchor="start" dominant-baseline="central" transform="matrix(1 0 0 1 -163 -574)">-translateService: TranslateService</text></g></g><g><g><path fill="none" stroke="none"/><text fill="#000000" stroke="none" font-family="Arial" font-size="13px" font-style="normal" font-weight="normal" text-decoration="undefined" x="178" y="740.5" text-anchor="start" dominant-baseline="central" transform="matrix(1 0 0 1 -163 -574)">-authInfoService: AuthInformationsService</text></g></g><g><g><path fill="none" stroke="none"/><text fill="#000000" stroke="none" font-family="Arial" font-size="13px" font-style="normal" font-weight="normal" text-decoration="undefined" x="178" y="755.5" text-anchor="start" dominant-baseline="central" transform="matrix(1 0 0 1 -163 -574)">+opacityChange: string</text></g></g><g><g><path fill="none" stroke="none"/><text fill="#000000" stroke="none" font-family="Arial" font-size="13px" font-style="normal" font-weight="normal" text-decoration="undefined" x="178" y="778.5" text-anchor="start" dominant-baseline="central" transform="matrix(1 0 0 1 -163 -574)">-openSnackBar(message: string, type: string): void</text></g></g><g><g><path fill="none" stroke="none"/><text fill="#000000" stroke="none" font-family="Arial" font-size="13px" font-style="normal" font-weight="normal" text-decoration="undefined" x="178" y="793.5" text-anchor="start" dominant-baseline="central" transform="matrix(1 0 0 1 -163 -574)">+login(): void</text></g></g><g><g><path fill="none" stroke="none"/><text fill="#000000" stroke="none" font-family="Arial" font-size="13px" font-style="normal" font-weight="normal" text-decoration="undefined" x="178" y="808.5" text-anchor="start" dominant-baseline="central" transform="matrix(1 0 0 1 -163 -574)">+append(input: number): void</text></g></g><g><g><path fill="none" stroke="none"/><text fill="#000000" stroke="none" font-family="Arial" font-size="13px" font-style="normal" font-weight="normal" text-decoration="undefined" x="178" y="823.5" text-anchor="start" dominant-baseline="central" transform="matrix(1 0 0 1 -163 -574)">+clear(): void</text></g></g><g><g><path fill="none" stroke="none"/><text fill="#000000" stroke="none" font-family="Arial" font-size="13px" font-style="normal" font-weight="normal" text-decoration="undefined" x="178" y="838.5" text-anchor="start" dominant-baseline="central" transform="matrix(1 0 0 1 -163 -574)">+removeLast(): void</text></g></g><g><g><path fill="none" stroke="none"/><text fill="#000000" stroke="none" font-family="Arial" font-size="13px" font-style="normal" font-weight="normal" text-decoration="undefined" x="178" y="853.5" text-anchor="start" dominant-baseline="central" transform="matrix(1 0 0 1 -163 -574)">-prepareParams(token: string, fieldName: string, value: string, operator: string): Fetch$Params</text></g></g></g></svg>