<svg version="1.1" xmlns="http://www.w3.org/2000/svg" xmlns:xlink="http://www.w3.org/1999/xlink" width="322.90966796875" height="241"><defs/><g><g><rect fill="#ffffff" stroke="none" x="298" y="614" width="301.90966796875" height="221" transform="matrix(1 0 0 1 -288 -604)"/></g><g><path fill="none" stroke="#000000" paint-order="fill stroke markers" d=" M 10 10 L 311.90966796875 10 L 311.90966796875 231 L 10 231 L 10 10 Z Z" stroke-miterlimit="10" stroke-dasharray=""/></g><g><path fill="none" stroke="#000000" paint-order="fill stroke markers" d=" M 10 35 L 312.90966796875 35" stroke-miterlimit="10" stroke-dasharray=""/></g><g><path fill="none" stroke="#000000" paint-order="fill stroke markers" d=" M 10 193 L 312.90966796875 193" stroke-miterlimit="10" stroke-dasharray=""/></g><g><g><path fill="none" stroke="none"/><text fill="#000000" stroke="none" font-family="Arial" font-size="13px" font-style="normal" font-weight="bold" text-decoration="undefined" x="449.454833984375" y="627.5" text-anchor="middle" dominant-baseline="central" transform="matrix(1 0 0 1 -288 -604)">LoginUsernameComponent</text></g></g><g><g><path fill="none" stroke="none"/><text fill="#000000" stroke="none" font-family="Arial" font-size="13px" font-style="normal" font-weight="normal" text-decoration="undefined" x="303" y="650.5" text-anchor="start" dominant-baseline="central" transform="matrix(1 0 0 1 -288 -604)">-router: Router</text></g></g><g><g><path fill="none" stroke="none"/><text fill="#000000" stroke="none" font-family="Arial" font-size="13px" font-style="normal" font-weight="normal" text-decoration="undefined" x="303" y="665.5" text-anchor="start" dominant-baseline="central" transform="matrix(1 0 0 1 -288 -604)">-snackBar: MatSnackBar</text></g></g><g><g><path fill="none" stroke="none"/><text fill="#000000" stroke="none" font-family="Arial" font-size="13px" font-style="normal" font-weight="normal" text-decoration="undefined" x="303" y="680.5" text-anchor="start" dominant-baseline="central" transform="matrix(1 0 0 1 -288 -604)">-authService: AuthenticationService</text></g></g><g><g><path fill="none" stroke="none"/><text fill="#000000" stroke="none" font-family="Arial" font-size="13px" font-style="normal" font-weight="normal" text-decoration="undefined" x="303" y="695.5" text-anchor="start" dominant-baseline="central" transform="matrix(1 0 0 1 -288 -604)">-formBuilder: FormBuilder</text></g></g><g><g><path fill="none" stroke="none"/><text fill="#000000" stroke="none" font-family="Arial" font-size="13px" font-style="normal" font-weight="normal" text-decoration="undefined" x="303" y="710.5" text-anchor="start" dominant-baseline="central" transform="matrix(1 0 0 1 -288 -604)">+loading: boolean</text></g></g><g><g><path fill="none" stroke="none"/><text fill="#000000" stroke="none" font-family="Arial" font-size="13px" font-style="normal" font-weight="normal" text-decoration="undefined" x="303" y="725.5" text-anchor="start" dominant-baseline="central" transform="matrix(1 0 0 1 -288 -604)">+hide: boolean</text></g></g><g><g><path fill="none" stroke="none"/><text fill="#000000" stroke="none" font-family="Arial" font-size="13px" font-style="normal" font-weight="normal" text-decoration="undefined" x="303" y="740.5" text-anchor="start" dominant-baseline="central" transform="matrix(1 0 0 1 -288 -604)">+form: FormGroup</text></g></g><g><g><path fill="none" stroke="none"/><text fill="#000000" stroke="none" font-family="Arial" font-size="13px" font-style="normal" font-weight="normal" text-decoration="undefined" x="303" y="755.5" text-anchor="start" dominant-baseline="central" transform="matrix(1 0 0 1 -288 -604)">-translateService: TranslateService</text></g></g><g><g><path fill="none" stroke="none"/><text fill="#000000" stroke="none" font-family="Arial" font-size="13px" font-style="normal" font-weight="normal" text-decoration="undefined" x="303" y="770.5" text-anchor="start" dominant-baseline="central" transform="matrix(1 0 0 1 -288 -604)">-authInfoService: AuthInformationsService</text></g></g><g><g><path fill="none" stroke="none"/><text fill="#000000" stroke="none" font-family="Arial" font-size="13px" font-style="normal" font-weight="normal" text-decoration="undefined" x="303" y="785.5" text-anchor="start" dominant-baseline="central" transform="matrix(1 0 0 1 -288 -604)">+opacityChange: string</text></g></g><g><g><path fill="none" stroke="none"/><text fill="#000000" stroke="none" font-family="Arial" font-size="13px" font-style="normal" font-weight="normal" text-decoration="undefined" x="303" y="808.5" text-anchor="start" dominant-baseline="central" transform="matrix(1 0 0 1 -288 -604)">-openSnackBar(message: string, type: string): void</text></g></g><g><g><path fill="none" stroke="none"/><text fill="#000000" stroke="none" font-family="Arial" font-size="13px" font-style="normal" font-weight="normal" text-decoration="undefined" x="303" y="823.5" text-anchor="start" dominant-baseline="central" transform="matrix(1 0 0 1 -288 -604)">+login(): void</text></g></g></g></svg>