<svg version="1.1" xmlns="http://www.w3.org/2000/svg" xmlns:xlink="http://www.w3.org/1999/xlink" width="322.90966796875" height="256"><defs/><g><g><rect fill="#ffffff" stroke="none" x="1736" y="1016" width="301.90966796875" height="236" transform="matrix(1 0 0 1 -1726 -1006)"/></g><g><path fill="none" stroke="#000000" paint-order="fill stroke markers" d=" M 10 10 L 311.90966796875 10 L 311.90966796875 246 L 10 246 L 10 10 Z Z" stroke-miterlimit="10" stroke-dasharray=""/></g><g><path fill="none" stroke="#000000" paint-order="fill stroke markers" d=" M 10 35 L 312.90966796875 35" stroke-miterlimit="10" stroke-dasharray=""/></g><g><path fill="none" stroke="#000000" paint-order="fill stroke markers" d=" M 10 208 L 312.90966796875 208" stroke-miterlimit="10" stroke-dasharray=""/></g><g><g><path fill="none" stroke="none"/><text fill="#000000" stroke="none" font-family="Arial" font-size="13px" font-style="normal" font-weight="bold" text-decoration="undefined" x="1887.454833984375" y="1029.5" text-anchor="middle" dominant-baseline="central" transform="matrix(1 0 0 1 -1726 -1006)">LoginUsernameComponent</text></g></g><g><g><path fill="none" stroke="none"/><text fill="#000000" stroke="none" font-family="Arial" font-size="13px" font-style="normal" font-weight="normal" text-decoration="undefined" x="1741" y="1052.5" text-anchor="start" dominant-baseline="central" transform="matrix(1 0 0 1 -1726 -1006)">-router: Router</text></g></g><g><g><path fill="none" stroke="none"/><text fill="#000000" stroke="none" font-family="Arial" font-size="13px" font-style="normal" font-weight="normal" text-decoration="undefined" x="1741" y="1067.5" text-anchor="start" dominant-baseline="central" transform="matrix(1 0 0 1 -1726 -1006)">-snackBar: MatSnackBar</text></g></g><g><g><path fill="none" stroke="none"/><text fill="#000000" stroke="none" font-family="Arial" font-size="13px" font-style="normal" font-weight="normal" text-decoration="undefined" x="1741" y="1082.5" text-anchor="start" dominant-baseline="central" transform="matrix(1 0 0 1 -1726 -1006)">-authService: AuthenticationService</text></g></g><g><g><path fill="none" stroke="none"/><text fill="#000000" stroke="none" font-family="Arial" font-size="13px" font-style="normal" font-weight="normal" text-decoration="undefined" x="1741" y="1097.5" text-anchor="start" dominant-baseline="central" transform="matrix(1 0 0 1 -1726 -1006)">-formBuilder: FormBuilder</text></g></g><g><g><path fill="none" stroke="none"/><text fill="#000000" stroke="none" font-family="Arial" font-size="13px" font-style="normal" font-weight="normal" text-decoration="undefined" x="1741" y="1112.5" text-anchor="start" dominant-baseline="central" transform="matrix(1 0 0 1 -1726 -1006)">+loading: boolean</text></g></g><g><g><path fill="none" stroke="none"/><text fill="#000000" stroke="none" font-family="Arial" font-size="13px" font-style="normal" font-weight="normal" text-decoration="undefined" x="1741" y="1127.5" text-anchor="start" dominant-baseline="central" transform="matrix(1 0 0 1 -1726 -1006)">+hide: boolean</text></g></g><g><g><path fill="none" stroke="none"/><text fill="#000000" stroke="none" font-family="Arial" font-size="13px" font-style="normal" font-weight="normal" text-decoration="undefined" x="1741" y="1142.5" text-anchor="start" dominant-baseline="central" transform="matrix(1 0 0 1 -1726 -1006)">+form: FormGroup</text></g></g><g><g><path fill="none" stroke="none"/><text fill="#000000" stroke="none" font-family="Arial" font-size="13px" font-style="normal" font-weight="normal" text-decoration="undefined" x="1741" y="1157.5" text-anchor="start" dominant-baseline="central" transform="matrix(1 0 0 1 -1726 -1006)">-translateService: TranslateService</text></g></g><g><g><path fill="none" stroke="none"/><text fill="#000000" stroke="none" font-family="Arial" font-size="13px" font-style="normal" font-weight="normal" text-decoration="undefined" x="1741" y="1172.5" text-anchor="start" dominant-baseline="central" transform="matrix(1 0 0 1 -1726 -1006)">-authInfoService: AuthInformationsService</text></g></g><g><g><path fill="none" stroke="none"/><text fill="#000000" stroke="none" font-family="Arial" font-size="13px" font-style="normal" font-weight="normal" text-decoration="undefined" x="1741" y="1187.5" text-anchor="start" dominant-baseline="central" transform="matrix(1 0 0 1 -1726 -1006)">+opacityChange: string</text></g></g><g><g><path fill="none" stroke="none"/><text fill="#000000" stroke="none" font-family="Arial" font-size="13px" font-style="normal" font-weight="normal" text-decoration="undefined" x="1741" y="1202.5" text-anchor="start" dominant-baseline="central" transform="matrix(1 0 0 1 -1726 -1006)">-loadingService: LoadingService</text></g></g><g><g><path fill="none" stroke="none"/><text fill="#000000" stroke="none" font-family="Arial" font-size="13px" font-style="normal" font-weight="normal" text-decoration="undefined" x="1741" y="1225.5" text-anchor="start" dominant-baseline="central" transform="matrix(1 0 0 1 -1726 -1006)">+login(): void</text></g></g><g><g><path fill="none" stroke="none"/><text fill="#000000" stroke="none" font-family="Arial" font-size="13px" font-style="normal" font-weight="normal" text-decoration="undefined" x="1741" y="1240.5" text-anchor="start" dominant-baseline="central" transform="matrix(1 0 0 1 -1726 -1006)">-openSnackBar(message: string, type: string): void</text></g></g></g></svg>