<svg version="1.1" xmlns="http://www.w3.org/2000/svg" xmlns:xlink="http://www.w3.org/1999/xlink" width="572.88671875" height="286"><defs/><g><g><rect fill="#ffffff" stroke="none" x="172" y="200" width="551.88671875" height="266" transform="matrix(1 0 0 1 -162 -190)"/></g><g><path fill="none" stroke="#000000" paint-order="fill stroke markers" d=" M 10 10 L 561.88671875 10 L 561.88671875 276 L 10 276 L 10 10 Z Z" stroke-miterlimit="10" stroke-dasharray=""/></g><g><path fill="none" stroke="#000000" paint-order="fill stroke markers" d=" M 10 35 L 562.88671875 35" stroke-miterlimit="10" stroke-dasharray=""/></g><g><path fill="none" stroke="#000000" paint-order="fill stroke markers" d=" M 10 178 L 562.88671875 178" stroke-miterlimit="10" stroke-dasharray=""/></g><g><g><path fill="none" stroke="none"/><text fill="#000000" stroke="none" font-family="Arial" font-size="13px" font-style="normal" font-weight="bold" text-decoration="undefined" x="448.443359375" y="213.5" text-anchor="middle" dominant-baseline="central" transform="matrix(1 0 0 1 -162 -190)">LoginPinComponent</text></g></g><g><g><path fill="none" stroke="none"/><text fill="#000000" stroke="none" font-family="Arial" font-size="13px" font-style="normal" font-weight="normal" text-decoration="undefined" x="177" y="236.5" text-anchor="start" dominant-baseline="central" transform="matrix(1 0 0 1 -162 -190)">-snackBar: MatSnackBar</text></g></g><g><g><path fill="none" stroke="none"/><text fill="#000000" stroke="none" font-family="Arial" font-size="13px" font-style="normal" font-weight="normal" text-decoration="undefined" x="177" y="251.5" text-anchor="start" dominant-baseline="central" transform="matrix(1 0 0 1 -162 -190)">-operatorsService: OperatorsService</text></g></g><g><g><path fill="none" stroke="none"/><text fill="#000000" stroke="none" font-family="Arial" font-size="13px" font-style="normal" font-weight="normal" text-decoration="undefined" x="177" y="266.5" text-anchor="start" dominant-baseline="central" transform="matrix(1 0 0 1 -162 -190)">-router: Router</text></g></g><g><g><path fill="none" stroke="none"/><text fill="#000000" stroke="none" font-family="Arial" font-size="13px" font-style="normal" font-weight="normal" text-decoration="undefined" x="177" y="281.5" text-anchor="start" dominant-baseline="central" transform="matrix(1 0 0 1 -162 -190)">-formBuilder: FormBuilder</text></g></g><g><g><path fill="none" stroke="none"/><text fill="#000000" stroke="none" font-family="Arial" font-size="13px" font-style="normal" font-weight="normal" text-decoration="undefined" x="177" y="296.5" text-anchor="start" dominant-baseline="central" transform="matrix(1 0 0 1 -162 -190)">+hide: boolean</text></g></g><g><g><path fill="none" stroke="none"/><text fill="#000000" stroke="none" font-family="Arial" font-size="13px" font-style="normal" font-weight="normal" text-decoration="undefined" x="177" y="311.5" text-anchor="start" dominant-baseline="central" transform="matrix(1 0 0 1 -162 -190)">+form: FormGroup</text></g></g><g><g><path fill="none" stroke="none"/><text fill="#000000" stroke="none" font-family="Arial" font-size="13px" font-style="normal" font-weight="normal" text-decoration="undefined" x="177" y="326.5" text-anchor="start" dominant-baseline="central" transform="matrix(1 0 0 1 -162 -190)">+loading: boolean</text></g></g><g><g><path fill="none" stroke="none"/><text fill="#000000" stroke="none" font-family="Arial" font-size="13px" font-style="normal" font-weight="normal" text-decoration="undefined" x="177" y="341.5" text-anchor="start" dominant-baseline="central" transform="matrix(1 0 0 1 -162 -190)">-translateService: TranslateService</text></g></g><g><g><path fill="none" stroke="none"/><text fill="#000000" stroke="none" font-family="Arial" font-size="13px" font-style="normal" font-weight="normal" text-decoration="undefined" x="177" y="356.5" text-anchor="start" dominant-baseline="central" transform="matrix(1 0 0 1 -162 -190)">-authInfoService: AuthInformationsService</text></g></g><g><g><path fill="none" stroke="none"/><text fill="#000000" stroke="none" font-family="Arial" font-size="13px" font-style="normal" font-weight="normal" text-decoration="undefined" x="177" y="379.5" text-anchor="start" dominant-baseline="central" transform="matrix(1 0 0 1 -162 -190)">-openSnackBar(message: string, type: string): void</text></g></g><g><g><path fill="none" stroke="none"/><text fill="#000000" stroke="none" font-family="Arial" font-size="13px" font-style="normal" font-weight="normal" text-decoration="undefined" x="177" y="394.5" text-anchor="start" dominant-baseline="central" transform="matrix(1 0 0 1 -162 -190)">+login(): void</text></g></g><g><g><path fill="none" stroke="none"/><text fill="#000000" stroke="none" font-family="Arial" font-size="13px" font-style="normal" font-weight="normal" text-decoration="undefined" x="177" y="409.5" text-anchor="start" dominant-baseline="central" transform="matrix(1 0 0 1 -162 -190)">+append(input: number): void</text></g></g><g><g><path fill="none" stroke="none"/><text fill="#000000" stroke="none" font-family="Arial" font-size="13px" font-style="normal" font-weight="normal" text-decoration="undefined" x="177" y="424.5" text-anchor="start" dominant-baseline="central" transform="matrix(1 0 0 1 -162 -190)">+clear(): void</text></g></g><g><g><path fill="none" stroke="none"/><text fill="#000000" stroke="none" font-family="Arial" font-size="13px" font-style="normal" font-weight="normal" text-decoration="undefined" x="177" y="439.5" text-anchor="start" dominant-baseline="central" transform="matrix(1 0 0 1 -162 -190)">+removeLast(): void</text></g></g><g><g><path fill="none" stroke="none"/><text fill="#000000" stroke="none" font-family="Arial" font-size="13px" font-style="normal" font-weight="normal" text-decoration="undefined" x="177" y="454.5" text-anchor="start" dominant-baseline="central" transform="matrix(1 0 0 1 -162 -190)">-prepareParams(token: string, fieldName: string, value: string, operator: string): Fetch$Params</text></g></g></g></svg>