<svg version="1.1" xmlns="http://www.w3.org/2000/svg" xmlns:xlink="http://www.w3.org/1999/xlink" width="322.90966796875" height="226"><defs/><g><g><rect fill="#ffffff" stroke="none" x="815" y="442" width="301.90966796875" height="206" transform="matrix(1 0 0 1 -805 -432)"/></g><g><path fill="none" stroke="#000000" paint-order="fill stroke markers" d=" M 10 10 L 311.90966796875 10 L 311.90966796875 216 L 10 216 L 10 10 Z Z" stroke-miterlimit="10" stroke-dasharray=""/></g><g><path fill="none" stroke="#000000" paint-order="fill stroke markers" d=" M 10 35 L 312.90966796875 35" stroke-miterlimit="10" stroke-dasharray=""/></g><g><path fill="none" stroke="#000000" paint-order="fill stroke markers" d=" M 10 163 L 312.90966796875 163" stroke-miterlimit="10" stroke-dasharray=""/></g><g><g><path fill="none" stroke="none"/><text fill="#000000" stroke="none" font-family="Arial" font-size="13px" font-style="normal" font-weight="bold" text-decoration="undefined" x="966.454833984375" y="455.5" text-anchor="middle" dominant-baseline="central" transform="matrix(1 0 0 1 -805 -432)">PhasesComponent</text></g></g><g><g><path fill="none" stroke="none"/><text fill="#000000" stroke="none" font-family="Arial" font-size="13px" font-style="normal" font-weight="normal" text-decoration="undefined" x="820" y="478.5" text-anchor="start" dominant-baseline="central" transform="matrix(1 0 0 1 -805 -432)">-activePhaseService: ActivePhaseService</text></g></g><g><g><path fill="none" stroke="none"/><text fill="#000000" stroke="none" font-family="Arial" font-size="13px" font-style="normal" font-weight="normal" text-decoration="undefined" x="820" y="493.5" text-anchor="start" dominant-baseline="central" transform="matrix(1 0 0 1 -805 -432)">+phases: Array&lt;QualityphaseModel&gt;</text></g></g><g><g><path fill="none" stroke="none"/><text fill="#000000" stroke="none" font-family="Arial" font-size="13px" font-style="normal" font-weight="normal" text-decoration="undefined" x="820" y="508.5" text-anchor="start" dominant-baseline="central" transform="matrix(1 0 0 1 -805 -432)">-snackBar: MatSnackBar</text></g></g><g><g><path fill="none" stroke="none"/><text fill="#000000" stroke="none" font-family="Arial" font-size="13px" font-style="normal" font-weight="normal" text-decoration="undefined" x="820" y="523.5" text-anchor="start" dominant-baseline="central" transform="matrix(1 0 0 1 -805 -432)">+qualityPhaseService: QualityPhaseService</text></g></g><g><g><path fill="none" stroke="none"/><text fill="#000000" stroke="none" font-family="Arial" font-size="13px" font-style="normal" font-weight="normal" text-decoration="undefined" x="820" y="538.5" text-anchor="start" dominant-baseline="central" transform="matrix(1 0 0 1 -805 -432)">+loading: boolean</text></g></g><g><g><path fill="none" stroke="none"/><text fill="#000000" stroke="none" font-family="Arial" font-size="13px" font-style="normal" font-weight="normal" text-decoration="undefined" x="820" y="553.5" text-anchor="start" dominant-baseline="central" transform="matrix(1 0 0 1 -805 -432)">-translateService: TranslateService</text></g></g><g><g><path fill="none" stroke="none"/><text fill="#000000" stroke="none" font-family="Arial" font-size="13px" font-style="normal" font-weight="normal" text-decoration="undefined" x="820" y="568.5" text-anchor="start" dominant-baseline="central" transform="matrix(1 0 0 1 -805 -432)">-authInfoService: AuthInformationsService</text></g></g><g><g><path fill="none" stroke="none"/><text fill="#000000" stroke="none" font-family="Arial" font-size="13px" font-style="normal" font-weight="normal" text-decoration="undefined" x="820" y="583.5" text-anchor="start" dominant-baseline="central" transform="matrix(1 0 0 1 -805 -432)">-logoutService: LogoutService</text></g></g><g><g><path fill="none" stroke="none"/><text fill="#000000" stroke="none" font-family="Arial" font-size="13px" font-style="normal" font-weight="normal" text-decoration="undefined" x="820" y="606.5" text-anchor="start" dominant-baseline="central" transform="matrix(1 0 0 1 -805 -432)">+setActivePhase(phase: QualityphaseModel)</text></g></g><g><g><path fill="none" stroke="none"/><text fill="#000000" stroke="none" font-family="Arial" font-size="13px" font-style="normal" font-weight="normal" text-decoration="undefined" x="820" y="621.5" text-anchor="start" dominant-baseline="central" transform="matrix(1 0 0 1 -805 -432)">-openSnackBar(message: string, type: string): void</text></g></g><g><g><path fill="none" stroke="none"/><text fill="#000000" stroke="none" font-family="Arial" font-size="13px" font-style="normal" font-weight="normal" text-decoration="undefined" x="820" y="636.5" text-anchor="start" dominant-baseline="central" transform="matrix(1 0 0 1 -805 -432)">+select(id: string): void</text></g></g></g></svg>