<svg version="1.1" xmlns="http://www.w3.org/2000/svg" xmlns:xlink="http://www.w3.org/1999/xlink" width="217.443359375" height="138"><defs/><g><g><rect fill="#ffffff" stroke="none" x="964" y="774" width="196.443359375" height="118" transform="matrix(1 0 0 1 -954 -764)"/></g><g><path fill="none" stroke="#000000" paint-order="fill stroke markers" d=" M 10 10 L 206.443359375 10 L 206.443359375 128 L 10 128 L 10 10 Z Z" stroke-miterlimit="10" stroke-dasharray=""/></g><g><path fill="none" stroke="#000000" paint-order="fill stroke markers" d=" M 10 35 L 207.443359375 35" stroke-miterlimit="10" stroke-dasharray=""/></g><g><path fill="none" stroke="#000000" paint-order="fill stroke markers" d=" M 10 118 L 207.443359375 118" stroke-miterlimit="10" stroke-dasharray=""/></g><g><g><path fill="none" stroke="none"/><text fill="#000000" stroke="none" font-family="Arial" font-size="13px" font-style="normal" font-weight="bold" text-decoration="undefined" x="1062.7216796875" y="787.5" text-anchor="middle" dominant-baseline="central" transform="matrix(1 0 0 1 -954 -764)">SplashScreenComponent</text></g></g><g><g><path fill="none" stroke="none"/><text fill="#000000" stroke="none" font-family="Arial" font-size="13px" font-style="normal" font-weight="normal" text-decoration="undefined" x="969" y="810.5" text-anchor="start" dominant-baseline="central" transform="matrix(1 0 0 1 -954 -764)">+splashTransition: string</text></g></g><g><g><path fill="none" stroke="none"/><text fill="#000000" stroke="none" font-family="Arial" font-size="13px" font-style="normal" font-weight="normal" text-decoration="undefined" x="969" y="825.5" text-anchor="start" dominant-baseline="central" transform="matrix(1 0 0 1 -954 -764)">+opacityChange: number</text></g></g><g><g><path fill="none" stroke="none"/><text fill="#000000" stroke="none" font-family="Arial" font-size="13px" font-style="normal" font-weight="normal" text-decoration="undefined" x="969" y="840.5" text-anchor="start" dominant-baseline="central" transform="matrix(1 0 0 1 -954 -764)">+showSplash: boolean</text></g></g><g><g><path fill="none" stroke="none"/><text fill="#000000" stroke="none" font-family="Arial" font-size="13px" font-style="normal" font-weight="normal" text-decoration="undefined" x="969" y="855.5" text-anchor="start" dominant-baseline="central" transform="matrix(1 0 0 1 -954 -764)">+animationDuration: number</text></g></g><g><g><path fill="none" stroke="none"/><text fill="#000000" stroke="none" font-family="Arial" font-size="13px" font-style="normal" font-weight="normal" text-decoration="undefined" x="969" y="870.5" text-anchor="start" dominant-baseline="central" transform="matrix(1 0 0 1 -954 -764)">-loadingService: LoadingService</text></g></g></g></svg>