<svg version="1.1" xmlns="http://www.w3.org/2000/svg" xmlns:xlink="http://www.w3.org/1999/xlink" width="352.953125" height="316"><defs/><g><g><rect fill="#ffffff" stroke="none" x="800" y="397" width="331.953125" height="296" transform="matrix(1 0 0 1 -790 -387)"/></g><g><path fill="none" stroke="#000000" paint-order="fill stroke markers" d=" M 10 10 L 341.953125 10 L 341.953125 306 L 10 306 L 10 10 Z Z" stroke-miterlimit="10" stroke-dasharray=""/></g><g><path fill="none" stroke="#000000" paint-order="fill stroke markers" d=" M 10 35 L 342.953125 35" stroke-miterlimit="10" stroke-dasharray=""/></g><g><path fill="none" stroke="#000000" paint-order="fill stroke markers" d=" M 10 238 L 342.953125 238" stroke-miterlimit="10" stroke-dasharray=""/></g><g><g><path fill="none" stroke="none"/><text fill="#000000" stroke="none" font-family="Arial" font-size="13px" font-style="normal" font-weight="bold" text-decoration="undefined" x="966.4765625" y="410.5" text-anchor="middle" dominant-baseline="central" transform="matrix(1 0 0 1 -790 -387)">ToolbarComponent</text></g></g><g><g><path fill="none" stroke="none"/><text fill="#000000" stroke="none" font-family="Arial" font-size="13px" font-style="normal" font-weight="normal" text-decoration="undefined" x="805" y="433.5" text-anchor="start" dominant-baseline="central" transform="matrix(1 0 0 1 -790 -387)">+today: Date</text></g></g><g><g><path fill="none" stroke="none"/><text fill="#000000" stroke="none" font-family="Arial" font-size="13px" font-style="normal" font-weight="normal" text-decoration="undefined" x="805" y="448.5" text-anchor="start" dominant-baseline="central" transform="matrix(1 0 0 1 -790 -387)">+user: string</text></g></g><g><g><path fill="none" stroke="none"/><text fill="#000000" stroke="none" font-family="Arial" font-size="13px" font-style="normal" font-weight="normal" text-decoration="undefined" x="805" y="463.5" text-anchor="start" dominant-baseline="central" transform="matrix(1 0 0 1 -790 -387)">+languages: Array&lt;string&gt;</text></g></g><g><g><path fill="none" stroke="none"/><text fill="#000000" stroke="none" font-family="Arial" font-size="13px" font-style="normal" font-weight="normal" text-decoration="undefined" x="805" y="478.5" text-anchor="start" dominant-baseline="central" transform="matrix(1 0 0 1 -790 -387)">+activeLanguage: string</text></g></g><g><g><path fill="none" stroke="none"/><text fill="#000000" stroke="none" font-family="Arial" font-size="13px" font-style="normal" font-weight="normal" text-decoration="undefined" x="805" y="493.5" text-anchor="start" dominant-baseline="central" transform="matrix(1 0 0 1 -790 -387)">+isDark: boolean</text></g></g><g><g><path fill="none" stroke="none"/><text fill="#000000" stroke="none" font-family="Arial" font-size="13px" font-style="normal" font-weight="normal" text-decoration="undefined" x="805" y="508.5" text-anchor="start" dominant-baseline="central" transform="matrix(1 0 0 1 -790 -387)">+strictLang: Array&lt;string&gt;</text></g></g><g><g><path fill="none" stroke="none"/><text fill="#000000" stroke="none" font-family="Arial" font-size="13px" font-style="normal" font-weight="normal" text-decoration="undefined" x="805" y="523.5" text-anchor="start" dominant-baseline="central" transform="matrix(1 0 0 1 -790 -387)">-queryListener: function</text></g></g><g><g><path fill="none" stroke="none"/><text fill="#000000" stroke="none" font-family="Arial" font-size="13px" font-style="normal" font-weight="normal" text-decoration="undefined" x="805" y="538.5" text-anchor="start" dominant-baseline="central" transform="matrix(1 0 0 1 -790 -387)">+mobileQuery: MediaQueryList</text></g></g><g><g><path fill="none" stroke="none"/><text fill="#000000" stroke="none" font-family="Arial" font-size="13px" font-style="normal" font-weight="normal" text-decoration="undefined" x="805" y="553.5" text-anchor="start" dominant-baseline="central" transform="matrix(1 0 0 1 -790 -387)">-dialog: MatDialog</text></g></g><g><g><path fill="none" stroke="none"/><text fill="#000000" stroke="none" font-family="Arial" font-size="13px" font-style="normal" font-weight="normal" text-decoration="undefined" x="805" y="568.5" text-anchor="start" dominant-baseline="central" transform="matrix(1 0 0 1 -790 -387)">-languageService: LanguageService</text></g></g><g><g><path fill="none" stroke="none"/><text fill="#000000" stroke="none" font-family="Arial" font-size="13px" font-style="normal" font-weight="normal" text-decoration="undefined" x="805" y="583.5" text-anchor="start" dominant-baseline="central" transform="matrix(1 0 0 1 -790 -387)">-themeService: ThemeService</text></g></g><g><g><path fill="none" stroke="none"/><text fill="#000000" stroke="none" font-family="Arial" font-size="13px" font-style="normal" font-weight="normal" text-decoration="undefined" x="805" y="598.5" text-anchor="start" dominant-baseline="central" transform="matrix(1 0 0 1 -790 -387)">-logoutService: LogoutService</text></g></g><g><g><path fill="none" stroke="none"/><text fill="#000000" stroke="none" font-family="Arial" font-size="13px" font-style="normal" font-weight="normal" text-decoration="undefined" x="805" y="613.5" text-anchor="start" dominant-baseline="central" transform="matrix(1 0 0 1 -790 -387)">-authInfoService: AuthInformationsService</text></g></g><g><g><path fill="none" stroke="none"/><text fill="#000000" stroke="none" font-family="Arial" font-size="13px" font-style="normal" font-weight="normal" text-decoration="undefined" x="805" y="636.5" text-anchor="start" dominant-baseline="central" transform="matrix(1 0 0 1 -790 -387)">+toggleTheme({checked}: MatSlideToggleChange): void</text></g></g><g><g><path fill="none" stroke="none"/><text fill="#000000" stroke="none" font-family="Arial" font-size="13px" font-style="normal" font-weight="normal" text-decoration="undefined" x="805" y="651.5" text-anchor="start" dominant-baseline="central" transform="matrix(1 0 0 1 -790 -387)">+changeActiveLanguage(language: string): void</text></g></g><g><g><path fill="none" stroke="none"/><text fill="#000000" stroke="none" font-family="Arial" font-size="13px" font-style="normal" font-weight="normal" text-decoration="undefined" x="805" y="666.5" text-anchor="start" dominant-baseline="central" transform="matrix(1 0 0 1 -790 -387)">+openLogoutDialog(): void</text></g></g><g><g><path fill="none" stroke="none"/><text fill="#000000" stroke="none" font-family="Arial" font-size="13px" font-style="normal" font-weight="normal" text-decoration="undefined" x="805" y="681.5" text-anchor="start" dominant-baseline="central" transform="matrix(1 0 0 1 -790 -387)">+openLogoutUserDialog(): void</text></g></g></g></svg>