<svg version="1.1" xmlns="http://www.w3.org/2000/svg" xmlns:xlink="http://www.w3.org/1999/xlink" width="797" height="420"><defs/><g><g><rect fill="#ffffff" stroke="none" x="408" y="304" width="592" height="400" transform="matrix(1 0 0 1 -214 -294)"/></g><g><path fill="none" stroke="#000000" paint-order="fill stroke markers" d=" M 194 10 L 786 10 L 786 410 L 194 410 L 194 10 Z Z" stroke-miterlimit="10" stroke-dasharray=""/></g><g><g><path fill="none" stroke="none"/><text fill="#000000" stroke="none" font-family="Arial" font-size="13px" font-style="normal" font-weight="bold" text-decoration="undefined" x="704.5" y="317.5" text-anchor="middle" dominant-baseline="central" transform="matrix(1 0 0 1 -214 -294)">Autenticazione - Errori</text></g></g><g><path fill="#ffffff" stroke="none" paint-order="stroke fill markers" d=" M 76.57772460937503 155.85000000000002 C 76.57772460937503 150.96227952000004 80.53552697737501 147 85.417724609375 147 C 90.29992224137499 147 94.25772460937497 150.96227952000004 94.25772460937497 155.85000000000002 C 94.25772460937497 160.73772048 90.29992224137499 164.7 85.417724609375 164.7 C 80.53552697737501 164.7 76.57772460937503 160.73772048 76.57772460937503 155.85000000000002 Z"/></g><g><path fill="none" stroke="#000000" paint-order="fill stroke markers" d=" M 76.57772460937503 155.85000000000002 C 76.57772460937503 150.96227952000004 80.53552697737501 147 85.417724609375 147 C 90.29992224137499 147 94.25772460937497 150.96227952000004 94.25772460937497 155.85000000000002 C 94.25772460937497 160.73772048 90.29992224137499 164.7 85.417724609375 164.7 C 80.53552697737501 164.7 76.57772460937503 160.73772048 76.57772460937503 155.85000000000002 Z" stroke-miterlimit="10" stroke-dasharray=""/></g><g><path fill="none" stroke="#000000" paint-order="fill stroke markers" d=" M 85.417724609375 164.7 L 85.417724609375 182.3" stroke-miterlimit="10" stroke-dasharray=""/></g><g><path fill="none" stroke="#000000" paint-order="fill stroke markers" d=" M 76.05772460937499 171.3 L 94.77772460937501 171.3" stroke-miterlimit="10" stroke-dasharray=""/></g><g><path fill="none" stroke="#000000" paint-order="fill stroke markers" d=" M 85.417724609375 182.3 L 72.417724609375 200" stroke-miterlimit="10" stroke-dasharray=""/></g><g><path fill="none" stroke="#000000" paint-order="fill stroke markers" d=" M 85.417724609375 182.3 L 98.417724609375 200" stroke-miterlimit="10" stroke-dasharray=""/></g><g><g><path fill="none" stroke="none"/><text fill="#000000" stroke="none" font-family="Arial" font-size="13px" font-style="normal" font-weight="bold" text-decoration="undefined" x="299.917724609375" y="508.5" text-anchor="middle" dominant-baseline="central" transform="matrix(1 0 0 1 -214 -294)">Utente non autenticato</text></g></g><g><path fill="#ffffff" stroke="none" paint-order="stroke fill markers" d=" M 250 295 C 250 270.14718400000004 292.9806592 250 346 250 C 399.0193408 250 442 270.14718400000004 442 295 C 442 319.85281599999996 399.0193408 340 346 340 C 292.9806592 340 250 319.85281599999996 250 295 Z"/></g><g><path fill="none" stroke="#000000" paint-order="fill stroke markers" d=" M 250 295 C 250 270.14718400000004 292.9806592 250 346 250 C 399.0193408 250 442 270.14718400000004 442 295 C 442 319.85281599999996 399.0193408 340 346 340 C 292.9806592 340 250 319.85281599999996 250 295 Z" stroke-miterlimit="10" stroke-dasharray=""/></g><g><g><path fill="none" stroke="none"/><text fill="#000000" stroke="none" font-family="Arial" font-size="13px" font-style="normal" font-weight="bold" text-decoration="undefined" x="560" y="570.5" text-anchor="middle" dominant-baseline="central" transform="matrix(1 0 0 1 -214 -294)">UCE-1.1</text><text fill="#000000" stroke="none" font-family="Arial" font-size="13px" font-style="normal" font-weight="bold" text-decoration="undefined" x="560" y="583.5" text-anchor="middle" dominant-baseline="central" transform="matrix(1 0 0 1 -214 -294)">Visualizzazione</text><text fill="#000000" stroke="none" font-family="Arial" font-size="13px" font-style="normal" font-weight="bold" text-decoration="undefined" x="560" y="596.5" text-anchor="middle" dominant-baseline="central" transform="matrix(1 0 0 1 -214 -294)">errore login</text><text fill="#000000" stroke="none" font-family="Arial" font-size="13px" font-style="normal" font-weight="bold" text-decoration="undefined" x="560" y="609.5" text-anchor="middle" dominant-baseline="central" transform="matrix(1 0 0 1 -214 -294)">standard non valido</text></g></g><g><path fill="#ffffff" stroke="none" paint-order="stroke fill markers" d=" M 546 295 C 546 270.14718400000004 585.3989376 250 634 250 C 682.6010624 250 722 270.14718400000004 722 295 C 722 319.85281599999996 682.6010624 340 634 340 C 585.3989376 340 546 319.85281599999996 546 295 Z"/></g><g><path fill="none" stroke="#000000" paint-order="fill stroke markers" d=" M 546 295 C 546 270.14718400000004 585.3989376 250 634 250 C 682.6010624 250 722 270.14718400000004 722 295 C 722 319.85281599999996 682.6010624 340 634 340 C 585.3989376 340 546 319.85281599999996 546 295 Z" stroke-miterlimit="10" stroke-dasharray=""/></g><g><g><path fill="none" stroke="none"/><text fill="#000000" stroke="none" font-family="Arial" font-size="13px" font-style="normal" font-weight="bold" text-decoration="undefined" x="848" y="570.5" text-anchor="middle" dominant-baseline="central" transform="matrix(1 0 0 1 -214 -294)">UCE-1.2</text><text fill="#000000" stroke="none" font-family="Arial" font-size="13px" font-style="normal" font-weight="bold" text-decoration="undefined" x="848" y="583.5" text-anchor="middle" dominant-baseline="central" transform="matrix(1 0 0 1 -214 -294)">Visualizzazione</text><text fill="#000000" stroke="none" font-family="Arial" font-size="13px" font-style="normal" font-weight="bold" text-decoration="undefined" x="848" y="596.5" text-anchor="middle" dominant-baseline="central" transform="matrix(1 0 0 1 -214 -294)">errore pin non</text><text fill="#000000" stroke="none" font-family="Arial" font-size="13px" font-style="normal" font-weight="bold" text-decoration="undefined" x="848" y="609.5" text-anchor="middle" dominant-baseline="central" transform="matrix(1 0 0 1 -214 -294)">valido</text></g></g><g><path fill="#ffffff" stroke="none" paint-order="stroke fill markers" d=" M 362 140.5 C 362 125.86445279999998 417.5166848 114 486 114 C 554.4833152 114 610 125.86445279999998 610 140.5 C 610 155.13554720000002 554.4833152 167 486 167 C 417.5166848 167 362 155.13554720000002 362 140.5 Z"/></g><g><path fill="none" stroke="#000000" paint-order="fill stroke markers" d=" M 362 140.5 C 362 125.86445279999998 417.5166848 114 486 114 C 554.4833152 114 610 125.86445279999998 610 140.5 C 610 155.13554720000002 554.4833152 167 486 167 C 417.5166848 167 362 155.13554720000002 362 140.5 Z" stroke-miterlimit="10" stroke-dasharray=""/></g><g><g><path fill="none" stroke="none"/><text fill="#000000" stroke="none" font-family="Arial" font-size="13px" font-style="normal" font-weight="bold" text-decoration="undefined" x="700" y="429" text-anchor="middle" dominant-baseline="central" transform="matrix(1 0 0 1 -214 -294)">UCE-1 Visualizzazione</text><text fill="#000000" stroke="none" font-family="Arial" font-size="13px" font-style="normal" font-weight="bold" text-decoration="undefined" x="700" y="442" text-anchor="middle" dominant-baseline="central" transform="matrix(1 0 0 1 -214 -294)">errore login non valido</text></g></g><g><path fill="none" stroke="#000000" paint-order="fill stroke markers" d=" M 388 249 L 461 168" stroke-miterlimit="10" stroke-dasharray=""/></g><g><path fill="#FFFFFF" stroke="none" paint-order="stroke fill markers" d=" M 453.6467418777013 188.73474366822137 L 461 168 L 441.13878346394335 177.46213917187168"/></g><g><path fill="none" stroke="#000000" paint-order="fill stroke markers" d=" M 453.6467418777013 188.73474366822137 L 461 168 L 441.13878346394335 177.46213917187168 L 453.6467418777013 188.73474366822137" stroke-miterlimit="10" stroke-dasharray=""/></g><g><path fill="none" stroke="#000000" paint-order="fill stroke markers" d=" M 590 249 L 513 168" stroke-miterlimit="10" stroke-dasharray=""/></g><g><path fill="#FFFFFF" stroke="none" paint-order="stroke fill markers" d=" M 533.105767484066 176.93073982807016 L 513 168 L 520.9019378355018 188.53191122238417"/></g><g><path fill="none" stroke="#000000" paint-order="fill stroke markers" d=" M 533.105767484066 176.93073982807016 L 513 168 L 520.9019378355018 188.53191122238417 L 533.105767484066 176.93073982807016" stroke-miterlimit="10" stroke-dasharray=""/></g><g><path fill="none" stroke="#000000" paint-order="fill stroke markers" d=" M 162 177 L 361 154" stroke-miterlimit="10" stroke-dasharray=""/></g></g></svg>