<svg version="1.1" xmlns="http://www.w3.org/2000/svg" xmlns:xlink="http://www.w3.org/1999/xlink" width="525" height="276"><defs/><g><g><rect fill="#ffffff" stroke="none" x="360" y="208" width="344" height="256" transform="matrix(1 0 0 1 -190 -198)"/></g><g><path fill="none" stroke="#000000" paint-order="fill stroke markers" d=" M 170 10 L 514 10 L 514 266 L 170 266 L 170 10 Z Z" stroke-miterlimit="10" stroke-dasharray=""/></g><g><g><path fill="none" stroke="none"/><text fill="#000000" stroke="none" font-family="Arial" font-size="13px" font-style="normal" font-weight="bold" text-decoration="undefined" x="532.5" y="221.5" text-anchor="middle" dominant-baseline="central" transform="matrix(1 0 0 1 -190 -198)">UCF-3 Filtraggio fasi</text></g></g><g><path fill="#ffffff" stroke="none" paint-order="stroke fill markers" d=" M 62.860439453125 139.85000000000002 C 62.860439453125 134.96227952000004 66.81824182112501 131 71.700439453125 131 C 76.58263708512499 131 80.54043945312497 134.96227952000004 80.54043945312497 139.85000000000002 C 80.54043945312497 144.73772048 76.58263708512499 148.7 71.700439453125 148.7 C 66.81824182112501 148.7 62.860439453125 144.73772048 62.860439453125 139.85000000000002 Z"/></g><g><path fill="none" stroke="#000000" paint-order="fill stroke markers" d=" M 62.860439453125 139.85000000000002 C 62.860439453125 134.96227952000004 66.81824182112501 131 71.700439453125 131 C 76.58263708512499 131 80.54043945312497 134.96227952000004 80.54043945312497 139.85000000000002 C 80.54043945312497 144.73772048 76.58263708512499 148.7 71.700439453125 148.7 C 66.81824182112501 148.7 62.860439453125 144.73772048 62.860439453125 139.85000000000002 Z" stroke-miterlimit="10" stroke-dasharray=""/></g><g><path fill="none" stroke="#000000" paint-order="fill stroke markers" d=" M 71.700439453125 148.7 L 71.700439453125 166.3" stroke-miterlimit="10" stroke-dasharray=""/></g><g><path fill="none" stroke="#000000" paint-order="fill stroke markers" d=" M 62.340439453124986 155.3 L 81.06043945312501 155.3" stroke-miterlimit="10" stroke-dasharray=""/></g><g><path fill="none" stroke="#000000" paint-order="fill stroke markers" d=" M 71.700439453125 166.3 L 58.700439453125 184" stroke-miterlimit="10" stroke-dasharray=""/></g><g><path fill="none" stroke="#000000" paint-order="fill stroke markers" d=" M 71.700439453125 166.3 L 84.700439453125 184" stroke-miterlimit="10" stroke-dasharray=""/></g><g><g><path fill="none" stroke="none"/><text fill="#000000" stroke="none" font-family="Arial" font-size="13px" font-style="normal" font-weight="bold" text-decoration="undefined" x="262.200439453125" y="396.5" text-anchor="middle" dominant-baseline="central" transform="matrix(1 0 0 1 -190 -198)">Utente autenticato</text></g></g><g><path fill="#ffffff" stroke="none" paint-order="stroke fill markers" d=" M 258 102 C 258 82.1177472 297.3989376 66 346 66 C 394.60106240000005 66 434 82.1177472 434 102 C 434 121.8822528 394.60106240000005 138 346 138 C 297.3989376 138 258 121.8822528 258 102 Z"/></g><g><path fill="none" stroke="#000000" paint-order="fill stroke markers" d=" M 258 102 C 258 82.1177472 297.3989376 66 346 66 C 394.60106240000005 66 434 82.1177472 434 102 C 434 121.8822528 394.60106240000005 138 346 138 C 297.3989376 138 258 121.8822528 258 102 Z" stroke-miterlimit="10" stroke-dasharray=""/></g><g><g><path fill="none" stroke="none"/><text fill="#000000" stroke="none" font-family="Arial" font-size="13px" font-style="normal" font-weight="bold" text-decoration="undefined" x="536" y="288" text-anchor="middle" dominant-baseline="central" transform="matrix(1 0 0 1 -190 -198)">UCF-3.1 Filtraggio</text><text fill="#000000" stroke="none" font-family="Arial" font-size="13px" font-style="normal" font-weight="bold" text-decoration="undefined" x="536" y="301" text-anchor="middle" dominant-baseline="central" transform="matrix(1 0 0 1 -190 -198)">per numero</text><text fill="#000000" stroke="none" font-family="Arial" font-size="13px" font-style="normal" font-weight="bold" text-decoration="undefined" x="536" y="314" text-anchor="middle" dominant-baseline="central" transform="matrix(1 0 0 1 -190 -198)">ordine</text></g></g><g><path fill="none" stroke="#000000" paint-order="fill stroke markers" d=" M 134 154 L 257 124" stroke-miterlimit="10" stroke-dasharray=""/></g><g><path fill="#ffffff" stroke="none" paint-order="stroke fill markers" d=" M 258 204.5 C 258 189.86445279999998 297.3989376 178 346 178 C 394.60106240000005 178 434 189.86445279999998 434 204.5 C 434 219.13554720000002 394.60106240000005 231 346 231 C 297.3989376 231 258 219.13554720000002 258 204.5 Z"/></g><g><path fill="none" stroke="#000000" paint-order="fill stroke markers" d=" M 258 204.5 C 258 189.86445279999998 297.3989376 178 346 178 C 394.60106240000005 178 434 189.86445279999998 434 204.5 C 434 219.13554720000002 394.60106240000005 231 346 231 C 297.3989376 231 258 219.13554720000002 258 204.5 Z" stroke-miterlimit="10" stroke-dasharray=""/></g><g><g><path fill="none" stroke="none"/><text fill="#000000" stroke="none" font-family="Arial" font-size="13px" font-style="normal" font-weight="bold" text-decoration="undefined" x="536" y="397" text-anchor="middle" dominant-baseline="central" transform="matrix(1 0 0 1 -190 -198)">UCF-3.2 Filtraggio</text><text fill="#000000" stroke="none" font-family="Arial" font-size="13px" font-style="normal" font-weight="bold" text-decoration="undefined" x="536" y="410" text-anchor="middle" dominant-baseline="central" transform="matrix(1 0 0 1 -190 -198)">per nome cliente</text></g></g><g><path fill="none" stroke="#000000" paint-order="fill stroke markers" d=" M 134 178 L 257 193" stroke-miterlimit="10" stroke-dasharray=""/></g></g></svg>