<svg version="1.1" xmlns="http://www.w3.org/2000/svg" xmlns:xlink="http://www.w3.org/1999/xlink" width="453" height="180"><defs/><g><g><rect fill="#ffffff" stroke="none" x="368" y="208" width="264" height="160" transform="matrix(1 0 0 1 -190 -198)"/></g><g><path fill="none" stroke="#000000" paint-order="fill stroke markers" d=" M 178 10 L 442 10 L 442 170 L 178 170 L 178 10 Z Z" stroke-miterlimit="10" stroke-dasharray=""/></g><g><g><path fill="none" stroke="none"/><text fill="#000000" stroke="none" font-family="Arial" font-size="13px" font-style="normal" font-weight="bold" text-decoration="undefined" x="500.5" y="221.5" text-anchor="middle" dominant-baseline="central" transform="matrix(1 0 0 1 -190 -198)">Filtraggio fasi</text></g></g><g><path fill="#ffffff" stroke="none" paint-order="stroke fill markers" d=" M 62.860439453125 75.85000000000002 C 62.860439453125 70.96227952000004 66.81824182112501 67 71.700439453125 67 C 76.58263708512499 67 80.54043945312497 70.96227952000004 80.54043945312497 75.85000000000002 C 80.54043945312497 80.73772048000001 76.58263708512499 84.69999999999999 71.700439453125 84.69999999999999 C 66.81824182112501 84.69999999999999 62.860439453125 80.73772048000001 62.860439453125 75.85000000000002 Z"/></g><g><path fill="none" stroke="#000000" paint-order="fill stroke markers" d=" M 62.860439453125 75.85000000000002 C 62.860439453125 70.96227952000004 66.81824182112501 67 71.700439453125 67 C 76.58263708512499 67 80.54043945312497 70.96227952000004 80.54043945312497 75.85000000000002 C 80.54043945312497 80.73772048000001 76.58263708512499 84.69999999999999 71.700439453125 84.69999999999999 C 66.81824182112501 84.69999999999999 62.860439453125 80.73772048000001 62.860439453125 75.85000000000002 Z" stroke-miterlimit="10" stroke-dasharray=""/></g><g><path fill="none" stroke="#000000" paint-order="fill stroke markers" d=" M 71.700439453125 84.69999999999999 L 71.700439453125 102.30000000000001" stroke-miterlimit="10" stroke-dasharray=""/></g><g><path fill="none" stroke="#000000" paint-order="fill stroke markers" d=" M 62.340439453124986 91.30000000000001 L 81.06043945312501 91.30000000000001" stroke-miterlimit="10" stroke-dasharray=""/></g><g><path fill="none" stroke="#000000" paint-order="fill stroke markers" d=" M 71.700439453125 102.30000000000001 L 58.700439453125 120" stroke-miterlimit="10" stroke-dasharray=""/></g><g><path fill="none" stroke="#000000" paint-order="fill stroke markers" d=" M 71.700439453125 102.30000000000001 L 84.700439453125 120" stroke-miterlimit="10" stroke-dasharray=""/></g><g><g><path fill="none" stroke="none"/><text fill="#000000" stroke="none" font-family="Arial" font-size="13px" font-style="normal" font-weight="bold" text-decoration="undefined" x="262.200439453125" y="332.5" text-anchor="middle" dominant-baseline="central" transform="matrix(1 0 0 1 -190 -198)">Utente autenticato</text></g></g><g><path fill="#ffffff" stroke="none" paint-order="stroke fill markers" d=" M 218 102 C 218 82.1177472 261.2045168 66 314.5 66 C 367.79548320000004 66 411 82.1177472 411 102 C 411 121.8822528 367.79548320000004 138 314.5 138 C 261.2045168 138 218 121.8822528 218 102 Z"/></g><g><path fill="none" stroke="#000000" paint-order="fill stroke markers" d=" M 218 102 C 218 82.1177472 261.2045168 66 314.5 66 C 367.79548320000004 66 411 82.1177472 411 102 C 411 121.8822528 367.79548320000004 138 314.5 138 C 261.2045168 138 218 121.8822528 218 102 Z" stroke-miterlimit="10" stroke-dasharray=""/></g><g><g><path fill="none" stroke="none"/><text fill="#000000" stroke="none" font-family="Arial" font-size="13px" font-style="normal" font-weight="bold" text-decoration="undefined" x="504.5" y="301" text-anchor="middle" dominant-baseline="central" transform="matrix(1 0 0 1 -190 -198)">UCF-3 Filtraggio fasi</text></g></g><g><path fill="none" stroke="#000000" paint-order="fill stroke markers" d=" M 134 105 L 217 104" stroke-miterlimit="10" stroke-dasharray=""/></g></g></svg>