<svg version="1.1" xmlns="http://www.w3.org/2000/svg" xmlns:xlink="http://www.w3.org/1999/xlink" width="541" height="220"><defs/><g><g><rect fill="#ffffff" stroke="none" x="368" y="208" width="352" height="200" transform="matrix(1 0 0 1 -190 -198)"/></g><g><path fill="none" stroke="#000000" paint-order="fill stroke markers" d=" M 178 10 L 530 10 L 530 210 L 178 210 L 178 10 Z Z" stroke-miterlimit="10" stroke-dasharray=""/></g><g><g><path fill="none" stroke="none"/><text fill="#000000" stroke="none" font-family="Arial" font-size="13px" font-style="normal" font-weight="bold" text-decoration="undefined" x="544.5" y="221.5" text-anchor="middle" dominant-baseline="central" transform="matrix(1 0 0 1 -190 -198)">Filtraggio fasi</text></g></g><g><path fill="#ffffff" stroke="none" paint-order="stroke fill markers" d=" M 62.860439453125 83.85000000000002 C 62.860439453125 78.96227952000004 66.81824182112501 75 71.700439453125 75 C 76.58263708512499 75 80.54043945312497 78.96227952000004 80.54043945312497 83.85000000000002 C 80.54043945312497 88.73772048000001 76.58263708512499 92.69999999999999 71.700439453125 92.69999999999999 C 66.81824182112501 92.69999999999999 62.860439453125 88.73772048000001 62.860439453125 83.85000000000002 Z"/></g><g><path fill="none" stroke="#000000" paint-order="fill stroke markers" d=" M 62.860439453125 83.85000000000002 C 62.860439453125 78.96227952000004 66.81824182112501 75 71.700439453125 75 C 76.58263708512499 75 80.54043945312497 78.96227952000004 80.54043945312497 83.85000000000002 C 80.54043945312497 88.73772048000001 76.58263708512499 92.69999999999999 71.700439453125 92.69999999999999 C 66.81824182112501 92.69999999999999 62.860439453125 88.73772048000001 62.860439453125 83.85000000000002 Z" stroke-miterlimit="10" stroke-dasharray=""/></g><g><path fill="none" stroke="#000000" paint-order="fill stroke markers" d=" M 71.700439453125 92.69999999999999 L 71.700439453125 110.30000000000001" stroke-miterlimit="10" stroke-dasharray=""/></g><g><path fill="none" stroke="#000000" paint-order="fill stroke markers" d=" M 62.340439453124986 99.30000000000001 L 81.06043945312501 99.30000000000001" stroke-miterlimit="10" stroke-dasharray=""/></g><g><path fill="none" stroke="#000000" paint-order="fill stroke markers" d=" M 71.700439453125 110.30000000000001 L 58.700439453125 128" stroke-miterlimit="10" stroke-dasharray=""/></g><g><path fill="none" stroke="#000000" paint-order="fill stroke markers" d=" M 71.700439453125 110.30000000000001 L 84.700439453125 128" stroke-miterlimit="10" stroke-dasharray=""/></g><g><g><path fill="none" stroke="none"/><text fill="#000000" stroke="none" font-family="Arial" font-size="13px" font-style="normal" font-weight="bold" text-decoration="undefined" x="262.200439453125" y="340.5" text-anchor="middle" dominant-baseline="central" transform="matrix(1 0 0 1 -190 -198)">Utente autenticato</text></g></g><g><path fill="#ffffff" stroke="none" paint-order="stroke fill markers" d=" M 226 110 C 226 90.1177472 279.725824 74 346 74 C 412.274176 74 466 90.1177472 466 110 C 466 129.8822528 412.274176 146 346 146 C 279.725824 146 226 129.8822528 226 110 Z"/></g><g><path fill="none" stroke="#000000" paint-order="fill stroke markers" d=" M 226 110 C 226 90.1177472 279.725824 74 346 74 C 412.274176 74 466 90.1177472 466 110 C 466 129.8822528 412.274176 146 346 146 C 279.725824 146 226 129.8822528 226 110 Z" stroke-miterlimit="10" stroke-dasharray=""/></g><g><g><path fill="none" stroke="none"/><text fill="#000000" stroke="none" font-family="Arial" font-size="13px" font-style="normal" font-weight="bold" text-decoration="undefined" x="536" y="309" text-anchor="middle" dominant-baseline="central" transform="matrix(1 0 0 1 -190 -198)">UCF-3 Filtraggio delle fasi</text></g></g><g><path fill="none" stroke="#000000" paint-order="fill stroke markers" d=" M 134 113 L 225 112" stroke-miterlimit="10" stroke-dasharray=""/></g></g></svg>