<svg version="1.1" xmlns="http://www.w3.org/2000/svg" xmlns:xlink="http://www.w3.org/1999/xlink" width="557" height="324"><defs/><g><g><rect fill="#ffffff" stroke="none" x="360" y="208" width="376" height="304" transform="matrix(1 0 0 1 -190 -198)"/></g><g><path fill="none" stroke="#000000" paint-order="fill stroke markers" d=" M 170 10 L 546 10 L 546 314 L 170 314 L 170 10 Z Z" stroke-miterlimit="10" stroke-dasharray=""/></g><g><g><path fill="none" stroke="none"/><text fill="#000000" stroke="none" font-family="Arial" font-size="13px" font-style="normal" font-weight="bold" text-decoration="undefined" x="548.5" y="221.5" text-anchor="middle" dominant-baseline="central" transform="matrix(1 0 0 1 -190 -198)">Filtraggio fasi</text></g></g><g><path fill="#ffffff" stroke="none" paint-order="stroke fill markers" d=" M 62.860439453125 75.85000000000002 C 62.860439453125 70.96227952000004 66.81824182112501 67 71.700439453125 67 C 76.58263708512499 67 80.54043945312497 70.96227952000004 80.54043945312497 75.85000000000002 C 80.54043945312497 80.73772048000001 76.58263708512499 84.69999999999999 71.700439453125 84.69999999999999 C 66.81824182112501 84.69999999999999 62.860439453125 80.73772048000001 62.860439453125 75.85000000000002 Z"/></g><g><path fill="none" stroke="#000000" paint-order="fill stroke markers" d=" M 62.860439453125 75.85000000000002 C 62.860439453125 70.96227952000004 66.81824182112501 67 71.700439453125 67 C 76.58263708512499 67 80.54043945312497 70.96227952000004 80.54043945312497 75.85000000000002 C 80.54043945312497 80.73772048000001 76.58263708512499 84.69999999999999 71.700439453125 84.69999999999999 C 66.81824182112501 84.69999999999999 62.860439453125 80.73772048000001 62.860439453125 75.85000000000002 Z" stroke-miterlimit="10" stroke-dasharray=""/></g><g><path fill="none" stroke="#000000" paint-order="fill stroke markers" d=" M 71.700439453125 84.69999999999999 L 71.700439453125 102.30000000000001" stroke-miterlimit="10" stroke-dasharray=""/></g><g><path fill="none" stroke="#000000" paint-order="fill stroke markers" d=" M 62.340439453124986 91.30000000000001 L 81.06043945312501 91.30000000000001" stroke-miterlimit="10" stroke-dasharray=""/></g><g><path fill="none" stroke="#000000" paint-order="fill stroke markers" d=" M 71.700439453125 102.30000000000001 L 58.700439453125 120" stroke-miterlimit="10" stroke-dasharray=""/></g><g><path fill="none" stroke="#000000" paint-order="fill stroke markers" d=" M 71.700439453125 102.30000000000001 L 84.700439453125 120" stroke-miterlimit="10" stroke-dasharray=""/></g><g><g><path fill="none" stroke="none"/><text fill="#000000" stroke="none" font-family="Arial" font-size="13px" font-style="normal" font-weight="bold" text-decoration="undefined" x="262.200439453125" y="332.5" text-anchor="middle" dominant-baseline="central" transform="matrix(1 0 0 1 -190 -198)">Utente autenticato</text></g></g><g><path fill="#ffffff" stroke="none" paint-order="stroke fill markers" d=" M 274 94 C 274 74.1177472 317.2045168 58 370.5 58 C 423.79548320000004 58 467 74.1177472 467 94 C 467 113.8822528 423.79548320000004 130 370.5 130 C 317.2045168 130 274 113.8822528 274 94 Z"/></g><g><path fill="none" stroke="#000000" paint-order="fill stroke markers" d=" M 274 94 C 274 74.1177472 317.2045168 58 370.5 58 C 423.79548320000004 58 467 74.1177472 467 94 C 467 113.8822528 423.79548320000004 130 370.5 130 C 317.2045168 130 274 113.8822528 274 94 Z" stroke-miterlimit="10" stroke-dasharray=""/></g><g><g><path fill="none" stroke="none"/><text fill="#000000" stroke="none" font-family="Arial" font-size="13px" font-style="normal" font-weight="bold" text-decoration="undefined" x="560.5" y="293" text-anchor="middle" dominant-baseline="central" transform="matrix(1 0 0 1 -190 -198)">UCF-3 Filtraggio fasi</text></g></g><g><path fill="none" stroke="#000000" paint-order="fill stroke markers" d=" M 134 103 L 273 98" stroke-miterlimit="10" stroke-dasharray=""/></g><g><path fill="#ffffff" stroke="none" paint-order="stroke fill markers" d=" M 210 239 C 210 214.14718399999998 242.2354944 194 282 194 C 321.7645056 194 354 214.14718399999998 354 239 C 354 263.852816 321.7645056 284 282 284 C 242.2354944 284 210 263.852816 210 239 Z"/></g><g><path fill="none" stroke="#000000" paint-order="fill stroke markers" d=" M 210 239 C 210 214.14718399999998 242.2354944 194 282 194 C 321.7645056 194 354 214.14718399999998 354 239 C 354 263.852816 321.7645056 284 282 284 C 242.2354944 284 210 263.852816 210 239 Z" stroke-miterlimit="10" stroke-dasharray=""/></g><g><g><path fill="none" stroke="none"/><text fill="#000000" stroke="none" font-family="Arial" font-size="13px" font-style="normal" font-weight="bold" text-decoration="undefined" x="472" y="418.5" text-anchor="middle" dominant-baseline="central" transform="matrix(1 0 0 1 -190 -198)">UCF-3.1</text><text fill="#000000" stroke="none" font-family="Arial" font-size="13px" font-style="normal" font-weight="bold" text-decoration="undefined" x="472" y="431.5" text-anchor="middle" dominant-baseline="central" transform="matrix(1 0 0 1 -190 -198)">Filtraggio fasi</text><text fill="#000000" stroke="none" font-family="Arial" font-size="13px" font-style="normal" font-weight="bold" text-decoration="undefined" x="472" y="444.5" text-anchor="middle" dominant-baseline="central" transform="matrix(1 0 0 1 -190 -198)">per numero</text><text fill="#000000" stroke="none" font-family="Arial" font-size="13px" font-style="normal" font-weight="bold" text-decoration="undefined" x="472" y="457.5" text-anchor="middle" dominant-baseline="central" transform="matrix(1 0 0 1 -190 -198)">ordine</text></g></g><g><path fill="#ffffff" stroke="none" paint-order="stroke fill markers" d=" M 386 239 C 386 214.14718399999998 416.4446336 194 454 194 C 491.5553664 194 522 214.14718399999998 522 239 C 522 263.852816 491.5553664 284 454 284 C 416.4446336 284 386 263.852816 386 239 Z"/></g><g><path fill="none" stroke="#000000" paint-order="fill stroke markers" d=" M 386 239 C 386 214.14718399999998 416.4446336 194 454 194 C 491.5553664 194 522 214.14718399999998 522 239 C 522 263.852816 491.5553664 284 454 284 C 416.4446336 284 386 263.852816 386 239 Z" stroke-miterlimit="10" stroke-dasharray=""/></g><g><g><path fill="none" stroke="none"/><text fill="#000000" stroke="none" font-family="Arial" font-size="13px" font-style="normal" font-weight="bold" text-decoration="undefined" x="644" y="425" text-anchor="middle" dominant-baseline="central" transform="matrix(1 0 0 1 -190 -198)">UCF-3.2</text><text fill="#000000" stroke="none" font-family="Arial" font-size="13px" font-style="normal" font-weight="bold" text-decoration="undefined" x="644" y="438" text-anchor="middle" dominant-baseline="central" transform="matrix(1 0 0 1 -190 -198)">Filtraggio fasi</text><text fill="#000000" stroke="none" font-family="Arial" font-size="13px" font-style="normal" font-weight="bold" text-decoration="undefined" x="644" y="451" text-anchor="middle" dominant-baseline="central" transform="matrix(1 0 0 1 -190 -198)">per cliente</text></g></g><g><path fill="none" stroke="#000000" paint-order="fill stroke markers" d=" M 310 193 L 348 131" stroke-miterlimit="10" stroke-dasharray=""/></g><g><path fill="#FFFFFF" stroke="none" paint-order="stroke fill markers" d=" M 344.5568236463181 152.72888714585827 L 348 131 L 330.2006632030167 143.92995009996395"/></g><g><path fill="none" stroke="#000000" paint-order="fill stroke markers" d=" M 344.5568236463181 152.72888714585827 L 348 131 L 330.2006632030167 143.92995009996395 L 344.5568236463181 152.72888714585827" stroke-miterlimit="10" stroke-dasharray=""/></g><g><path fill="none" stroke="#000000" paint-order="fill stroke markers" d=" M 427 193 L 391 131" stroke-miterlimit="10" stroke-dasharray=""/></g><g><path fill="#FFFFFF" stroke="none" paint-order="stroke fill markers" d=" M 408.4867688472509 144.34964101700177 L 391 131 L 393.9253911434048 152.8046345224608"/></g><g><path fill="none" stroke="#000000" paint-order="fill stroke markers" d=" M 408.4867688472509 144.34964101700177 L 391 131 L 393.9253911434048 152.8046345224608 L 408.4867688472509 144.34964101700177" stroke-miterlimit="10" stroke-dasharray=""/></g></g></svg>