<svg version="1.1" xmlns="http://www.w3.org/2000/svg" xmlns:xlink="http://www.w3.org/1999/xlink" width="1801.7568359375" height="698"><defs/><g><g><rect fill="#ffffff" stroke="none" x="200" y="472" width="844.2470703125" height="221" transform="matrix(1 0 0 1 -190 -182)"/></g><g><path fill="none" stroke="#000000" paint-order="fill stroke markers" d=" M 10 290 L 854.2470703125 290 L 854.2470703125 511 L 10 511 L 10 290 Z Z" stroke-miterlimit="10" stroke-dasharray=""/></g><g><path fill="none" stroke="#000000" paint-order="fill stroke markers" d=" M 10 315 L 855.2470703125 315" stroke-miterlimit="10" stroke-dasharray=""/></g><g><path fill="none" stroke="#000000" paint-order="fill stroke markers" d=" M 10 383 L 855.2470703125 383" stroke-miterlimit="10" stroke-dasharray=""/></g><g><g><path fill="none" stroke="none"/><text fill="#000000" stroke="none" font-family="Arial" font-size="13px" font-style="normal" font-weight="bold" text-decoration="undefined" x="622.62353515625" y="485.5" text-anchor="middle" dominant-baseline="central" transform="matrix(1 0 0 1 -190 -182)">QualitySaveLogService</text></g></g><g><g><path fill="none" stroke="none"/><text fill="#000000" stroke="none" font-family="Arial" font-size="13px" font-style="normal" font-weight="normal" text-decoration="undefined" x="205" y="508.5" text-anchor="start" dominant-baseline="central" transform="matrix(1 0 0 1 -190 -182)">+AddPath: string {readOnly}</text><path fill="none" stroke="#000000" paint-order="fill stroke markers" d=" M 15 333 L 176.5224609375 333" stroke-miterlimit="10" stroke-dasharray=""/></g></g><g><g><path fill="none" stroke="none"/><text fill="#000000" stroke="none" font-family="Arial" font-size="13px" font-style="normal" font-weight="normal" text-decoration="undefined" x="205" y="523.5" text-anchor="start" dominant-baseline="central" transform="matrix(1 0 0 1 -190 -182)">+DeletePath: string {readOnly}</text><path fill="none" stroke="#000000" paint-order="fill stroke markers" d=" M 15 348 L 190.9697265625 348" stroke-miterlimit="10" stroke-dasharray=""/></g></g><g><g><path fill="none" stroke="none"/><text fill="#000000" stroke="none" font-family="Arial" font-size="13px" font-style="normal" font-weight="normal" text-decoration="undefined" x="205" y="538.5" text-anchor="start" dominant-baseline="central" transform="matrix(1 0 0 1 -190 -182)">+UpdatePath: string {readOnly}</text><path fill="none" stroke="#000000" paint-order="fill stroke markers" d=" M 15 363 L 195.3115234375 363" stroke-miterlimit="10" stroke-dasharray=""/></g></g><g><g><path fill="none" stroke="none"/><text fill="#000000" stroke="none" font-family="Arial" font-size="13px" font-style="normal" font-weight="normal" text-decoration="undefined" x="205" y="553.5" text-anchor="start" dominant-baseline="central" transform="matrix(1 0 0 1 -190 -182)">+Fetch_1Path: string {readOnly}</text><path fill="none" stroke="#000000" paint-order="fill stroke markers" d=" M 15 378 L 200.3642578125 378" stroke-miterlimit="10" stroke-dasharray=""/></g></g><g><g><path fill="none" stroke="none"/><text fill="#000000" stroke="none" font-family="Arial" font-size="13px" font-style="normal" font-weight="normal" text-decoration="undefined" x="205" y="576.5" text-anchor="start" dominant-baseline="central" transform="matrix(1 0 0 1 -190 -182)">+Add$Response(params: Add$Params, context?: HttpContext): Observable&lt;StrictHttpResponse&lt;QualitysavelogModel&gt;&gt;</text></g></g><g><g><path fill="none" stroke="none"/><text fill="#000000" stroke="none" font-family="Arial" font-size="13px" font-style="normal" font-weight="normal" text-decoration="undefined" x="205" y="591.5" text-anchor="start" dominant-baseline="central" transform="matrix(1 0 0 1 -190 -182)">+Add(params: Add$Params, context?: HttpContext): Observable&lt;QualitysavelogModel&gt;</text></g></g><g><g><path fill="none" stroke="none"/><text fill="#000000" stroke="none" font-family="Arial" font-size="13px" font-style="normal" font-weight="normal" text-decoration="undefined" x="205" y="606.5" text-anchor="start" dominant-baseline="central" transform="matrix(1 0 0 1 -190 -182)">+Delete$Response(params: Delete$Params, context?: HttpContext): Observable&lt;StrictHttpResponse&lt;QualitysavelogModel&gt;&gt;</text></g></g><g><g><path fill="none" stroke="none"/><text fill="#000000" stroke="none" font-family="Arial" font-size="13px" font-style="normal" font-weight="normal" text-decoration="undefined" x="205" y="621.5" text-anchor="start" dominant-baseline="central" transform="matrix(1 0 0 1 -190 -182)">+Delete(params: Delete$Params, context?: HttpContext): Observable&lt;QualitysavelogModel&gt;</text></g></g><g><g><path fill="none" stroke="none"/><text fill="#000000" stroke="none" font-family="Arial" font-size="13px" font-style="normal" font-weight="normal" text-decoration="undefined" x="205" y="636.5" text-anchor="start" dominant-baseline="central" transform="matrix(1 0 0 1 -190 -182)">+fetch_1$Response(params: Fetch_1$Params, context?: HttpContext): Observable&lt;StrictHttpResponse&lt;FetchResponseQualitysavelogModel&gt;&gt;</text></g></g><g><g><path fill="none" stroke="none"/><text fill="#000000" stroke="none" font-family="Arial" font-size="13px" font-style="normal" font-weight="normal" text-decoration="undefined" x="205" y="651.5" text-anchor="start" dominant-baseline="central" transform="matrix(1 0 0 1 -190 -182)">+fetch_1(params: Fetch_1$Params, context?: HttpContext): Observable&lt;FetchResponseQualitysavelogModel&gt;</text></g></g><g><g><path fill="none" stroke="none"/><text fill="#000000" stroke="none" font-family="Arial" font-size="13px" font-style="normal" font-weight="normal" text-decoration="undefined" x="205" y="666.5" text-anchor="start" dominant-baseline="central" transform="matrix(1 0 0 1 -190 -182)">+Update$Response(params: Update$Params, context?: HttpContext): Observable&lt;StrictHttpResponse&lt;QualitysavelogModel&gt;&gt;</text></g></g><g><g><path fill="none" stroke="none"/><text fill="#000000" stroke="none" font-family="Arial" font-size="13px" font-style="normal" font-weight="normal" text-decoration="undefined" x="205" y="681.5" text-anchor="start" dominant-baseline="central" transform="matrix(1 0 0 1 -190 -182)">+Update(params: Update$Params, context?: HttpContext): Observable&lt;QualitysavelogModel&gt;</text></g></g><g><rect fill="#ffffff" stroke="none" x="928" y="192" width="301.90966796875" height="116" transform="matrix(1 0 0 1 -190 -182)"/></g><g><path fill="none" stroke="#000000" paint-order="fill stroke markers" d=" M 738 10 L 1039.90966796875 10 L 1039.90966796875 126 L 738 126 L 738 10 Z Z" stroke-miterlimit="10" stroke-dasharray=""/></g><g><path fill="none" stroke="#000000" paint-order="fill stroke markers" d=" M 738 35 L 1040.90966796875 35" stroke-miterlimit="10" stroke-dasharray=""/></g><g><path fill="none" stroke="#000000" paint-order="fill stroke markers" d=" M 738 103 L 1040.90966796875 103" stroke-miterlimit="10" stroke-dasharray=""/></g><g><g><path fill="none" stroke="none"/><text fill="#000000" stroke="none" font-family="Arial" font-size="13px" font-style="normal" font-weight="bold" text-decoration="undefined" x="1079.454833984375" y="205.5" text-anchor="middle" dominant-baseline="central" transform="matrix(1 0 0 1 -190 -182)">LogViewerComponent</text></g></g><g><g><path fill="none" stroke="none"/><text fill="#000000" stroke="none" font-family="Arial" font-size="13px" font-style="normal" font-weight="normal" text-decoration="undefined" x="933" y="228.5" text-anchor="start" dominant-baseline="central" transform="matrix(1 0 0 1 -190 -182)">+displayedColumns: Array&lt;string&gt;</text></g></g><g><g><path fill="none" stroke="none"/><text fill="#000000" stroke="none" font-family="Arial" font-size="13px" font-style="normal" font-weight="normal" text-decoration="undefined" x="933" y="243.5" text-anchor="start" dominant-baseline="central" transform="matrix(1 0 0 1 -190 -182)">-snackBar: MatSnackBar</text></g></g><g><g><path fill="none" stroke="none"/><text fill="#000000" stroke="none" font-family="Arial" font-size="13px" font-style="normal" font-weight="normal" text-decoration="undefined" x="933" y="258.5" text-anchor="start" dominant-baseline="central" transform="matrix(1 0 0 1 -190 -182)">-translateService: TranslateService</text></g></g><g><g><path fill="none" stroke="none"/><text fill="#000000" stroke="none" font-family="Arial" font-size="13px" font-style="normal" font-weight="normal" text-decoration="undefined" x="933" y="273.5" text-anchor="start" dominant-baseline="central" transform="matrix(1 0 0 1 -190 -182)">-loadingService: LoadingService</text></g></g><g><g><path fill="none" stroke="none"/><text fill="#000000" stroke="none" font-family="Arial" font-size="13px" font-style="normal" font-weight="normal" text-decoration="undefined" x="933" y="296.5" text-anchor="start" dominant-baseline="central" transform="matrix(1 0 0 1 -190 -182)">-openSnackBar(message: string, type: string): void</text></g></g><g><path fill="none" stroke="#000000" paint-order="fill stroke markers" d=" M 807 127 L 584 289" stroke-miterlimit="10" stroke-dasharray=""/></g><g><path fill="none" stroke="#000000" paint-order="fill stroke markers" d=" M 589.7480068017127 279.62127845559615 L 584 289 L 594.6962121907058 286.4326969848891" stroke-miterlimit="10" stroke-dasharray=""/></g><g><rect fill="#ffffff" stroke="none" x="1200" y="384" width="426.90771484375" height="146" transform="matrix(1 0 0 1 -190 -182)"/></g><g><path fill="none" stroke="#000000" paint-order="fill stroke markers" d=" M 1010 202 L 1436.90771484375 202 L 1436.90771484375 348 L 1010 348 L 1010 202 Z Z" stroke-miterlimit="10" stroke-dasharray=""/></g><g><path fill="none" stroke="#000000" paint-order="fill stroke markers" d=" M 1010 227 L 1437.90771484375 227" stroke-miterlimit="10" stroke-dasharray=""/></g><g><path fill="none" stroke="#000000" paint-order="fill stroke markers" d=" M 1010 265 L 1437.90771484375 265" stroke-miterlimit="10" stroke-dasharray=""/></g><g><g><path fill="none" stroke="none"/><text fill="#000000" stroke="none" font-family="Arial" font-size="13px" font-style="normal" font-weight="bold" text-decoration="undefined" x="1413.953857421875" y="397.5" text-anchor="middle" dominant-baseline="central" transform="matrix(1 0 0 1 -190 -182)">ActiveAttributesService</text></g></g><g><g><path fill="none" stroke="none"/><text fill="#000000" stroke="none" font-family="Arial" font-size="13px" font-style="normal" font-weight="normal" text-decoration="undefined" x="1205" y="420.5" text-anchor="start" dominant-baseline="central" transform="matrix(1 0 0 1 -190 -182)">-activeAttributes: Subject&lt;Array&lt;QualityattributeModel&gt;&gt;</text></g></g><g><g><path fill="none" stroke="none"/><text fill="#000000" stroke="none" font-family="Arial" font-size="13px" font-style="normal" font-weight="normal" text-decoration="undefined" x="1205" y="435.5" text-anchor="start" dominant-baseline="central" transform="matrix(1 0 0 1 -190 -182)">-authInfoService: AuthInformationsService</text></g></g><g><g><path fill="none" stroke="none"/><text fill="#000000" stroke="none" font-family="Arial" font-size="13px" font-style="normal" font-weight="normal" text-decoration="undefined" x="1205" y="458.5" text-anchor="start" dominant-baseline="central" transform="matrix(1 0 0 1 -190 -182)">-fetchAttributes(activePhase: QualityphaseModel): void</text></g></g><g><g><path fill="none" stroke="none"/><text fill="#000000" stroke="none" font-family="Arial" font-size="13px" font-style="normal" font-weight="normal" text-decoration="undefined" x="1205" y="473.5" text-anchor="start" dominant-baseline="central" transform="matrix(1 0 0 1 -190 -182)">-filterJsonOptions(attribute: QualityattributeModel): QualityattributeModel</text></g></g><g><g><path fill="none" stroke="none"/><text fill="#000000" stroke="none" font-family="Arial" font-size="13px" font-style="normal" font-weight="normal" text-decoration="undefined" x="1205" y="488.5" text-anchor="start" dominant-baseline="central" transform="matrix(1 0 0 1 -190 -182)">+getActiveAttributes(): Observable&lt;Array&lt;QualityattributeModel&gt;&gt;</text></g></g><g><g><path fill="none" stroke="none"/><text fill="#000000" stroke="none" font-family="Arial" font-size="13px" font-style="normal" font-weight="normal" text-decoration="undefined" x="1205" y="503.5" text-anchor="start" dominant-baseline="central" transform="matrix(1 0 0 1 -190 -182)">+update(attributes: Array&lt;QualityattributeModel&gt;): void</text></g></g><g><rect fill="#ffffff" stroke="none" x="1664" y="552" width="316.7568359375" height="101" transform="matrix(1 0 0 1 -190 -182)"/></g><g><path fill="none" stroke="#000000" paint-order="fill stroke markers" d=" M 1474 370 L 1790.7568359375 370 L 1790.7568359375 471 L 1474 471 L 1474 370 Z Z" stroke-miterlimit="10" stroke-dasharray=""/></g><g><path fill="none" stroke="#000000" paint-order="fill stroke markers" d=" M 1474 395 L 1791.7568359375 395" stroke-miterlimit="10" stroke-dasharray=""/></g><g><path fill="none" stroke="#000000" paint-order="fill stroke markers" d=" M 1474 433 L 1791.7568359375 433" stroke-miterlimit="10" stroke-dasharray=""/></g><g><g><path fill="none" stroke="none"/><text fill="#000000" stroke="none" font-family="Arial" font-size="13px" font-style="normal" font-weight="bold" text-decoration="undefined" x="1822.87841796875" y="565.5" text-anchor="middle" dominant-baseline="central" transform="matrix(1 0 0 1 -190 -182)">ActivePhaseService</text></g></g><g><g><path fill="none" stroke="none"/><text fill="#000000" stroke="none" font-family="Arial" font-size="13px" font-style="normal" font-weight="normal" text-decoration="undefined" x="1669" y="588.5" text-anchor="start" dominant-baseline="central" transform="matrix(1 0 0 1 -190 -182)">-activePhase: Subject&lt;QualityphaseModel&gt;</text></g></g><g><g><path fill="none" stroke="none"/><text fill="#000000" stroke="none" font-family="Arial" font-size="13px" font-style="normal" font-weight="normal" text-decoration="undefined" x="1669" y="603.5" text-anchor="start" dominant-baseline="central" transform="matrix(1 0 0 1 -190 -182)">-lastValue: QualityphaseModel</text></g></g><g><g><path fill="none" stroke="none"/><text fill="#000000" stroke="none" font-family="Arial" font-size="13px" font-style="normal" font-weight="normal" text-decoration="undefined" x="1669" y="626.5" text-anchor="start" dominant-baseline="central" transform="matrix(1 0 0 1 -190 -182)">+update(phase: QualityphaseModel): void</text></g></g><g><g><path fill="none" stroke="none"/><text fill="#000000" stroke="none" font-family="Arial" font-size="13px" font-style="normal" font-weight="normal" text-decoration="undefined" x="1669" y="641.5" text-anchor="start" dominant-baseline="central" transform="matrix(1 0 0 1 -190 -182)">+getActivePhase(): Observable&lt;QualityphaseModel&gt;</text></g></g><g><path fill="none" stroke="#000000" paint-order="fill stroke markers" d=" M 983 127 L 1103 201" stroke-miterlimit="10" stroke-dasharray=""/></g><g><path fill="none" stroke="#000000" paint-order="fill stroke markers" d=" M 1092.1402988875182 199.24874566451365 L 1103 201 L 1096.5593555179098 192.0827078855002" stroke-miterlimit="10" stroke-dasharray=""/></g><g><path fill="none" stroke="#000000" paint-order="fill stroke markers" d=" M 1432 349 L 1488 369" stroke-miterlimit="10" stroke-dasharray=""/></g><g><path fill="none" stroke="#000000" paint-order="fill stroke markers" d=" M 1477.013569117506 369.54620185296585 L 1488 369 L 1479.8451971878224 361.61764325608" stroke-miterlimit="10" stroke-dasharray=""/></g><g><rect fill="#ffffff" stroke="none" x="992" y="784" width="846.41162109375" height="86" transform="matrix(1 0 0 1 -190 -182)"/></g><g><path fill="none" stroke="#000000" paint-order="fill stroke markers" d=" M 802 602 L 1648.41162109375 602 L 1648.41162109375 688 L 802 688 L 802 602 Z Z" stroke-miterlimit="10" stroke-dasharray=""/></g><g><path fill="none" stroke="#000000" paint-order="fill stroke markers" d=" M 802 627 L 1649.41162109375 627" stroke-miterlimit="10" stroke-dasharray=""/></g><g><path fill="none" stroke="#000000" paint-order="fill stroke markers" d=" M 802 650 L 1649.41162109375 650" stroke-miterlimit="10" stroke-dasharray=""/></g><g><g><path fill="none" stroke="none"/><text fill="#000000" stroke="none" font-family="Arial" font-size="13px" font-style="normal" font-weight="bold" text-decoration="undefined" x="1415.705810546875" y="797.5" text-anchor="middle" dominant-baseline="central" transform="matrix(1 0 0 1 -190 -182)">QualityAttributeService</text></g></g><g><g><path fill="none" stroke="none"/><text fill="#000000" stroke="none" font-family="Arial" font-size="13px" font-style="normal" font-weight="normal" text-decoration="undefined" x="997" y="820.5" text-anchor="start" dominant-baseline="central" transform="matrix(1 0 0 1 -190 -182)">+Fetch_2Path: string {readOnly}</text><path fill="none" stroke="#000000" paint-order="fill stroke markers" d=" M 807 645 L 992.3642578125 645" stroke-miterlimit="10" stroke-dasharray=""/></g></g><g><g><path fill="none" stroke="none"/><text fill="#000000" stroke="none" font-family="Arial" font-size="13px" font-style="normal" font-weight="normal" text-decoration="undefined" x="997" y="843.5" text-anchor="start" dominant-baseline="central" transform="matrix(1 0 0 1 -190 -182)">+fetch_3$Response(params: Fetch_3$Params, context?: HttpContext): Observable&lt;StrictHttpResponse&lt;FetchResponseQualityattributeModel&gt;&gt;</text></g></g><g><g><path fill="none" stroke="none"/><text fill="#000000" stroke="none" font-family="Arial" font-size="13px" font-style="normal" font-weight="normal" text-decoration="undefined" x="997" y="858.5" text-anchor="start" dominant-baseline="central" transform="matrix(1 0 0 1 -190 -182)">+fetch_3(params: Fetch_3$Params, context?: HttpContext): Observable&lt;FetchResponseQualityattributeModel&gt;</text></g></g><g><path fill="none" stroke="#000000" paint-order="fill stroke markers" d=" M 1223 349 L 1225 601" stroke-miterlimit="10" stroke-dasharray=""/></g><g><path fill="none" stroke="#000000" paint-order="fill stroke markers" d=" M 1220.709961203014 590.87105301029 L 1225 601 L 1229.1287315778009 590.8042373723948" stroke-miterlimit="10" stroke-dasharray=""/></g></g></svg>