<svg version="1.1" xmlns="http://www.w3.org/2000/svg" xmlns:xlink="http://www.w3.org/1999/xlink" width="1801.7568359375" height="930"><defs/><g><g><rect fill="#ffffff" stroke="none" x="184" y="584" width="844.2470703125" height="221" transform="matrix(1 0 0 1 -174 -62)"/></g><g><path fill="none" stroke="#000000" paint-order="fill stroke markers" d=" M 10 522 L 854.2470703125 522 L 854.2470703125 743 L 10 743 L 10 522 Z Z" stroke-miterlimit="10" stroke-dasharray=""/></g><g><path fill="none" stroke="#000000" paint-order="fill stroke markers" d=" M 10 547 L 855.2470703125 547" stroke-miterlimit="10" stroke-dasharray=""/></g><g><path fill="none" stroke="#000000" paint-order="fill stroke markers" d=" M 10 615 L 855.2470703125 615" stroke-miterlimit="10" stroke-dasharray=""/></g><g><g><path fill="none" stroke="none"/><text fill="#000000" stroke="none" font-family="Arial" font-size="13px" font-style="normal" font-weight="bold" text-decoration="undefined" x="606.62353515625" y="597.5" text-anchor="middle" dominant-baseline="central" transform="matrix(1 0 0 1 -174 -62)">QualitySaveLogService</text></g></g><g><g><path fill="none" stroke="none"/><text fill="#000000" stroke="none" font-family="Arial" font-size="13px" font-style="normal" font-weight="normal" text-decoration="undefined" x="189" y="620.5" text-anchor="start" dominant-baseline="central" transform="matrix(1 0 0 1 -174 -62)">+AddPath: string {readOnly}</text><path fill="none" stroke="#000000" paint-order="fill stroke markers" d=" M 15 565 L 176.5224609375 565" stroke-miterlimit="10" stroke-dasharray=""/></g></g><g><g><path fill="none" stroke="none"/><text fill="#000000" stroke="none" font-family="Arial" font-size="13px" font-style="normal" font-weight="normal" text-decoration="undefined" x="189" y="635.5" text-anchor="start" dominant-baseline="central" transform="matrix(1 0 0 1 -174 -62)">+DeletePath: string {readOnly}</text><path fill="none" stroke="#000000" paint-order="fill stroke markers" d=" M 15 580 L 190.9697265625 580" stroke-miterlimit="10" stroke-dasharray=""/></g></g><g><g><path fill="none" stroke="none"/><text fill="#000000" stroke="none" font-family="Arial" font-size="13px" font-style="normal" font-weight="normal" text-decoration="undefined" x="189" y="650.5" text-anchor="start" dominant-baseline="central" transform="matrix(1 0 0 1 -174 -62)">+UpdatePath: string {readOnly}</text><path fill="none" stroke="#000000" paint-order="fill stroke markers" d=" M 15 595 L 195.3115234375 595" stroke-miterlimit="10" stroke-dasharray=""/></g></g><g><g><path fill="none" stroke="none"/><text fill="#000000" stroke="none" font-family="Arial" font-size="13px" font-style="normal" font-weight="normal" text-decoration="undefined" x="189" y="665.5" text-anchor="start" dominant-baseline="central" transform="matrix(1 0 0 1 -174 -62)">+Fetch_1Path: string {readOnly}</text><path fill="none" stroke="#000000" paint-order="fill stroke markers" d=" M 15 610 L 200.3642578125 610" stroke-miterlimit="10" stroke-dasharray=""/></g></g><g><g><path fill="none" stroke="none"/><text fill="#000000" stroke="none" font-family="Arial" font-size="13px" font-style="normal" font-weight="normal" text-decoration="undefined" x="189" y="688.5" text-anchor="start" dominant-baseline="central" transform="matrix(1 0 0 1 -174 -62)">+Add$Response(params: Add$Params, context?: HttpContext): Observable&lt;StrictHttpResponse&lt;QualitysavelogModel&gt;&gt;</text></g></g><g><g><path fill="none" stroke="none"/><text fill="#000000" stroke="none" font-family="Arial" font-size="13px" font-style="normal" font-weight="normal" text-decoration="undefined" x="189" y="703.5" text-anchor="start" dominant-baseline="central" transform="matrix(1 0 0 1 -174 -62)">+Add(params: Add$Params, context?: HttpContext): Observable&lt;QualitysavelogModel&gt;</text></g></g><g><g><path fill="none" stroke="none"/><text fill="#000000" stroke="none" font-family="Arial" font-size="13px" font-style="normal" font-weight="normal" text-decoration="undefined" x="189" y="718.5" text-anchor="start" dominant-baseline="central" transform="matrix(1 0 0 1 -174 -62)">+Delete$Response(params: Delete$Params, context?: HttpContext): Observable&lt;StrictHttpResponse&lt;QualitysavelogModel&gt;&gt;</text></g></g><g><g><path fill="none" stroke="none"/><text fill="#000000" stroke="none" font-family="Arial" font-size="13px" font-style="normal" font-weight="normal" text-decoration="undefined" x="189" y="733.5" text-anchor="start" dominant-baseline="central" transform="matrix(1 0 0 1 -174 -62)">+Delete(params: Delete$Params, context?: HttpContext): Observable&lt;QualitysavelogModel&gt;</text></g></g><g><g><path fill="none" stroke="none"/><text fill="#000000" stroke="none" font-family="Arial" font-size="13px" font-style="normal" font-weight="normal" text-decoration="undefined" x="189" y="748.5" text-anchor="start" dominant-baseline="central" transform="matrix(1 0 0 1 -174 -62)">+fetch_1$Response(params: Fetch_1$Params, context?: HttpContext): Observable&lt;StrictHttpResponse&lt;FetchResponseQualitysavelogModel&gt;&gt;</text></g></g><g><g><path fill="none" stroke="none"/><text fill="#000000" stroke="none" font-family="Arial" font-size="13px" font-style="normal" font-weight="normal" text-decoration="undefined" x="189" y="763.5" text-anchor="start" dominant-baseline="central" transform="matrix(1 0 0 1 -174 -62)">+fetch_1(params: Fetch_1$Params, context?: HttpContext): Observable&lt;FetchResponseQualitysavelogModel&gt;</text></g></g><g><g><path fill="none" stroke="none"/><text fill="#000000" stroke="none" font-family="Arial" font-size="13px" font-style="normal" font-weight="normal" text-decoration="undefined" x="189" y="778.5" text-anchor="start" dominant-baseline="central" transform="matrix(1 0 0 1 -174 -62)">+Update$Response(params: Update$Params, context?: HttpContext): Observable&lt;StrictHttpResponse&lt;QualitysavelogModel&gt;&gt;</text></g></g><g><g><path fill="none" stroke="none"/><text fill="#000000" stroke="none" font-family="Arial" font-size="13px" font-style="normal" font-weight="normal" text-decoration="undefined" x="189" y="793.5" text-anchor="start" dominant-baseline="central" transform="matrix(1 0 0 1 -174 -62)">+Update(params: Update$Params, context?: HttpContext): Observable&lt;QualitysavelogModel&gt;</text></g></g><g><rect fill="#ffffff" stroke="none" x="856" y="72" width="417.3798828125" height="341" transform="matrix(1 0 0 1 -174 -62)"/></g><g><path fill="none" stroke="#000000" paint-order="fill stroke markers" d=" M 682 10 L 1099.3798828125 10 L 1099.3798828125 351 L 682 351 L 682 10 Z Z" stroke-miterlimit="10" stroke-dasharray=""/></g><g><path fill="none" stroke="#000000" paint-order="fill stroke markers" d=" M 682 35 L 1100.3798828125 35" stroke-miterlimit="10" stroke-dasharray=""/></g><g><path fill="none" stroke="#000000" paint-order="fill stroke markers" d=" M 682 238 L 1100.3798828125 238" stroke-miterlimit="10" stroke-dasharray=""/></g><g><g><path fill="none" stroke="none"/><text fill="#000000" stroke="none" font-family="Arial" font-size="13px" font-style="normal" font-weight="bold" text-decoration="undefined" x="1065.18994140625" y="85.5" text-anchor="middle" dominant-baseline="central" transform="matrix(1 0 0 1 -174 -62)">LogViewerComponent</text></g></g><g><g><path fill="none" stroke="none"/><text fill="#000000" stroke="none" font-family="Arial" font-size="13px" font-style="normal" font-weight="normal" text-decoration="undefined" x="861" y="108.5" text-anchor="start" dominant-baseline="central" transform="matrix(1 0 0 1 -174 -62)">+activeLogs: Array&lt;QualitysavelogModel&gt;</text></g></g><g><g><path fill="none" stroke="none"/><text fill="#000000" stroke="none" font-family="Arial" font-size="13px" font-style="normal" font-weight="normal" text-decoration="undefined" x="861" y="123.5" text-anchor="start" dominant-baseline="central" transform="matrix(1 0 0 1 -174 -62)">+attributes: Array&lt;QualitysavelogModel&gt;</text></g></g><g><g><path fill="none" stroke="none"/><text fill="#000000" stroke="none" font-family="Arial" font-size="13px" font-style="normal" font-weight="normal" text-decoration="undefined" x="861" y="138.5" text-anchor="start" dominant-baseline="central" transform="matrix(1 0 0 1 -174 -62)">+blinkLogId: number</text></g></g><g><g><path fill="none" stroke="none"/><text fill="#000000" stroke="none" font-family="Arial" font-size="13px" font-style="normal" font-weight="normal" text-decoration="undefined" x="861" y="153.5" text-anchor="start" dominant-baseline="central" transform="matrix(1 0 0 1 -174 -62)">+displayedColumns: Array&lt;string&gt;</text></g></g><g><g><path fill="none" stroke="none"/><text fill="#000000" stroke="none" font-family="Arial" font-size="13px" font-style="normal" font-weight="normal" text-decoration="undefined" x="861" y="168.5" text-anchor="start" dominant-baseline="central" transform="matrix(1 0 0 1 -174 -62)">+highlighted: QualitysavelogModel</text></g></g><g><g><path fill="none" stroke="none"/><text fill="#000000" stroke="none" font-family="Arial" font-size="13px" font-style="normal" font-weight="normal" text-decoration="undefined" x="861" y="183.5" text-anchor="start" dominant-baseline="central" transform="matrix(1 0 0 1 -174 -62)">+lastPhase: QualityphaseModel</text></g></g><g><g><path fill="none" stroke="none"/><text fill="#000000" stroke="none" font-family="Arial" font-size="13px" font-style="normal" font-weight="normal" text-decoration="undefined" x="861" y="198.5" text-anchor="start" dominant-baseline="central" transform="matrix(1 0 0 1 -174 -62)">+loadingService: LoadingService</text></g></g><g><g><path fill="none" stroke="none"/><text fill="#000000" stroke="none" font-family="Arial" font-size="13px" font-style="normal" font-weight="normal" text-decoration="undefined" x="861" y="213.5" text-anchor="start" dominant-baseline="central" transform="matrix(1 0 0 1 -174 -62)">+logs: Subject&lt;List&lt;any&gt;&gt;</text></g></g><g><g><path fill="none" stroke="none"/><text fill="#000000" stroke="none" font-family="Arial" font-size="13px" font-style="normal" font-weight="normal" text-decoration="undefined" x="861" y="228.5" text-anchor="start" dominant-baseline="central" transform="matrix(1 0 0 1 -174 -62)">+snackBar: MatSnackBar</text></g></g><g><g><path fill="none" stroke="none"/><text fill="#000000" stroke="none" font-family="Arial" font-size="13px" font-style="normal" font-weight="normal" text-decoration="undefined" x="861" y="243.5" text-anchor="start" dominant-baseline="central" transform="matrix(1 0 0 1 -174 -62)">+translateService: TranslateService</text></g></g><g><g><path fill="none" stroke="none"/><text fill="#000000" stroke="none" font-family="Arial" font-size="13px" font-style="normal" font-weight="normal" text-decoration="undefined" x="861" y="258.5" text-anchor="start" dominant-baseline="central" transform="matrix(1 0 0 1 -174 -62)">+authInfoService: AuthInformationsService</text></g></g><g><g><path fill="none" stroke="none"/><text fill="#000000" stroke="none" font-family="Arial" font-size="13px" font-style="normal" font-weight="normal" text-decoration="undefined" x="861" y="273.5" text-anchor="start" dominant-baseline="central" transform="matrix(1 0 0 1 -174 -62)">+mainViewCommunicationsService: MainViewCommunicationsService</text></g></g><g><g><path fill="none" stroke="none"/><text fill="#000000" stroke="none" font-family="Arial" font-size="13px" font-style="normal" font-weight="normal" text-decoration="undefined" x="861" y="288.5" text-anchor="start" dominant-baseline="central" transform="matrix(1 0 0 1 -174 -62)">+dialog: MatDialog</text></g></g><g><g><path fill="none" stroke="none"/><text fill="#000000" stroke="none" font-family="Arial" font-size="13px" font-style="normal" font-weight="normal" text-decoration="undefined" x="861" y="311.5" text-anchor="start" dominant-baseline="central" transform="matrix(1 0 0 1 -174 -62)">+delete(selectedLog: QualitysavelogModel): void</text></g></g><g><g><path fill="none" stroke="none"/><text fill="#000000" stroke="none" font-family="Arial" font-size="13px" font-style="normal" font-weight="normal" text-decoration="undefined" x="861" y="326.5" text-anchor="start" dominant-baseline="central" transform="matrix(1 0 0 1 -174 -62)">+deleteDialog(selectedLog: any): void</text></g></g><g><g><path fill="none" stroke="none"/><text fill="#000000" stroke="none" font-family="Arial" font-size="13px" font-style="normal" font-weight="normal" text-decoration="undefined" x="861" y="341.5" text-anchor="start" dominant-baseline="central" transform="matrix(1 0 0 1 -174 -62)">+edit(selectedLog: QualitysavelogModel): void</text></g></g><g><g><path fill="none" stroke="none"/><text fill="#000000" stroke="none" font-family="Arial" font-size="13px" font-style="normal" font-weight="normal" text-decoration="undefined" x="861" y="356.5" text-anchor="start" dominant-baseline="central" transform="matrix(1 0 0 1 -174 -62)">+highlight(selected: QualitysavelogModel): void</text></g></g><g><g><path fill="none" stroke="none"/><text fill="#000000" stroke="none" font-family="Arial" font-size="13px" font-style="normal" font-weight="normal" text-decoration="undefined" x="861" y="371.5" text-anchor="start" dominant-baseline="central" transform="matrix(1 0 0 1 -174 -62)">+openFailSnackBar(message: string, type: string): void</text></g></g><g><g><path fill="none" stroke="none"/><text fill="#000000" stroke="none" font-family="Arial" font-size="13px" font-style="normal" font-weight="normal" text-decoration="undefined" x="861" y="386.5" text-anchor="start" dominant-baseline="central" transform="matrix(1 0 0 1 -174 -62)">+openSuccessSnackBar(message: string, type: string): void</text></g></g><g><g><path fill="none" stroke="none"/><text fill="#000000" stroke="none" font-family="Arial" font-size="13px" font-style="normal" font-weight="normal" text-decoration="undefined" x="861" y="401.5" text-anchor="start" dominant-baseline="central" transform="matrix(1 0 0 1 -174 -62)">+updateTable(phase: QualityphaseModel): void</text></g></g><g><path fill="none" stroke="#000000" paint-order="fill stroke markers" d=" M 716 352 L 544 521" stroke-miterlimit="10" stroke-dasharray=""/></g><g><path fill="none" stroke="#000000" paint-order="fill stroke markers" d=" M 548.298759096714 510.87475085598294 L 544 521 L 554.1993140389116 516.8800493770361" stroke-miterlimit="10" stroke-dasharray=""/></g><g><rect fill="#ffffff" stroke="none" x="1184" y="496" width="426.90771484375" height="146" transform="matrix(1 0 0 1 -174 -62)"/></g><g><path fill="none" stroke="#000000" paint-order="fill stroke markers" d=" M 1010 434 L 1436.90771484375 434 L 1436.90771484375 580 L 1010 580 L 1010 434 Z Z" stroke-miterlimit="10" stroke-dasharray=""/></g><g><path fill="none" stroke="#000000" paint-order="fill stroke markers" d=" M 1010 459 L 1437.90771484375 459" stroke-miterlimit="10" stroke-dasharray=""/></g><g><path fill="none" stroke="#000000" paint-order="fill stroke markers" d=" M 1010 497 L 1437.90771484375 497" stroke-miterlimit="10" stroke-dasharray=""/></g><g><g><path fill="none" stroke="none"/><text fill="#000000" stroke="none" font-family="Arial" font-size="13px" font-style="normal" font-weight="bold" text-decoration="undefined" x="1397.953857421875" y="509.5" text-anchor="middle" dominant-baseline="central" transform="matrix(1 0 0 1 -174 -62)">ActiveAttributesService</text></g></g><g><g><path fill="none" stroke="none"/><text fill="#000000" stroke="none" font-family="Arial" font-size="13px" font-style="normal" font-weight="normal" text-decoration="undefined" x="1189" y="532.5" text-anchor="start" dominant-baseline="central" transform="matrix(1 0 0 1 -174 -62)">-activeAttributes: Subject&lt;Array&lt;QualityattributeModel&gt;&gt;</text></g></g><g><g><path fill="none" stroke="none"/><text fill="#000000" stroke="none" font-family="Arial" font-size="13px" font-style="normal" font-weight="normal" text-decoration="undefined" x="1189" y="547.5" text-anchor="start" dominant-baseline="central" transform="matrix(1 0 0 1 -174 -62)">-authInfoService: AuthInformationsService</text></g></g><g><g><path fill="none" stroke="none"/><text fill="#000000" stroke="none" font-family="Arial" font-size="13px" font-style="normal" font-weight="normal" text-decoration="undefined" x="1189" y="570.5" text-anchor="start" dominant-baseline="central" transform="matrix(1 0 0 1 -174 -62)">-fetchAttributes(activePhase: QualityphaseModel): void</text></g></g><g><g><path fill="none" stroke="none"/><text fill="#000000" stroke="none" font-family="Arial" font-size="13px" font-style="normal" font-weight="normal" text-decoration="undefined" x="1189" y="585.5" text-anchor="start" dominant-baseline="central" transform="matrix(1 0 0 1 -174 -62)">-filterJsonOptions(attribute: QualityattributeModel): QualityattributeModel</text></g></g><g><g><path fill="none" stroke="none"/><text fill="#000000" stroke="none" font-family="Arial" font-size="13px" font-style="normal" font-weight="normal" text-decoration="undefined" x="1189" y="600.5" text-anchor="start" dominant-baseline="central" transform="matrix(1 0 0 1 -174 -62)">+getActiveAttributes(): Observable&lt;Array&lt;QualityattributeModel&gt;&gt;</text></g></g><g><g><path fill="none" stroke="none"/><text fill="#000000" stroke="none" font-family="Arial" font-size="13px" font-style="normal" font-weight="normal" text-decoration="undefined" x="1189" y="615.5" text-anchor="start" dominant-baseline="central" transform="matrix(1 0 0 1 -174 -62)">+update(attributes: Array&lt;QualityattributeModel&gt;): void</text></g></g><g><rect fill="#ffffff" stroke="none" x="1648" y="664" width="316.7568359375" height="101" transform="matrix(1 0 0 1 -174 -62)"/></g><g><path fill="none" stroke="#000000" paint-order="fill stroke markers" d=" M 1474 602 L 1790.7568359375 602 L 1790.7568359375 703 L 1474 703 L 1474 602 Z Z" stroke-miterlimit="10" stroke-dasharray=""/></g><g><path fill="none" stroke="#000000" paint-order="fill stroke markers" d=" M 1474 627 L 1791.7568359375 627" stroke-miterlimit="10" stroke-dasharray=""/></g><g><path fill="none" stroke="#000000" paint-order="fill stroke markers" d=" M 1474 665 L 1791.7568359375 665" stroke-miterlimit="10" stroke-dasharray=""/></g><g><g><path fill="none" stroke="none"/><text fill="#000000" stroke="none" font-family="Arial" font-size="13px" font-style="normal" font-weight="bold" text-decoration="undefined" x="1806.87841796875" y="677.5" text-anchor="middle" dominant-baseline="central" transform="matrix(1 0 0 1 -174 -62)">ActivePhaseService</text></g></g><g><g><path fill="none" stroke="none"/><text fill="#000000" stroke="none" font-family="Arial" font-size="13px" font-style="normal" font-weight="normal" text-decoration="undefined" x="1653" y="700.5" text-anchor="start" dominant-baseline="central" transform="matrix(1 0 0 1 -174 -62)">-activePhase: Subject&lt;QualityphaseModel&gt;</text></g></g><g><g><path fill="none" stroke="none"/><text fill="#000000" stroke="none" font-family="Arial" font-size="13px" font-style="normal" font-weight="normal" text-decoration="undefined" x="1653" y="715.5" text-anchor="start" dominant-baseline="central" transform="matrix(1 0 0 1 -174 -62)">-lastValue: QualityphaseModel</text></g></g><g><g><path fill="none" stroke="none"/><text fill="#000000" stroke="none" font-family="Arial" font-size="13px" font-style="normal" font-weight="normal" text-decoration="undefined" x="1653" y="738.5" text-anchor="start" dominant-baseline="central" transform="matrix(1 0 0 1 -174 -62)">+update(phase: QualityphaseModel): void</text></g></g><g><g><path fill="none" stroke="none"/><text fill="#000000" stroke="none" font-family="Arial" font-size="13px" font-style="normal" font-weight="normal" text-decoration="undefined" x="1653" y="753.5" text-anchor="start" dominant-baseline="central" transform="matrix(1 0 0 1 -174 -62)">+getActivePhase(): Observable&lt;QualityphaseModel&gt;</text></g></g><g><path fill="none" stroke="#000000" paint-order="fill stroke markers" d=" M 1065 352 L 1148 433" stroke-miterlimit="10" stroke-dasharray=""/></g><g><path fill="none" stroke="#000000" paint-order="fill stroke markers" d=" M 1137.786748994199 428.9147210753117 L 1148 433 L 1143.6668693865233 422.8894125251521" stroke-miterlimit="10" stroke-dasharray=""/></g><g><path fill="none" stroke="#000000" paint-order="fill stroke markers" d=" M 1432 581 L 1488 601" stroke-miterlimit="10" stroke-dasharray=""/></g><g><path fill="none" stroke="#000000" paint-order="fill stroke markers" d=" M 1477.013569117506 601.5462018529659 L 1488 601 L 1479.8451971878224 593.61764325608" stroke-miterlimit="10" stroke-dasharray=""/></g><g><rect fill="#ffffff" stroke="none" x="976" y="896" width="846.41162109375" height="86" transform="matrix(1 0 0 1 -174 -62)"/></g><g><path fill="none" stroke="#000000" paint-order="fill stroke markers" d=" M 802 834 L 1648.41162109375 834 L 1648.41162109375 920 L 802 920 L 802 834 Z Z" stroke-miterlimit="10" stroke-dasharray=""/></g><g><path fill="none" stroke="#000000" paint-order="fill stroke markers" d=" M 802 859 L 1649.41162109375 859" stroke-miterlimit="10" stroke-dasharray=""/></g><g><path fill="none" stroke="#000000" paint-order="fill stroke markers" d=" M 802 882 L 1649.41162109375 882" stroke-miterlimit="10" stroke-dasharray=""/></g><g><g><path fill="none" stroke="none"/><text fill="#000000" stroke="none" font-family="Arial" font-size="13px" font-style="normal" font-weight="bold" text-decoration="undefined" x="1399.705810546875" y="909.5" text-anchor="middle" dominant-baseline="central" transform="matrix(1 0 0 1 -174 -62)">QualityAttributeService</text></g></g><g><g><path fill="none" stroke="none"/><text fill="#000000" stroke="none" font-family="Arial" font-size="13px" font-style="normal" font-weight="normal" text-decoration="undefined" x="981" y="932.5" text-anchor="start" dominant-baseline="central" transform="matrix(1 0 0 1 -174 -62)">+Fetch_2Path: string {readOnly}</text><path fill="none" stroke="#000000" paint-order="fill stroke markers" d=" M 807 877 L 992.3642578125 877" stroke-miterlimit="10" stroke-dasharray=""/></g></g><g><g><path fill="none" stroke="none"/><text fill="#000000" stroke="none" font-family="Arial" font-size="13px" font-style="normal" font-weight="normal" text-decoration="undefined" x="981" y="955.5" text-anchor="start" dominant-baseline="central" transform="matrix(1 0 0 1 -174 -62)">+fetch_3$Response(params: Fetch_3$Params, context?: HttpContext): Observable&lt;StrictHttpResponse&lt;FetchResponseQualityattributeModel&gt;&gt;</text></g></g><g><g><path fill="none" stroke="none"/><text fill="#000000" stroke="none" font-family="Arial" font-size="13px" font-style="normal" font-weight="normal" text-decoration="undefined" x="981" y="970.5" text-anchor="start" dominant-baseline="central" transform="matrix(1 0 0 1 -174 -62)">+fetch_3(params: Fetch_3$Params, context?: HttpContext): Observable&lt;FetchResponseQualityattributeModel&gt;</text></g></g><g><path fill="none" stroke="#000000" paint-order="fill stroke markers" d=" M 1223 581 L 1225 833" stroke-miterlimit="10" stroke-dasharray=""/></g><g><path fill="none" stroke="#000000" paint-order="fill stroke markers" d=" M 1220.709961203014 822.87105301029 L 1225 833 L 1229.1287315778009 822.8042373723948" stroke-miterlimit="10" stroke-dasharray=""/></g></g></svg>