<svg version="1.1" xmlns="http://www.w3.org/2000/svg" xmlns:xlink="http://www.w3.org/1999/xlink" width="813" height="428"><defs/><g><g><rect fill="#ffffff" stroke="none" x="328" y="232" width="560" height="408" transform="matrix(1 0 0 1 -86 -222)"/></g><g><path fill="none" stroke="#000000" paint-order="fill stroke markers" d=" M 242 10 L 802 10 L 802 418 L 242 418 L 242 10 Z Z" stroke-miterlimit="10" stroke-dasharray=""/></g><g><g><path fill="none" stroke="none"/><text fill="#000000" stroke="none" font-family="Arial" font-size="13px" font-style="normal" font-weight="bold" text-decoration="undefined" x="608.5" y="245.5" text-anchor="middle" dominant-baseline="central" transform="matrix(1 0 0 1 -86 -222)">Autenticazione</text></g></g><g><path fill="none" stroke="#000000" paint-order="fill stroke markers" d=" M 529 187 L 463 199" stroke-miterlimit="10" stroke-dasharray="3"/></g><g><path fill="none" stroke="#000000" paint-order="fill stroke markers" d=" M 472.2457285701497 193.04042759863455 L 463 199 L 473.75177142694076 201.32366331098535" stroke-miterlimit="10" stroke-dasharray=""/></g><g><rect fill="#ffffff" stroke="none" x="515" y="393" width="53.49169921875" height="13" transform="matrix(1 0 0 1 -86 -222)"/></g><g><g><path fill="none" stroke="none"/><text fill="#000000" stroke="none" font-family="Arial" font-size="13px" font-style="normal" font-weight="normal" text-decoration="undefined" x="541.745849609375" y="399.5" text-anchor="middle" dominant-baseline="central" transform="matrix(1 0 0 1 -86 -222)">«extend»</text></g></g><g><path fill="none" stroke="#000000" paint-order="fill stroke markers" d=" M 529 254 L 463 240" stroke-miterlimit="10" stroke-dasharray="3"/></g><g><path fill="none" stroke="#000000" paint-order="fill stroke markers" d=" M 473.81496799756724 237.99090388194173 L 463 240 L 472.0679826985298 246.2266917202607" stroke-miterlimit="10" stroke-dasharray=""/></g><g><rect fill="#ffffff" stroke="none" x="498" y="476" width="53.49169921875" height="13" transform="matrix(1 0 0 1 -86 -222)"/></g><g><g><path fill="none" stroke="none"/><text fill="#000000" stroke="none" font-family="Arial" font-size="13px" font-style="normal" font-weight="normal" text-decoration="undefined" x="524.745849609375" y="482.5" text-anchor="middle" dominant-baseline="central" transform="matrix(1 0 0 1 -86 -222)">«extend»</text></g></g><g><path fill="#ffffff" stroke="none" paint-order="stroke fill markers" d=" M 378 346 L 535 346 L 545 356 L 545 396 L 378 396 L 378 346"/></g><g><path fill="none" stroke="#000000" paint-order="fill stroke markers" d=" M 378 346 L 535 346 L 545 356 L 545 396 L 378 396 L 378 346 L 378 346" stroke-miterlimit="10" stroke-dasharray=""/></g><g><path fill="none" stroke="#000000" paint-order="fill stroke markers" d=" M 535 346 L 535 356 L 545 356 L 535 346" stroke-miterlimit="10" stroke-dasharray=""/></g><g><g><path fill="none" stroke="none"/><text fill="#000000" stroke="none" font-family="Arial" font-size="13px" font-style="normal" font-weight="normal" text-decoration="undefined" x="469" y="573" text-anchor="start" dominant-baseline="text-before-edge" transform="matrix(1 0 0 1 -86 -222)">Condizione: l'utente non</text><text fill="#000000" stroke="none" font-family="Arial" font-size="13px" font-style="normal" font-weight="normal" text-decoration="undefined" x="469" y="586" text-anchor="start" dominant-baseline="text-before-edge" transform="matrix(1 0 0 1 -86 -222)">autenticato inserisce un</text><text fill="#000000" stroke="none" font-family="Arial" font-size="13px" font-style="normal" font-weight="normal" text-decoration="undefined" x="469" y="599" text-anchor="start" dominant-baseline="text-before-edge" transform="matrix(1 0 0 1 -86 -222)">valore errato per il pin</text></g></g><g><path fill="none" stroke="#000000" paint-order="fill stroke markers" d=" M 496 247 L 469 345" stroke-miterlimit="10" stroke-dasharray="3"/></g><g><path fill="#ffffff" stroke="none" paint-order="stroke fill markers" d=" M 370 50 L 519 50 L 529 60 L 529 113 L 370 113 L 370 50"/></g><g><path fill="none" stroke="#000000" paint-order="fill stroke markers" d=" M 370 50 L 519 50 L 529 60 L 529 113 L 370 113 L 370 50 L 370 50" stroke-miterlimit="10" stroke-dasharray=""/></g><g><path fill="none" stroke="#000000" paint-order="fill stroke markers" d=" M 519 50 L 519 60 L 529 60 L 519 50" stroke-miterlimit="10" stroke-dasharray=""/></g><g><g><path fill="none" stroke="none"/><text fill="#000000" stroke="none" font-family="Arial" font-size="13px" font-style="normal" font-weight="normal" text-decoration="undefined" x="461" y="277" text-anchor="start" dominant-baseline="text-before-edge" transform="matrix(1 0 0 1 -86 -222)">Condizione: l'utente non</text><text fill="#000000" stroke="none" font-family="Arial" font-size="13px" font-style="normal" font-weight="normal" text-decoration="undefined" x="461" y="290" text-anchor="start" dominant-baseline="text-before-edge" transform="matrix(1 0 0 1 -86 -222)">autenticato inserisce un</text><text fill="#000000" stroke="none" font-family="Arial" font-size="13px" font-style="normal" font-weight="normal" text-decoration="undefined" x="461" y="303" text-anchor="start" dominant-baseline="text-before-edge" transform="matrix(1 0 0 1 -86 -222)">nome utente errato</text></g></g><g><path fill="none" stroke="#000000" paint-order="fill stroke markers" d=" M 496 193 L 464 115" stroke-miterlimit="10" stroke-dasharray="3"/></g><g><path fill="#ffffff" stroke="none" paint-order="stroke fill markers" d=" M 72.72027006392045 183.93 C 72.72027006392045 176.788957536 78.40511346522953 171 85.417724609375 171 C 92.43033575352047 171 98.11517915482955 176.788957536 98.11517915482955 183.93 C 98.11517915482955 191.07104246400002 92.43033575352047 196.86 85.417724609375 196.86 C 78.40511346522953 196.86 72.72027006392045 191.07104246400002 72.72027006392045 183.93 Z"/></g><g><path fill="none" stroke="#000000" paint-order="fill stroke markers" d=" M 72.72027006392045 183.93 C 72.72027006392045 176.788957536 78.40511346522953 171 85.417724609375 171 C 92.43033575352047 171 98.11517915482955 176.788957536 98.11517915482955 183.93 C 98.11517915482955 191.07104246400002 92.43033575352047 196.86 85.417724609375 196.86 C 78.40511346522953 196.86 72.72027006392045 191.07104246400002 72.72027006392045 183.93 Z" stroke-miterlimit="10" stroke-dasharray=""/></g><g><path fill="none" stroke="#000000" paint-order="fill stroke markers" d=" M 85.417724609375 196.86 L 85.417724609375 222.14" stroke-miterlimit="10" stroke-dasharray=""/></g><g><path fill="none" stroke="#000000" paint-order="fill stroke markers" d=" M 71.97336097301135 206.34000000000003 L 98.86208824573865 206.34000000000003" stroke-miterlimit="10" stroke-dasharray=""/></g><g><path fill="none" stroke="#000000" paint-order="fill stroke markers" d=" M 85.417724609375 222.14 L 66.74499733664771 248" stroke-miterlimit="10" stroke-dasharray=""/></g><g><path fill="none" stroke="#000000" paint-order="fill stroke markers" d=" M 85.417724609375 222.14 L 104.09045188210229 248" stroke-miterlimit="10" stroke-dasharray=""/></g><g><g><path fill="none" stroke="none"/><text fill="#000000" stroke="none" font-family="Arial" font-size="13px" font-style="normal" font-weight="bold" text-decoration="undefined" x="171.917724609375" y="484.5" text-anchor="middle" dominant-baseline="central" transform="matrix(1 0 0 1 -86 -222)">Utente non autenticato</text></g></g><g><path fill="none" stroke="#000000" paint-order="fill stroke markers" d=" M 162 221 L 257 219" stroke-miterlimit="10" stroke-dasharray=""/></g><g><path fill="#ffffff" stroke="none" paint-order="stroke fill markers" d=" M 258 218 C 258 200.32688639999998 303.6669504 186 360 186 C 416.3330496 186 462 200.32688639999998 462 218 C 462 235.67311360000002 416.3330496 250 360 250 C 303.6669504 250 258 235.67311360000002 258 218 Z"/></g><g><path fill="none" stroke="#000000" paint-order="fill stroke markers" d=" M 258 218 C 258 200.32688639999998 303.6669504 186 360 186 C 416.3330496 186 462 200.32688639999998 462 218 C 462 235.67311360000002 416.3330496 250 360 250 C 303.6669504 250 258 235.67311360000002 258 218 Z" stroke-miterlimit="10" stroke-dasharray=""/></g><g><g><path fill="none" stroke="none"/><text fill="#000000" stroke="none" font-family="Arial" font-size="13px" font-style="normal" font-weight="bold" text-decoration="undefined" x="446" y="441" text-anchor="middle" dominant-baseline="central" transform="matrix(1 0 0 1 -86 -222)">UCF-1 Autenticazione</text></g></g><g><path fill="#ffffff" stroke="none" paint-order="stroke fill markers" d=" M 530 167 C 530 142.14718399999998 578.3532416 122 638 122 C 697.6467584 122 746 142.14718399999998 746 167 C 746 191.85281600000002 697.6467584 212 638 212 C 578.3532416 212 530 191.85281600000002 530 167 Z"/></g><g><path fill="none" stroke="#000000" paint-order="fill stroke markers" d=" M 530 167 C 530 142.14718399999998 578.3532416 122 638 122 C 697.6467584 122 746 142.14718399999998 746 167 C 746 191.85281600000002 697.6467584 212 638 212 C 578.3532416 212 530 191.85281600000002 530 167 Z" stroke-miterlimit="10" stroke-dasharray=""/></g><g><g><path fill="none" stroke="none"/><text fill="#000000" stroke="none" font-family="Arial" font-size="13px" font-style="normal" font-weight="bold" text-decoration="undefined" x="724" y="377" text-anchor="middle" dominant-baseline="central" transform="matrix(1 0 0 1 -86 -222)">UCE-1 Visualizzazione</text><text fill="#000000" stroke="none" font-family="Arial" font-size="13px" font-style="normal" font-weight="bold" text-decoration="undefined" x="724" y="390" text-anchor="middle" dominant-baseline="central" transform="matrix(1 0 0 1 -86 -222)">errore login standard</text><text fill="#000000" stroke="none" font-family="Arial" font-size="13px" font-style="normal" font-weight="bold" text-decoration="undefined" x="724" y="403" text-anchor="middle" dominant-baseline="central" transform="matrix(1 0 0 1 -86 -222)">non valido</text></g></g><g><path fill="#ffffff" stroke="none" paint-order="stroke fill markers" d=" M 530 278 C 530 258.1177472 578.3532416 242 638 242 C 697.6467584 242 746 258.1177472 746 278 C 746 297.88225279999995 697.6467584 314 638 314 C 578.3532416 314 530 297.88225279999995 530 278 Z"/></g><g><path fill="none" stroke="#000000" paint-order="fill stroke markers" d=" M 530 278 C 530 258.1177472 578.3532416 242 638 242 C 697.6467584 242 746 258.1177472 746 278 C 746 297.88225279999995 697.6467584 314 638 314 C 578.3532416 314 530 297.88225279999995 530 278 Z" stroke-miterlimit="10" stroke-dasharray=""/></g><g><g><path fill="none" stroke="none"/><text fill="#000000" stroke="none" font-family="Arial" font-size="13px" font-style="normal" font-weight="bold" text-decoration="undefined" x="724" y="494.5" text-anchor="middle" dominant-baseline="central" transform="matrix(1 0 0 1 -86 -222)">UCE-2 Visualizzazione</text><text fill="#000000" stroke="none" font-family="Arial" font-size="13px" font-style="normal" font-weight="bold" text-decoration="undefined" x="724" y="507.5" text-anchor="middle" dominant-baseline="central" transform="matrix(1 0 0 1 -86 -222)">errore pin non valido</text></g></g></g></svg>