<svg version="1.1" xmlns="http://www.w3.org/2000/svg" xmlns:xlink="http://www.w3.org/1999/xlink" width="1021.078125" height="412"><defs/><g><g><rect fill="#ffffff" stroke="none" x="328" y="232" width="600" height="392" transform="matrix(1 0 0 1 -86 -222)"/></g><g><path fill="none" stroke="#000000" paint-order="fill stroke markers" d=" M 242 10 L 842 10 L 842 402 L 242 402 L 242 10 Z Z" stroke-miterlimit="10" stroke-dasharray=""/></g><g><g><path fill="none" stroke="none"/><text fill="#000000" stroke="none" font-family="Arial" font-size="13px" font-style="normal" font-weight="bold" text-decoration="undefined" x="628.5" y="245.5" text-anchor="middle" dominant-baseline="central" transform="matrix(1 0 0 1 -86 -222)">Autenticazione</text></g></g><g><path fill="none" stroke="#000000" paint-order="fill stroke markers" d=" M 617 132 L 458 185" stroke-miterlimit="10" stroke-dasharray="3"/></g><g><path fill="none" stroke="#000000" paint-order="fill stroke markers" d=" M 466.3099935049528 177.79278084503858 L 458 185 L 468.97232629693906 185.77977922099745" stroke-miterlimit="10" stroke-dasharray=""/></g><g><rect fill="#ffffff" stroke="none" x="554" y="365" width="53.49169921875" height="13" transform="matrix(1 0 0 1 -86 -222)"/></g><g><g><path fill="none" stroke="none"/><text fill="#000000" stroke="none" font-family="Arial" font-size="13px" font-style="normal" font-weight="normal" text-decoration="undefined" x="580.745849609375" y="371.5" text-anchor="middle" dominant-baseline="central" transform="matrix(1 0 0 1 -86 -222)">«extend»</text></g></g><g><path fill="none" stroke="#000000" paint-order="fill stroke markers" d=" M 585 264 L 463 239" stroke-miterlimit="10" stroke-dasharray="3"/></g><g><path fill="none" stroke="#000000" paint-order="fill stroke markers" d=" M 473.800841625962 236.9162965252014 L 463 239 L 472.11074921325167 245.16394749922756" stroke-miterlimit="10" stroke-dasharray=""/></g><g><rect fill="#ffffff" stroke="none" x="526" y="481" width="53.49169921875" height="13" transform="matrix(1 0 0 1 -86 -222)"/></g><g><g><path fill="none" stroke="none"/><text fill="#000000" stroke="none" font-family="Arial" font-size="13px" font-style="normal" font-weight="normal" text-decoration="undefined" x="552.745849609375" y="487.5" text-anchor="middle" dominant-baseline="central" transform="matrix(1 0 0 1 -86 -222)">«extend»</text></g></g><g><path fill="#ffffff" stroke="none" paint-order="stroke fill markers" d=" M 442 330 L 599 330 L 609 340 L 609 380 L 442 380 L 442 330"/></g><g><path fill="none" stroke="#000000" paint-order="fill stroke markers" d=" M 442 330 L 599 330 L 609 340 L 609 380 L 442 380 L 442 330 L 442 330" stroke-miterlimit="10" stroke-dasharray=""/></g><g><path fill="none" stroke="#000000" paint-order="fill stroke markers" d=" M 599 330 L 599 340 L 609 340 L 599 330" stroke-miterlimit="10" stroke-dasharray=""/></g><g><g><path fill="none" stroke="none"/><text fill="#000000" stroke="none" font-family="Arial" font-size="13px" font-style="normal" font-weight="normal" text-decoration="undefined" x="533" y="557" text-anchor="start" dominant-baseline="text-before-edge" transform="matrix(1 0 0 1 -86 -222)">Condizione: l'utente non</text><text fill="#000000" stroke="none" font-family="Arial" font-size="13px" font-style="normal" font-weight="normal" text-decoration="undefined" x="533" y="570" text-anchor="start" dominant-baseline="text-before-edge" transform="matrix(1 0 0 1 -86 -222)">autenticato inserisce un</text><text fill="#000000" stroke="none" font-family="Arial" font-size="13px" font-style="normal" font-weight="normal" text-decoration="undefined" x="533" y="583" text-anchor="start" dominant-baseline="text-before-edge" transform="matrix(1 0 0 1 -86 -222)">valore errato per il pin</text></g></g><g><path fill="none" stroke="#000000" paint-order="fill stroke markers" d=" M 524 251 L 526 329" stroke-miterlimit="10" stroke-dasharray="3"/></g><g><path fill="#ffffff" stroke="none" paint-order="stroke fill markers" d=" M 426 58 L 575 58 L 585 68 L 585 121 L 426 121 L 426 58"/></g><g><path fill="none" stroke="#000000" paint-order="fill stroke markers" d=" M 426 58 L 575 58 L 585 68 L 585 121 L 426 121 L 426 58 L 426 58" stroke-miterlimit="10" stroke-dasharray=""/></g><g><path fill="none" stroke="#000000" paint-order="fill stroke markers" d=" M 575 58 L 575 68 L 585 68 L 575 58" stroke-miterlimit="10" stroke-dasharray=""/></g><g><g><path fill="none" stroke="none"/><text fill="#000000" stroke="none" font-family="Arial" font-size="13px" font-style="normal" font-weight="normal" text-decoration="undefined" x="517" y="285" text-anchor="start" dominant-baseline="text-before-edge" transform="matrix(1 0 0 1 -86 -222)">Condizione: l'utente non</text><text fill="#000000" stroke="none" font-family="Arial" font-size="13px" font-style="normal" font-weight="normal" text-decoration="undefined" x="517" y="298" text-anchor="start" dominant-baseline="text-before-edge" transform="matrix(1 0 0 1 -86 -222)">autenticato inserisce un</text><text fill="#000000" stroke="none" font-family="Arial" font-size="13px" font-style="normal" font-weight="normal" text-decoration="undefined" x="517" y="311" text-anchor="start" dominant-baseline="text-before-edge" transform="matrix(1 0 0 1 -86 -222)">nome utente errato</text></g></g><g><path fill="none" stroke="#000000" paint-order="fill stroke markers" d=" M 537 158 L 521 123" stroke-miterlimit="10" stroke-dasharray="3"/></g><g><path fill="#ffffff" stroke="none" paint-order="stroke fill markers" d=" M 72.72027006392045 183.93 C 72.72027006392045 176.788957536 78.40511346522953 171 85.417724609375 171 C 92.43033575352047 171 98.11517915482955 176.788957536 98.11517915482955 183.93 C 98.11517915482955 191.07104246400002 92.43033575352047 196.86 85.417724609375 196.86 C 78.40511346522953 196.86 72.72027006392045 191.07104246400002 72.72027006392045 183.93 Z"/></g><g><path fill="none" stroke="#000000" paint-order="fill stroke markers" d=" M 72.72027006392045 183.93 C 72.72027006392045 176.788957536 78.40511346522953 171 85.417724609375 171 C 92.43033575352047 171 98.11517915482955 176.788957536 98.11517915482955 183.93 C 98.11517915482955 191.07104246400002 92.43033575352047 196.86 85.417724609375 196.86 C 78.40511346522953 196.86 72.72027006392045 191.07104246400002 72.72027006392045 183.93 Z" stroke-miterlimit="10" stroke-dasharray=""/></g><g><path fill="none" stroke="#000000" paint-order="fill stroke markers" d=" M 85.417724609375 196.86 L 85.417724609375 222.14" stroke-miterlimit="10" stroke-dasharray=""/></g><g><path fill="none" stroke="#000000" paint-order="fill stroke markers" d=" M 71.97336097301135 206.34000000000003 L 98.86208824573865 206.34000000000003" stroke-miterlimit="10" stroke-dasharray=""/></g><g><path fill="none" stroke="#000000" paint-order="fill stroke markers" d=" M 85.417724609375 222.14 L 66.74499733664771 248" stroke-miterlimit="10" stroke-dasharray=""/></g><g><path fill="none" stroke="#000000" paint-order="fill stroke markers" d=" M 85.417724609375 222.14 L 104.09045188210229 248" stroke-miterlimit="10" stroke-dasharray=""/></g><g><g><path fill="none" stroke="none"/><text fill="#000000" stroke="none" font-family="Arial" font-size="13px" font-style="normal" font-weight="bold" text-decoration="undefined" x="171.917724609375" y="484.5" text-anchor="middle" dominant-baseline="central" transform="matrix(1 0 0 1 -86 -222)">Utente non autenticato</text></g></g><g><path fill="#ffffff" stroke="none" paint-order="stroke fill markers" d=" M 957.3416079545455 183.93 C 957.3416079545455 176.788957536 963.0264513558545 171 970.0390625 171 C 977.0516736441455 171 982.7365170454545 176.788957536 982.7365170454545 183.93 C 982.7365170454545 191.07104246400002 977.0516736441455 196.86 970.0390625 196.86 C 963.0264513558545 196.86 957.3416079545455 191.07104246400002 957.3416079545455 183.93 Z"/></g><g><path fill="none" stroke="#000000" paint-order="fill stroke markers" d=" M 957.3416079545455 183.93 C 957.3416079545455 176.788957536 963.0264513558545 171 970.0390625 171 C 977.0516736441455 171 982.7365170454545 176.788957536 982.7365170454545 183.93 C 982.7365170454545 191.07104246400002 977.0516736441455 196.86 970.0390625 196.86 C 963.0264513558545 196.86 957.3416079545455 191.07104246400002 957.3416079545455 183.93 Z" stroke-miterlimit="10" stroke-dasharray=""/></g><g><path fill="none" stroke="#000000" paint-order="fill stroke markers" d=" M 970.0390625 196.86 L 970.0390625 222.14" stroke-miterlimit="10" stroke-dasharray=""/></g><g><path fill="none" stroke="#000000" paint-order="fill stroke markers" d=" M 956.5946988636365 206.34000000000003 L 983.4834261363635 206.34000000000003" stroke-miterlimit="10" stroke-dasharray=""/></g><g><path fill="none" stroke="#000000" paint-order="fill stroke markers" d=" M 970.0390625 222.14 L 951.3663352272729 248" stroke-miterlimit="10" stroke-dasharray=""/></g><g><path fill="none" stroke="#000000" paint-order="fill stroke markers" d=" M 970.0390625 222.14 L 988.7117897727271 248" stroke-miterlimit="10" stroke-dasharray=""/></g><g><g><path fill="none" stroke="none"/><text fill="#000000" stroke="none" font-family="Arial" font-size="13px" font-style="normal" font-weight="bold" text-decoration="undefined" x="1056.5390625" y="484.5" text-anchor="middle" dominant-baseline="central" transform="matrix(1 0 0 1 -86 -222)">Back-office</text></g></g><g><path fill="none" stroke="#000000" paint-order="fill stroke markers" d=" M 162 221 L 257 219" stroke-miterlimit="10" stroke-dasharray=""/></g><g><path fill="none" stroke="#000000" paint-order="fill stroke markers" d=" M 463 219 L 929 222" stroke-miterlimit="10" stroke-dasharray=""/></g><g><path fill="#ffffff" stroke="none" paint-order="stroke fill markers" d=" M 258 218 C 258 200.32688639999998 303.6669504 186 360 186 C 416.3330496 186 462 200.32688639999998 462 218 C 462 235.67311360000002 416.3330496 250 360 250 C 303.6669504 250 258 235.67311360000002 258 218 Z"/></g><g><path fill="none" stroke="#000000" paint-order="fill stroke markers" d=" M 258 218 C 258 200.32688639999998 303.6669504 186 360 186 C 416.3330496 186 462 200.32688639999998 462 218 C 462 235.67311360000002 416.3330496 250 360 250 C 303.6669504 250 258 235.67311360000002 258 218 Z" stroke-miterlimit="10" stroke-dasharray=""/></g><g><g><path fill="none" stroke="none"/><text fill="#000000" stroke="none" font-family="Arial" font-size="13px" font-style="normal" font-weight="bold" text-decoration="undefined" x="446" y="441" text-anchor="middle" dominant-baseline="central" transform="matrix(1 0 0 1 -86 -222)">UCF-1 Autenticazione</text></g></g><g><path fill="#ffffff" stroke="none" paint-order="stroke fill markers" d=" M 618 95 C 618 70.14718399999998 666.3532416 50 726 50 C 785.6467584 50 834 70.14718399999998 834 95 C 834 119.85281600000002 785.6467584 140 726 140 C 666.3532416 140 618 119.85281600000002 618 95 Z"/></g><g><path fill="none" stroke="#000000" paint-order="fill stroke markers" d=" M 618 95 C 618 70.14718399999998 666.3532416 50 726 50 C 785.6467584 50 834 70.14718399999998 834 95 C 834 119.85281600000002 785.6467584 140 726 140 C 666.3532416 140 618 119.85281600000002 618 95 Z" stroke-miterlimit="10" stroke-dasharray=""/></g><g><g><path fill="none" stroke="none"/><text fill="#000000" stroke="none" font-family="Arial" font-size="13px" font-style="normal" font-weight="bold" text-decoration="undefined" x="812" y="305" text-anchor="middle" dominant-baseline="central" transform="matrix(1 0 0 1 -86 -222)">UCE-1 Visualizzazione</text><text fill="#000000" stroke="none" font-family="Arial" font-size="13px" font-style="normal" font-weight="bold" text-decoration="undefined" x="812" y="318" text-anchor="middle" dominant-baseline="central" transform="matrix(1 0 0 1 -86 -222)">errore login standard</text><text fill="#000000" stroke="none" font-family="Arial" font-size="13px" font-style="normal" font-weight="bold" text-decoration="undefined" x="812" y="331" text-anchor="middle" dominant-baseline="central" transform="matrix(1 0 0 1 -86 -222)">non valido</text></g></g><g><path fill="#ffffff" stroke="none" paint-order="stroke fill markers" d=" M 586 286 C 586 266.1177472 634.3532416 250 694 250 C 753.6467584 250 802 266.1177472 802 286 C 802 305.88225279999995 753.6467584 322 694 322 C 634.3532416 322 586 305.88225279999995 586 286 Z"/></g><g><path fill="none" stroke="#000000" paint-order="fill stroke markers" d=" M 586 286 C 586 266.1177472 634.3532416 250 694 250 C 753.6467584 250 802 266.1177472 802 286 C 802 305.88225279999995 753.6467584 322 694 322 C 634.3532416 322 586 305.88225279999995 586 286 Z" stroke-miterlimit="10" stroke-dasharray=""/></g><g><g><path fill="none" stroke="none"/><text fill="#000000" stroke="none" font-family="Arial" font-size="13px" font-style="normal" font-weight="bold" text-decoration="undefined" x="780" y="502.5" text-anchor="middle" dominant-baseline="central" transform="matrix(1 0 0 1 -86 -222)">UCE-2 Visualizzazione</text><text fill="#000000" stroke="none" font-family="Arial" font-size="13px" font-style="normal" font-weight="bold" text-decoration="undefined" x="780" y="515.5" text-anchor="middle" dominant-baseline="central" transform="matrix(1 0 0 1 -86 -222)">errore pin non valido</text></g></g></g></svg>