<?xml version="1.0" encoding="UTF-8" standalone="no"?>
<svg
   width="558.90002"
   height="273.89999"
   xml:space="preserve"
   version="1.1"
   id="svg11"
   sodipodi:docname="prova.svg"
   inkscape:version="1.3 (0e150ed6c4, 2023-07-21)"
   xmlns:inkscape="http://www.inkscape.org/namespaces/inkscape"
   xmlns:sodipodi="http://sodipodi.sourceforge.net/DTD/sodipodi-0.dtd"
   xmlns="http://www.w3.org/2000/svg"
   xmlns:svg="http://www.w3.org/2000/svg"><sodipodi:namedview
   id="namedview11"
   pagecolor="#ffffff"
   bordercolor="#000000"
   borderopacity="0.25"
   inkscape:showpageshadow="2"
   inkscape:pageopacity="0.0"
   inkscape:pagecheckerboard="0"
   inkscape:deskcolor="#d1d1d1"
   inkscape:zoom="1.2659647"
   inkscape:cx="63.982827"
   inkscape:cy="274.49423"
   inkscape:window-width="3200"
   inkscape:window-height="1711"
   inkscape:window-x="-9"
   inkscape:window-y="-9"
   inkscape:window-maximized="1"
   inkscape:current-layer="g11" />&#10;    <defs
   id="defs11">&#10;        <linearGradient
   y2="6.0175085"
   x2="204.78236"
   y1="228.46136"
   x1="29.586168"
   id="SVGID_1_"
   gradientTransform="scale(0.85619888,1.1679529)"
   gradientUnits="userSpaceOnUse">&#10;            <stop
   stop-color="#FFA87B"
   offset="0"
   id="stop1" />&#10;            <stop
   stop-color="#F35C6E"
   offset="1"
   id="stop2" />&#10;        </linearGradient>&#10;        <linearGradient
   y2="311.98404"
   x2="213.04008"
   y1="45.99144"
   x1="66.535278"
   id="SVGID_2_"
   gradientTransform="scale(1.0238278,0.97672675)"
   gradientUnits="userSpaceOnUse">&#10;            <stop
   stop-color="#5C3E84"
   offset="0.07"
   id="stop3" />&#10;            <stop
   stop-color="#604FA6"
   offset="0.31"
   id="stop4" />&#10;            <stop
   stop-color="#6460C7"
   offset="0.6"
   id="stop5" />&#10;            <stop
   stop-color="#676ADB"
   offset="0.84"
   id="stop6" />&#10;            <stop
   stop-color="#686EE2"
   offset="1"
   id="stop7" />&#10;        </linearGradient>&#10;        <linearGradient
   y2="210.64793"
   x2="467.99969"
   y1="65.163307"
   x1="283.57382"
   id="SVGID_3_"
   gradientTransform="scale(1.1689299,0.85548326)"
   gradientUnits="userSpaceOnUse">&#10;            <stop
   stop-color="#FFA87B"
   offset="0"
   id="stop8" />&#10;            <stop
   stop-color="#F35C6E"
   offset="1"
   id="stop9" />&#10;        </linearGradient>&#10;        <linearGradient
   y2="298.02402"
   x2="528.02576"
   y1="95.388794"
   x1="386.21426"
   id="SVGID_4_"
   gradientTransform="scale(0.97664772,1.0239106)"
   gradientUnits="userSpaceOnUse">&#10;            <stop
   stop-color="#5C3E84"
   offset="0"
   id="stop10" />&#10;            <stop
   stop-color="#686EE2"
   offset="1"
   id="stop11" />&#10;        </linearGradient>&#10;    </defs>&#10;    <g
   id="g11">&#10;        <title
   id="title11">Layer 1</title>&#10;        <path
   id="svg_1"
   fill="url(#SVGID_1_)"
   d="m 174.5,6.5 1.7,1 C 199.6,21 207.7,51 194.1,74.4 l -101,174.9 c -13.5,23.4 -43.5,31.5 -66.9,17.9 l -1.7,-1 C 1,252.8 -7,222.8 6.5,199.4 L 107.5,24.5 C 121.1,1 151,-7 174.5,6.5 Z"
   class="st0"
   style="fill:url(#SVGID_1_)" />&#10;        <path
   stroke="null"
   id="svg_2"
   fill="url(#SVGID_2_)"
   d="M 294.1,199.4 193.1,24.5 C 179.5,1.1 149.6,-6.9 126.2,6.5 l -1.7,1 c -9,5.2 -16,13.1 -20.2,22.5 L 13.6,187.5 c 27.5,-47.6 89,-64.1 136.6,-36.6 v 0 l 0.2,-0.4 57.1,98.9 c 13.6,23.4 43.5,31.4 66.9,17.9 l 1.7,-1 c 23.5,-13.5 31.5,-43.5 18,-66.9 z"
   class="st1"
   style="fill:url(#SVGID_2_)" />&#10;        <path
   id="svg_3"
   fill="url(#SVGID_3_)"
   d="M 535.5,97.5 377.7,6.4 c -21.8,-12.5 -49.6,-5 -62.2,16.7 v 0 c -4.2,7.4 -6.3,15.8 -6,24.2 l -0.1,0.6 v 48 c 0,22.1 17.9,40 40,40 14.5,0 27.9,-7.9 34.9,-20.5 l 105.7,61 c 21.8,12.5 49.6,5.1 62.2,-16.7 v 0 c 12.5,-21.8 5,-49.6 -16.7,-62.2 z"
   class="st2"
   style="fill:url(#SVGID_3_)" />&#10;        <path
   id="svg_4"
   fill="url(#SVGID_4_)"
   d="m 552.6,115 -0.9,-1.6 C 547,105.2 539.8,98.8 531.2,95 L 387.8,12.4 c 43.4,25 58.4,81 33.3,124.4 v 0 l 0.4,0.2 -90.1,52 c -21.3,12.4 -28.6,39.6 -16.3,61 l 0.9,1.6 c 12.4,21.3 39.6,28.6 61,16.3 l 159.3,-92 c 21.3,-12.3 28.5,-39.6 16.3,-60.9 z"
   class="st3"
   style="fill:url(#SVGID_4_)" />&#10;        &#10;        &#10;        &#10;        &#10;        &#10;    </g>&#10;</svg>
