<svg version="1.1" xmlns="http://www.w3.org/2000/svg" xmlns:xlink="http://www.w3.org/1999/xlink" width="221.8232421875" height="151"><defs/><g><g><rect fill="#ffffff" stroke="none" x="948" y="589" width="200.8232421875" height="131" transform="matrix(1 0 0 1 -938 -579)"/></g><g><path fill="none" stroke="#000000" paint-order="fill stroke markers" d=" M 10 10 L 210.8232421875 10 L 210.8232421875 141 L 10 141 L 10 10 Z Z" stroke-miterlimit="10" stroke-dasharray=""/></g><g><path fill="none" stroke="#000000" paint-order="fill stroke markers" d=" M 10 35 L 211.8232421875 35" stroke-miterlimit="10" stroke-dasharray=""/></g><g><path fill="none" stroke="#000000" paint-order="fill stroke markers" d=" M 10 88 L 211.8232421875 88" stroke-miterlimit="10" stroke-dasharray=""/></g><g><g><path fill="none" stroke="none"/><text fill="#000000" stroke="none" font-family="Arial" font-size="13px" font-style="normal" font-weight="bold" text-decoration="undefined" x="1048.91162109375" y="602.5" text-anchor="middle" dominant-baseline="central" transform="matrix(1 0 0 1 -938 -579)">LoadingService</text></g></g><g><g><path fill="none" stroke="none"/><text fill="#000000" stroke="none" font-family="Arial" font-size="13px" font-style="normal" font-weight="normal" text-decoration="undefined" x="953" y="625.5" text-anchor="start" dominant-baseline="central" transform="matrix(1 0 0 1 -938 -579)">«get»-loading: Subject&lt;boolean&gt;</text></g></g><g><g><path fill="none" stroke="none"/><text fill="#000000" stroke="none" font-family="Arial" font-size="13px" font-style="normal" font-weight="normal" text-decoration="undefined" x="953" y="640.5" text-anchor="start" dominant-baseline="central" transform="matrix(1 0 0 1 -938 -579)">-logModifierLoading: boolean</text></g></g><g><g><path fill="none" stroke="none"/><text fill="#000000" stroke="none" font-family="Arial" font-size="13px" font-style="normal" font-weight="normal" text-decoration="undefined" x="953" y="655.5" text-anchor="start" dominant-baseline="central" transform="matrix(1 0 0 1 -938 -579)">-logViewerLoading: boolean</text></g></g><g><g><path fill="none" stroke="none"/><text fill="#000000" stroke="none" font-family="Arial" font-size="13px" font-style="normal" font-weight="normal" text-decoration="undefined" x="953" y="678.5" text-anchor="start" dominant-baseline="central" transform="matrix(1 0 0 1 -938 -579)">+stopModifierLoading(): void</text></g></g><g><g><path fill="none" stroke="none"/><text fill="#000000" stroke="none" font-family="Arial" font-size="13px" font-style="normal" font-weight="normal" text-decoration="undefined" x="953" y="693.5" text-anchor="start" dominant-baseline="central" transform="matrix(1 0 0 1 -938 -579)">+stopViewerLoading(): void</text></g></g><g><g><path fill="none" stroke="none"/><text fill="#000000" stroke="none" font-family="Arial" font-size="13px" font-style="normal" font-weight="normal" text-decoration="undefined" x="953" y="708.5" text-anchor="start" dominant-baseline="central" transform="matrix(1 0 0 1 -938 -579)">+reset(): void</text></g></g></g></svg>