<svg version="1.1" xmlns="http://www.w3.org/2000/svg" xmlns:xlink="http://www.w3.org/1999/xlink" width="875.41162109375" height="794"><defs/><g><g><rect fill="#ffffff" stroke="none" x="878" y="850" width="642.66455078125" height="112" transform="matrix(1 0 0 1 -783 -178)"/></g><g><path fill="none" stroke="#000000" paint-order="fill stroke markers" d=" M 95 672 L 737.66455078125 672 L 737.66455078125 784 L 95 784 L 95 672 Z Z" stroke-miterlimit="10" stroke-dasharray=""/></g><g><path fill="none" stroke="#000000" paint-order="fill stroke markers" d=" M 95 697 L 738.66455078125 697" stroke-miterlimit="10" stroke-dasharray=""/></g><g><path fill="none" stroke="#000000" paint-order="fill stroke markers" d=" M 95 735 L 738.66455078125 735" stroke-miterlimit="10" stroke-dasharray=""/></g><g><g><path fill="none" stroke="none"/><text fill="#000000" stroke="none" font-family="Arial" font-size="13px" font-style="normal" font-weight="bold" text-decoration="undefined" x="1199.832275390625" y="863.5" text-anchor="middle" dominant-baseline="central" transform="matrix(1 0 0 1 -783 -178)">AuthenticationService</text></g></g><g><g><path fill="none" stroke="none"/><text fill="#000000" stroke="none" font-family="Arial" font-size="13px" font-style="normal" font-weight="normal" text-decoration="undefined" x="883" y="886.5" text-anchor="start" dominant-baseline="central" transform="matrix(1 0 0 1 -783 -178)">+LoginPath: string {readOnly}</text><path fill="none" stroke="#000000" paint-order="fill stroke markers" d=" M 100 715 L 270.19970703125 715" stroke-miterlimit="10" stroke-dasharray=""/></g></g><g><g><path fill="none" stroke="none"/><text fill="#000000" stroke="none" font-family="Arial" font-size="13px" font-style="normal" font-weight="normal" text-decoration="undefined" x="883" y="901.5" text-anchor="start" dominant-baseline="central" transform="matrix(1 0 0 1 -783 -178)">+LogoutPath: string {readOnly}</text><path fill="none" stroke="#000000" paint-order="fill stroke markers" d=" M 100 730 L 278.1533203125 730" stroke-miterlimit="10" stroke-dasharray=""/></g></g><g><g><path fill="none" stroke="none"/><text fill="#000000" stroke="none" font-family="Arial" font-size="13px" font-style="normal" font-weight="normal" text-decoration="undefined" x="883" y="924.5" text-anchor="start" dominant-baseline="central" transform="matrix(1 0 0 1 -783 -178)">+login$Response(params: Login$Params, context?: HttpContext): Observable&lt;StrictHttpResponse&lt;{token}&gt;&gt;</text></g></g><g><g><path fill="none" stroke="none"/><text fill="#000000" stroke="none" font-family="Arial" font-size="13px" font-style="normal" font-weight="normal" text-decoration="undefined" x="883" y="939.5" text-anchor="start" dominant-baseline="central" transform="matrix(1 0 0 1 -783 -178)">+login(params: Login$Params, context?: HttpContext): Observable&lt;{ token? }&gt;</text></g></g><g><rect fill="#ffffff" stroke="none" x="817" y="716" width="792" height="99" transform="matrix(1 0 0 1 -783 -178)"/></g><g><path fill="none" stroke="#000000" paint-order="fill stroke markers" d=" M 34 538 L 826 538 L 826 637 L 34 637 L 34 538 Z Z" stroke-miterlimit="10" stroke-dasharray=""/></g><g><path fill="none" stroke="#000000" paint-order="fill stroke markers" d=" M 34 563 L 827 563" stroke-miterlimit="10" stroke-dasharray=""/></g><g><path fill="none" stroke="#000000" paint-order="fill stroke markers" d=" M 34 586 L 827 586" stroke-miterlimit="10" stroke-dasharray=""/></g><g><g><path fill="none" stroke="none"/><text fill="#000000" stroke="none" font-family="Arial" font-size="13px" font-style="normal" font-weight="bold" text-decoration="undefined" x="1213.5" y="729.5" text-anchor="middle" dominant-baseline="central" transform="matrix(1 0 0 1 -783 -178)">OperatorsService</text></g></g><g><g><path fill="none" stroke="none"/><text fill="#000000" stroke="none" font-family="Arial" font-size="13px" font-style="normal" font-weight="normal" text-decoration="undefined" x="822" y="752.5" text-anchor="start" dominant-baseline="central" transform="matrix(1 0 0 1 -783 -178)">+Fetch_2Path: string {readOnly}</text><path fill="none" stroke="#000000" paint-order="fill stroke markers" d=" M 39 581 L 224.3642578125 581" stroke-miterlimit="10" stroke-dasharray=""/></g></g><g><g><path fill="none" stroke="none"/><text fill="#000000" stroke="none" font-family="Arial" font-size="13px" font-style="normal" font-weight="normal" text-decoration="undefined" x="822" y="782" text-anchor="start" dominant-baseline="central" transform="matrix(1 0 0 1 -783 -178)">+fetch$Response(params: Fetch$Params, context?: HttpContext): Observable&lt;StrictHttpResponse&lt;FetchResponseOperatorsModel&gt;&gt;</text></g></g><g><g><path fill="none" stroke="none"/><text fill="#000000" stroke="none" font-family="Arial" font-size="13px" font-style="normal" font-weight="normal" text-decoration="undefined" x="822" y="803.5" text-anchor="start" dominant-baseline="central" transform="matrix(1 0 0 1 -783 -178)">+fetch(params: Fetch$Params, context?: HttpContext): Observable&lt;FetchResponseOperatorsModel&gt;</text></g></g><g><rect fill="#ffffff" stroke="none" x="801" y="444" width="846.41162109375" height="86" transform="matrix(1 0 0 1 -783 -178)"/></g><g><path fill="none" stroke="#000000" paint-order="fill stroke markers" d=" M 18 266 L 864.41162109375 266 L 864.41162109375 352 L 18 352 L 18 266 Z Z" stroke-miterlimit="10" stroke-dasharray=""/></g><g><path fill="none" stroke="#000000" paint-order="fill stroke markers" d=" M 18 291 L 865.41162109375 291" stroke-miterlimit="10" stroke-dasharray=""/></g><g><path fill="none" stroke="#000000" paint-order="fill stroke markers" d=" M 18 314 L 865.41162109375 314" stroke-miterlimit="10" stroke-dasharray=""/></g><g><g><path fill="none" stroke="none"/><text fill="#000000" stroke="none" font-family="Arial" font-size="13px" font-style="normal" font-weight="bold" text-decoration="undefined" x="1224.705810546875" y="457.5" text-anchor="middle" dominant-baseline="central" transform="matrix(1 0 0 1 -783 -178)">QualityAttributeService</text></g></g><g><g><path fill="none" stroke="none"/><text fill="#000000" stroke="none" font-family="Arial" font-size="13px" font-style="normal" font-weight="normal" text-decoration="undefined" x="806" y="480.5" text-anchor="start" dominant-baseline="central" transform="matrix(1 0 0 1 -783 -178)">+Fetch_2Path: string {readOnly}</text><path fill="none" stroke="#000000" paint-order="fill stroke markers" d=" M 23 309 L 208.3642578125 309" stroke-miterlimit="10" stroke-dasharray=""/></g></g><g><g><path fill="none" stroke="none"/><text fill="#000000" stroke="none" font-family="Arial" font-size="13px" font-style="normal" font-weight="normal" text-decoration="undefined" x="806" y="503.5" text-anchor="start" dominant-baseline="central" transform="matrix(1 0 0 1 -783 -178)">+fetch_3$Response(params: Fetch_3$Params, context?: HttpContext): Observable&lt;StrictHttpResponse&lt;FetchResponseQualityattributeModel&gt;&gt;</text></g></g><g><g><path fill="none" stroke="none"/><text fill="#000000" stroke="none" font-family="Arial" font-size="13px" font-style="normal" font-weight="normal" text-decoration="undefined" x="806" y="518.5" text-anchor="start" dominant-baseline="central" transform="matrix(1 0 0 1 -783 -178)">+fetch_3(params: Fetch_3$Params, context?: HttpContext): Observable&lt;FetchResponseQualityattributeModel&gt;</text></g></g><g><rect fill="#ffffff" stroke="none" x="809" y="572" width="834.85888671875" height="86" transform="matrix(1 0 0 1 -783 -178)"/></g><g><path fill="none" stroke="#000000" paint-order="fill stroke markers" d=" M 26 394 L 860.85888671875 394 L 860.85888671875 480 L 26 480 L 26 394 Z Z" stroke-miterlimit="10" stroke-dasharray=""/></g><g><path fill="none" stroke="#000000" paint-order="fill stroke markers" d=" M 26 419 L 861.85888671875 419" stroke-miterlimit="10" stroke-dasharray=""/></g><g><path fill="none" stroke="#000000" paint-order="fill stroke markers" d=" M 26 442 L 861.85888671875 442" stroke-miterlimit="10" stroke-dasharray=""/></g><g><g><path fill="none" stroke="none"/><text fill="#000000" stroke="none" font-family="Arial" font-size="13px" font-style="normal" font-weight="bold" text-decoration="undefined" x="1226.929443359375" y="585.5" text-anchor="middle" dominant-baseline="central" transform="matrix(1 0 0 1 -783 -178)">QualityPhaseService</text></g></g><g><g><path fill="none" stroke="none"/><text fill="#000000" stroke="none" font-family="Arial" font-size="13px" font-style="normal" font-weight="normal" text-decoration="undefined" x="814" y="608.5" text-anchor="start" dominant-baseline="central" transform="matrix(1 0 0 1 -783 -178)">+Fetch_2Path: string {readOnly}</text><path fill="none" stroke="#000000" paint-order="fill stroke markers" d=" M 31 437 L 216.3642578125 437" stroke-miterlimit="10" stroke-dasharray=""/></g></g><g><g><path fill="none" stroke="none"/><text fill="#000000" stroke="none" font-family="Arial" font-size="13px" font-style="normal" font-weight="normal" text-decoration="undefined" x="814" y="631.5" text-anchor="start" dominant-baseline="central" transform="matrix(1 0 0 1 -783 -178)">+fetch_2$Response(params: Fetch_2$Params, context?: HttpContext): Observable&lt;StrictHttpResponse&lt;FetchResponseQualityphaseModel&gt;&gt;</text></g></g><g><g><path fill="none" stroke="none"/><text fill="#000000" stroke="none" font-family="Arial" font-size="13px" font-style="normal" font-weight="normal" text-decoration="undefined" x="814" y="646.5" text-anchor="start" dominant-baseline="central" transform="matrix(1 0 0 1 -783 -178)">+fetch_2(params: Fetch_2$Params, context?: HttpContext): Observable&lt;FetchResponseQualityphaseModel&gt;</text></g></g><g><rect fill="#ffffff" stroke="none" x="793" y="188" width="844.2470703125" height="221" transform="matrix(1 0 0 1 -783 -178)"/></g><g><path fill="none" stroke="#000000" paint-order="fill stroke markers" d=" M 10 10 L 854.2470703125 10 L 854.2470703125 231 L 10 231 L 10 10 Z Z" stroke-miterlimit="10" stroke-dasharray=""/></g><g><path fill="none" stroke="#000000" paint-order="fill stroke markers" d=" M 10 35 L 855.2470703125 35" stroke-miterlimit="10" stroke-dasharray=""/></g><g><path fill="none" stroke="#000000" paint-order="fill stroke markers" d=" M 10 103 L 855.2470703125 103" stroke-miterlimit="10" stroke-dasharray=""/></g><g><g><path fill="none" stroke="none"/><text fill="#000000" stroke="none" font-family="Arial" font-size="13px" font-style="normal" font-weight="bold" text-decoration="undefined" x="1215.62353515625" y="201.5" text-anchor="middle" dominant-baseline="central" transform="matrix(1 0 0 1 -783 -178)">QualitySaveLogService</text></g></g><g><g><path fill="none" stroke="none"/><text fill="#000000" stroke="none" font-family="Arial" font-size="13px" font-style="normal" font-weight="normal" text-decoration="undefined" x="798" y="224.5" text-anchor="start" dominant-baseline="central" transform="matrix(1 0 0 1 -783 -178)">+AddPath: string {readOnly}</text><path fill="none" stroke="#000000" paint-order="fill stroke markers" d=" M 15 53 L 176.5224609375 53" stroke-miterlimit="10" stroke-dasharray=""/></g></g><g><g><path fill="none" stroke="none"/><text fill="#000000" stroke="none" font-family="Arial" font-size="13px" font-style="normal" font-weight="normal" text-decoration="undefined" x="798" y="239.5" text-anchor="start" dominant-baseline="central" transform="matrix(1 0 0 1 -783 -178)">+DeletePath: string {readOnly}</text><path fill="none" stroke="#000000" paint-order="fill stroke markers" d=" M 15 68 L 190.9697265625 68" stroke-miterlimit="10" stroke-dasharray=""/></g></g><g><g><path fill="none" stroke="none"/><text fill="#000000" stroke="none" font-family="Arial" font-size="13px" font-style="normal" font-weight="normal" text-decoration="undefined" x="798" y="254.5" text-anchor="start" dominant-baseline="central" transform="matrix(1 0 0 1 -783 -178)">+UpdatePath: string {readOnly}</text><path fill="none" stroke="#000000" paint-order="fill stroke markers" d=" M 15 83 L 195.3115234375 83" stroke-miterlimit="10" stroke-dasharray=""/></g></g><g><g><path fill="none" stroke="none"/><text fill="#000000" stroke="none" font-family="Arial" font-size="13px" font-style="normal" font-weight="normal" text-decoration="undefined" x="798" y="269.5" text-anchor="start" dominant-baseline="central" transform="matrix(1 0 0 1 -783 -178)">+Fetch_1Path: string {readOnly}</text><path fill="none" stroke="#000000" paint-order="fill stroke markers" d=" M 15 98 L 200.3642578125 98" stroke-miterlimit="10" stroke-dasharray=""/></g></g><g><g><path fill="none" stroke="none"/><text fill="#000000" stroke="none" font-family="Arial" font-size="13px" font-style="normal" font-weight="normal" text-decoration="undefined" x="798" y="292.5" text-anchor="start" dominant-baseline="central" transform="matrix(1 0 0 1 -783 -178)">+Add$Response(params: Add$Params, context?: HttpContext): Observable&lt;StrictHttpResponse&lt;QualitysavelogModel&gt;&gt;</text></g></g><g><g><path fill="none" stroke="none"/><text fill="#000000" stroke="none" font-family="Arial" font-size="13px" font-style="normal" font-weight="normal" text-decoration="undefined" x="798" y="307.5" text-anchor="start" dominant-baseline="central" transform="matrix(1 0 0 1 -783 -178)">+Add(params: Add$Params, context?: HttpContext): Observable&lt;QualitysavelogModel&gt;</text></g></g><g><g><path fill="none" stroke="none"/><text fill="#000000" stroke="none" font-family="Arial" font-size="13px" font-style="normal" font-weight="normal" text-decoration="undefined" x="798" y="322.5" text-anchor="start" dominant-baseline="central" transform="matrix(1 0 0 1 -783 -178)">+Delete$Response(params: Delete$Params, context?: HttpContext): Observable&lt;StrictHttpResponse&lt;QualitysavelogModel&gt;&gt;</text></g></g><g><g><path fill="none" stroke="none"/><text fill="#000000" stroke="none" font-family="Arial" font-size="13px" font-style="normal" font-weight="normal" text-decoration="undefined" x="798" y="337.5" text-anchor="start" dominant-baseline="central" transform="matrix(1 0 0 1 -783 -178)">+Delete(params: Delete$Params, context?: HttpContext): Observable&lt;QualitysavelogModel&gt;</text></g></g><g><g><path fill="none" stroke="none"/><text fill="#000000" stroke="none" font-family="Arial" font-size="13px" font-style="normal" font-weight="normal" text-decoration="undefined" x="798" y="352.5" text-anchor="start" dominant-baseline="central" transform="matrix(1 0 0 1 -783 -178)">+fetch_1$Response(params: Fetch_1$Params, context?: HttpContext): Observable&lt;StrictHttpResponse&lt;FetchResponseQualitysavelogModel&gt;&gt;</text></g></g><g><g><path fill="none" stroke="none"/><text fill="#000000" stroke="none" font-family="Arial" font-size="13px" font-style="normal" font-weight="normal" text-decoration="undefined" x="798" y="367.5" text-anchor="start" dominant-baseline="central" transform="matrix(1 0 0 1 -783 -178)">+fetch_1(params: Fetch_1$Params, context?: HttpContext): Observable&lt;FetchResponseQualitysavelogModel&gt;</text></g></g><g><g><path fill="none" stroke="none"/><text fill="#000000" stroke="none" font-family="Arial" font-size="13px" font-style="normal" font-weight="normal" text-decoration="undefined" x="798" y="382.5" text-anchor="start" dominant-baseline="central" transform="matrix(1 0 0 1 -783 -178)">+Update$Response(params: Update$Params, context?: HttpContext): Observable&lt;StrictHttpResponse&lt;QualitysavelogModel&gt;&gt;</text></g></g><g><g><path fill="none" stroke="none"/><text fill="#000000" stroke="none" font-family="Arial" font-size="13px" font-style="normal" font-weight="normal" text-decoration="undefined" x="798" y="397.5" text-anchor="start" dominant-baseline="central" transform="matrix(1 0 0 1 -783 -178)">+Update(params: Update$Params, context?: HttpContext): Observable&lt;QualitysavelogModel&gt;</text></g></g></g></svg>