<svg version="1.1" xmlns="http://www.w3.org/2000/svg" xmlns:xlink="http://www.w3.org/1999/xlink" width="613" height="348"><defs/><g><g><rect fill="#ffffff" stroke="none" x="264" y="168" width="424" height="328" transform="matrix(1 0 0 1 -86 -158)"/></g><g><path fill="none" stroke="#000000" paint-order="fill stroke markers" d=" M 178 10 L 602 10 L 602 338 L 178 338 L 178 10 Z Z" stroke-miterlimit="10" stroke-dasharray=""/></g><g><g><path fill="none" stroke="none"/><text fill="#000000" stroke="none" font-family="Arial" font-size="13px" font-style="normal" font-weight="bold" text-decoration="undefined" x="476.5" y="181.5" text-anchor="middle" dominant-baseline="central" transform="matrix(1 0 0 1 -86 -158)">Aggiornamento log</text></g></g><g><path fill="#ffffff" stroke="none" paint-order="stroke fill markers" d=" M 242 278 C 242 262.5360256 295.94968159999996 250 362.5 250 C 429.05031840000004 250 483 262.5360256 483 278 C 483 293.4639744 429.05031840000004 306 362.5 306 C 295.94968159999996 306 242 293.4639744 242 278 Z"/></g><g><path fill="none" stroke="#000000" paint-order="fill stroke markers" d=" M 242 278 C 242 262.5360256 295.94968159999996 250 362.5 250 C 429.05031840000004 250 483 262.5360256 483 278 C 483 293.4639744 429.05031840000004 306 362.5 306 C 295.94968159999996 306 242 293.4639744 242 278 Z" stroke-miterlimit="10" stroke-dasharray=""/></g><g><g><path fill="none" stroke="none"/><text fill="#000000" stroke="none" font-family="Arial" font-size="13px" font-style="normal" font-weight="bold" text-decoration="undefined" x="448.5" y="437" text-anchor="middle" dominant-baseline="central" transform="matrix(1 0 0 1 -86 -158)">UCF-8 Aggiornamento log</text></g></g><g><path fill="#ffffff" stroke="none" paint-order="stroke fill markers" d=" M 234 102 C 234 82.1177472 291.3075456 66 362 66 C 432.6924544 66 490 82.1177472 490 102 C 490 121.8822528 432.6924544 138 362 138 C 291.3075456 138 234 121.8822528 234 102 Z"/></g><g><path fill="none" stroke="#000000" paint-order="fill stroke markers" d=" M 234 102 C 234 82.1177472 291.3075456 66 362 66 C 432.6924544 66 490 82.1177472 490 102 C 490 121.8822528 432.6924544 138 362 138 C 291.3075456 138 234 121.8822528 234 102 Z" stroke-miterlimit="10" stroke-dasharray=""/></g><g><g><path fill="none" stroke="none"/><text fill="#000000" stroke="none" font-family="Arial" font-size="13px" font-style="normal" font-weight="bold" text-decoration="undefined" x="448" y="248" text-anchor="middle" dominant-baseline="central" transform="matrix(1 0 0 1 -86 -158)">UCE-8 Visualizzazione</text><text fill="#000000" stroke="none" font-family="Arial" font-size="13px" font-style="normal" font-weight="bold" text-decoration="undefined" x="448" y="261" text-anchor="middle" dominant-baseline="central" transform="matrix(1 0 0 1 -86 -158)">errore server</text><text fill="#000000" stroke="none" font-family="Arial" font-size="13px" font-style="normal" font-weight="bold" text-decoration="undefined" x="448" y="274" text-anchor="middle" dominant-baseline="central" transform="matrix(1 0 0 1 -86 -158)">aggiornamento log</text></g></g><g><path fill="none" stroke="#000000" paint-order="fill stroke markers" d=" M 362 139 L 362 249" stroke-miterlimit="10" stroke-dasharray="3"/></g><g><path fill="none" stroke="#000000" paint-order="fill stroke markers" d=" M 357.790482243984 238.83732514237585 L 362 249 L 366.209517756016 238.83732514237585" stroke-miterlimit="10" stroke-dasharray=""/></g><g><rect fill="#ffffff" stroke="none" x="391" y="359" width="53.49169921875" height="13" transform="matrix(1 0 0 1 -86 -158)"/></g><g><g><path fill="none" stroke="none"/><text fill="#000000" stroke="none" font-family="Arial" font-size="13px" font-style="normal" font-weight="normal" text-decoration="undefined" x="417.745849609375" y="365.5" text-anchor="middle" dominant-baseline="central" transform="matrix(1 0 0 1 -86 -158)">«extend»</text></g></g><g><path fill="#ffffff" stroke="none" paint-order="stroke fill markers" d=" M 62.860439453125 251.85000000000002 C 62.860439453125 246.96227952000004 66.81824182112499 243 71.700439453125 243 C 76.58263708512501 243 80.540439453125 246.96227952000004 80.540439453125 251.85000000000002 C 80.540439453125 256.73772048 76.58263708512501 260.7 71.700439453125 260.7 C 66.81824182112499 260.7 62.860439453125 256.73772048 62.860439453125 251.85000000000002 Z"/></g><g><path fill="none" stroke="#000000" paint-order="fill stroke markers" d=" M 62.860439453125 251.85000000000002 C 62.860439453125 246.96227952000004 66.81824182112499 243 71.700439453125 243 C 76.58263708512501 243 80.540439453125 246.96227952000004 80.540439453125 251.85000000000002 C 80.540439453125 256.73772048 76.58263708512501 260.7 71.700439453125 260.7 C 66.81824182112499 260.7 62.860439453125 256.73772048 62.860439453125 251.85000000000002 Z" stroke-miterlimit="10" stroke-dasharray=""/></g><g><path fill="none" stroke="#000000" paint-order="fill stroke markers" d=" M 71.700439453125 260.7 L 71.700439453125 278.3" stroke-miterlimit="10" stroke-dasharray=""/></g><g><path fill="none" stroke="#000000" paint-order="fill stroke markers" d=" M 62.340439453124986 267.3 L 81.06043945312501 267.3" stroke-miterlimit="10" stroke-dasharray=""/></g><g><path fill="none" stroke="#000000" paint-order="fill stroke markers" d=" M 71.700439453125 278.3 L 58.700439453125 296" stroke-miterlimit="10" stroke-dasharray=""/></g><g><path fill="none" stroke="#000000" paint-order="fill stroke markers" d=" M 71.700439453125 278.3 L 84.700439453125 296" stroke-miterlimit="10" stroke-dasharray=""/></g><g><g><path fill="none" stroke="none"/><text fill="#000000" stroke="none" font-family="Arial" font-size="13px" font-style="normal" font-weight="bold" text-decoration="undefined" x="158.200439453125" y="468.5" text-anchor="middle" dominant-baseline="central" transform="matrix(1 0 0 1 -86 -158)">Utente autenticato</text></g></g><g><path fill="none" stroke="#000000" paint-order="fill stroke markers" d=" M 134 281 L 241 280" stroke-miterlimit="10" stroke-dasharray=""/></g><g><path fill="#ffffff" stroke="none" paint-order="stroke fill markers" d=" M 426 170 L 567 170 L 577 180 L 577 216 L 426 216 L 426 170"/></g><g><path fill="none" stroke="#000000" paint-order="fill stroke markers" d=" M 426 170 L 567 170 L 577 180 L 577 216 L 426 216 L 426 170 L 426 170" stroke-miterlimit="10" stroke-dasharray=""/></g><g><path fill="none" stroke="#000000" paint-order="fill stroke markers" d=" M 567 170 L 567 180 L 577 180 L 567 170" stroke-miterlimit="10" stroke-dasharray=""/></g><g><g><path fill="none" stroke="none"/><text fill="#000000" stroke="none" font-family="Arial" font-size="13px" font-style="normal" font-weight="normal" text-decoration="undefined" x="517" y="333" text-anchor="start" dominant-baseline="text-before-edge" transform="matrix(1 0 0 1 -86 -158)">Condizione: il backend</text><text fill="#000000" stroke="none" font-family="Arial" font-size="13px" font-style="normal" font-weight="normal" text-decoration="undefined" x="517" y="346" text-anchor="start" dominant-baseline="text-before-edge" transform="matrix(1 0 0 1 -86 -158)">ritorna un errore</text></g></g><g><path fill="none" stroke="#000000" paint-order="fill stroke markers" d=" M 362 194 L 425 194" stroke-miterlimit="10" stroke-dasharray="3"/></g></g></svg>