<svg version="1.1" xmlns="http://www.w3.org/2000/svg" xmlns:xlink="http://www.w3.org/1999/xlink" width="661" height="316"><defs/><g><g><rect fill="#ffffff" stroke="none" x="384" y="416" width="472" height="296" transform="matrix(1 0 0 1 -206 -406)"/></g><g><path fill="none" stroke="#000000" paint-order="fill stroke markers" d=" M 178 10 L 650 10 L 650 306 L 178 306 L 178 10 Z Z" stroke-miterlimit="10" stroke-dasharray=""/></g><g><g><path fill="none" stroke="none"/><text fill="#000000" stroke="none" font-family="Arial" font-size="13px" font-style="normal" font-weight="bold" text-decoration="undefined" x="620.5" y="429.5" text-anchor="middle" dominant-baseline="central" transform="matrix(1 0 0 1 -206 -406)">Disconnessione</text></g></g><g><path fill="#ffffff" stroke="none" paint-order="stroke fill markers" d=" M 60.28880308948868 206.56999999999994 C 60.28880308948868 200.18006486399997 65.3979661463614 195 71.700439453125 195 C 78.0029127598886 195 83.11207581676132 200.18006486399997 83.11207581676132 206.56999999999994 C 83.11207581676132 212.9599351359999 78.0029127598886 218.14 71.700439453125 218.14 C 65.3979661463614 218.14 60.28880308948868 212.9599351359999 60.28880308948868 206.56999999999994 Z"/></g><g><path fill="none" stroke="#000000" paint-order="fill stroke markers" d=" M 60.28880308948868 206.56999999999994 C 60.28880308948868 200.18006486399997 65.3979661463614 195 71.700439453125 195 C 78.0029127598886 195 83.11207581676132 200.18006486399997 83.11207581676132 206.56999999999994 C 83.11207581676132 212.9599351359999 78.0029127598886 218.14 71.700439453125 218.14 C 65.3979661463614 218.14 60.28880308948868 212.9599351359999 60.28880308948868 206.56999999999994 Z" stroke-miterlimit="10" stroke-dasharray=""/></g><g><path fill="none" stroke="#000000" paint-order="fill stroke markers" d=" M 71.700439453125 218.14 L 71.700439453125 240.86" stroke-miterlimit="10" stroke-dasharray=""/></g><g><path fill="none" stroke="#000000" paint-order="fill stroke markers" d=" M 59.617530362215916 226.65999999999997 L 83.78334854403408 226.65999999999997" stroke-miterlimit="10" stroke-dasharray=""/></g><g><path fill="none" stroke="#000000" paint-order="fill stroke markers" d=" M 71.700439453125 240.86 L 54.91862127130685 264" stroke-miterlimit="10" stroke-dasharray=""/></g><g><path fill="none" stroke="#000000" paint-order="fill stroke markers" d=" M 71.700439453125 240.86 L 88.48225763494315 264" stroke-miterlimit="10" stroke-dasharray=""/></g><g><g><path fill="none" stroke="none"/><text fill="#000000" stroke="none" font-family="Arial" font-size="13px" font-style="normal" font-weight="bold" text-decoration="undefined" x="278.200439453125" y="684.5" text-anchor="middle" dominant-baseline="central" transform="matrix(1 0 0 1 -206 -406)">Utente autenticato</text></g></g><g><path fill="none" stroke="#000000" paint-order="fill stroke markers" d=" M 134 241 L 273 240" stroke-miterlimit="10" stroke-dasharray=""/></g><g><path fill="none" stroke="#000000" paint-order="fill stroke markers" d=" M 413 133 L 411 209" stroke-miterlimit="10" stroke-dasharray="3"/></g><g><path fill="none" stroke="#000000" paint-order="fill stroke markers" d=" M 407.0592853332588 198.73010380211508 L 411 209 L 415.47540718003233 198.95158069281968" stroke-miterlimit="10" stroke-dasharray=""/></g><g><rect fill="#ffffff" stroke="none" x="567" y="582" width="53.49169921875" height="13" transform="matrix(1 0 0 1 -206 -406)"/></g><g><g><path fill="none" stroke="none"/><text fill="#000000" stroke="none" font-family="Arial" font-size="13px" font-style="normal" font-weight="normal" text-decoration="undefined" x="593.745849609375" y="588.5" text-anchor="middle" dominant-baseline="central" transform="matrix(1 0 0 1 -206 -406)">«extend»</text></g></g><g><path fill="#ffffff" stroke="none" paint-order="stroke fill markers" d=" M 306 87 C 306 62.14718399999998 354.35324160000005 42 414 42 C 473.64675839999995 42 522 62.14718399999998 522 87 C 522 111.85281599999996 473.64675839999995 132 414 132 C 354.35324160000005 132 306 111.85281599999996 306 87 Z"/></g><g><path fill="none" stroke="#000000" paint-order="fill stroke markers" d=" M 306 87 C 306 62.14718399999998 354.35324160000005 42 414 42 C 473.64675839999995 42 522 62.14718399999998 522 87 C 522 111.85281599999996 473.64675839999995 132 414 132 C 354.35324160000005 132 306 111.85281599999996 306 87 Z" stroke-miterlimit="10" stroke-dasharray=""/></g><g><g><path fill="none" stroke="none"/><text fill="#000000" stroke="none" font-family="Arial" font-size="13px" font-style="normal" font-weight="bold" text-decoration="undefined" x="620" y="481" text-anchor="middle" dominant-baseline="central" transform="matrix(1 0 0 1 -206 -406)">UCE-6 Visualizzazione</text><text fill="#000000" stroke="none" font-family="Arial" font-size="13px" font-style="normal" font-weight="bold" text-decoration="undefined" x="620" y="494" text-anchor="middle" dominant-baseline="central" transform="matrix(1 0 0 1 -206 -406)">errore server</text><text fill="#000000" stroke="none" font-family="Arial" font-size="13px" font-style="normal" font-weight="bold" text-decoration="undefined" x="620" y="507" text-anchor="middle" dominant-baseline="central" transform="matrix(1 0 0 1 -206 -406)">disconnessione</text></g></g><g><path fill="#ffffff" stroke="none" paint-order="stroke fill markers" d=" M 274 238 C 274 222.53602560000002 334.88926719999995 210 410 210 C 485.11073280000005 210 546 222.53602560000002 546 238 C 546 253.46397439999998 485.11073280000005 266 410 266 C 334.88926719999995 266 274 253.46397439999998 274 238 Z"/></g><g><path fill="none" stroke="#000000" paint-order="fill stroke markers" d=" M 274 238 C 274 222.53602560000002 334.88926719999995 210 410 210 C 485.11073280000005 210 546 222.53602560000002 546 238 C 546 253.46397439999998 485.11073280000005 266 410 266 C 334.88926719999995 266 274 253.46397439999998 274 238 Z" stroke-miterlimit="10" stroke-dasharray=""/></g><g><g><path fill="none" stroke="none"/><text fill="#000000" stroke="none" font-family="Arial" font-size="13px" font-style="normal" font-weight="bold" text-decoration="undefined" x="616" y="645" text-anchor="middle" dominant-baseline="central" transform="matrix(1 0 0 1 -206 -406)">UCF-6 Disconnessione</text></g></g><g><path fill="#ffffff" stroke="none" paint-order="stroke fill markers" d=" M 490 146 L 631 146 L 641 156 L 641 185 L 490 185 L 490 146"/></g><g><path fill="none" stroke="#000000" paint-order="fill stroke markers" d=" M 490 146 L 631 146 L 641 156 L 641 185 L 490 185 L 490 146 L 490 146" stroke-miterlimit="10" stroke-dasharray=""/></g><g><path fill="none" stroke="#000000" paint-order="fill stroke markers" d=" M 631 146 L 631 156 L 641 156 L 631 146" stroke-miterlimit="10" stroke-dasharray=""/></g><g><g><path fill="none" stroke="none"/><text fill="#000000" stroke="none" font-family="Arial" font-size="13px" font-style="normal" font-weight="normal" text-decoration="undefined" x="701" y="557" text-anchor="start" dominant-baseline="text-before-edge" transform="matrix(1 0 0 1 -206 -406)">Condizione: il backend</text><text fill="#000000" stroke="none" font-family="Arial" font-size="13px" font-style="normal" font-weight="normal" text-decoration="undefined" x="701" y="570" text-anchor="start" dominant-baseline="text-before-edge" transform="matrix(1 0 0 1 -206 -406)">ritorna un errore</text></g></g><g><path fill="none" stroke="#000000" paint-order="fill stroke markers" d=" M 412 171 L 489 169" stroke-miterlimit="10" stroke-dasharray="3"/></g></g></svg>