<svg version="1.1" xmlns="http://www.w3.org/2000/svg" xmlns:xlink="http://www.w3.org/1999/xlink" width="661" height="348"><defs/><g><g><rect fill="#ffffff" stroke="none" x="384" y="400" width="472" height="328" transform="matrix(1 0 0 1 -206 -390)"/></g><g><path fill="none" stroke="#000000" paint-order="fill stroke markers" d=" M 178 10 L 650 10 L 650 338 L 178 338 L 178 10 Z Z" stroke-miterlimit="10" stroke-dasharray=""/></g><g><g><path fill="none" stroke="none"/><text fill="#000000" stroke="none" font-family="Arial" font-size="13px" font-style="normal" font-weight="bold" text-decoration="undefined" x="620.5" y="413.5" text-anchor="middle" dominant-baseline="central" transform="matrix(1 0 0 1 -206 -390)">Visualizzazione fasi</text></g></g><g><path fill="#ffffff" stroke="none" paint-order="stroke fill markers" d=" M 60.28880308948868 222.56999999999994 C 60.28880308948868 216.18006486399997 65.3979661463614 211 71.700439453125 211 C 78.0029127598886 211 83.11207581676132 216.18006486399997 83.11207581676132 222.56999999999994 C 83.11207581676132 228.9599351359999 78.0029127598886 234.14 71.700439453125 234.14 C 65.3979661463614 234.14 60.28880308948868 228.9599351359999 60.28880308948868 222.56999999999994 Z"/></g><g><path fill="none" stroke="#000000" paint-order="fill stroke markers" d=" M 60.28880308948868 222.56999999999994 C 60.28880308948868 216.18006486399997 65.3979661463614 211 71.700439453125 211 C 78.0029127598886 211 83.11207581676132 216.18006486399997 83.11207581676132 222.56999999999994 C 83.11207581676132 228.9599351359999 78.0029127598886 234.14 71.700439453125 234.14 C 65.3979661463614 234.14 60.28880308948868 228.9599351359999 60.28880308948868 222.56999999999994 Z" stroke-miterlimit="10" stroke-dasharray=""/></g><g><path fill="none" stroke="#000000" paint-order="fill stroke markers" d=" M 71.700439453125 234.14 L 71.700439453125 256.86" stroke-miterlimit="10" stroke-dasharray=""/></g><g><path fill="none" stroke="#000000" paint-order="fill stroke markers" d=" M 59.617530362215916 242.65999999999997 L 83.78334854403408 242.65999999999997" stroke-miterlimit="10" stroke-dasharray=""/></g><g><path fill="none" stroke="#000000" paint-order="fill stroke markers" d=" M 71.700439453125 256.86 L 54.91862127130685 280" stroke-miterlimit="10" stroke-dasharray=""/></g><g><path fill="none" stroke="#000000" paint-order="fill stroke markers" d=" M 71.700439453125 256.86 L 88.48225763494315 280" stroke-miterlimit="10" stroke-dasharray=""/></g><g><g><path fill="none" stroke="none"/><text fill="#000000" stroke="none" font-family="Arial" font-size="13px" font-style="normal" font-weight="bold" text-decoration="undefined" x="278.200439453125" y="684.5" text-anchor="middle" dominant-baseline="central" transform="matrix(1 0 0 1 -206 -390)">Utente autenticato</text></g></g><g><path fill="none" stroke="#000000" paint-order="fill stroke markers" d=" M 134 257 L 289 255" stroke-miterlimit="10" stroke-dasharray=""/></g><g><path fill="none" stroke="#000000" paint-order="fill stroke markers" d=" M 413 149 L 412 225" stroke-miterlimit="10" stroke-dasharray="3"/></g><g><path fill="none" stroke="#000000" paint-order="fill stroke markers" d=" M 407.9245544260782 214.7828211636479 L 412 225 L 416.3428612381035 214.89358835854296" stroke-miterlimit="10" stroke-dasharray=""/></g><g><rect fill="#ffffff" stroke="none" x="567" y="583" width="53.49169921875" height="13" transform="matrix(1 0 0 1 -206 -390)"/></g><g><g><path fill="none" stroke="none"/><text fill="#000000" stroke="none" font-family="Arial" font-size="13px" font-style="normal" font-weight="normal" text-decoration="undefined" x="593.745849609375" y="589.5" text-anchor="middle" dominant-baseline="central" transform="matrix(1 0 0 1 -206 -390)">«extend»</text></g></g><g><path fill="#ffffff" stroke="none" paint-order="stroke fill markers" d=" M 306 103 C 306 78.14718399999998 354.35324160000005 58 414 58 C 473.64675839999995 58 522 78.14718399999998 522 103 C 522 127.85281599999996 473.64675839999995 148 414 148 C 354.35324160000005 148 306 127.85281599999996 306 103 Z"/></g><g><path fill="none" stroke="#000000" paint-order="fill stroke markers" d=" M 306 103 C 306 78.14718399999998 354.35324160000005 58 414 58 C 473.64675839999995 58 522 78.14718399999998 522 103 C 522 127.85281599999996 473.64675839999995 148 414 148 C 354.35324160000005 148 306 127.85281599999996 306 103 Z" stroke-miterlimit="10" stroke-dasharray=""/></g><g><g><path fill="none" stroke="none"/><text fill="#000000" stroke="none" font-family="Arial" font-size="13px" font-style="normal" font-weight="bold" text-decoration="undefined" x="620" y="481" text-anchor="middle" dominant-baseline="central" transform="matrix(1 0 0 1 -206 -390)">UCE-3 Visualizzazione</text><text fill="#000000" stroke="none" font-family="Arial" font-size="13px" font-style="normal" font-weight="bold" text-decoration="undefined" x="620" y="494" text-anchor="middle" dominant-baseline="central" transform="matrix(1 0 0 1 -206 -390)">errore server</text><text fill="#000000" stroke="none" font-family="Arial" font-size="13px" font-style="normal" font-weight="bold" text-decoration="undefined" x="620" y="507" text-anchor="middle" dominant-baseline="central" transform="matrix(1 0 0 1 -206 -390)">visualizzazione fasi</text></g></g><g><path fill="#ffffff" stroke="none" paint-order="stroke fill markers" d=" M 290 254 C 290 238.53602560000002 344.6212544 226 412 226 C 479.3787456 226 534 238.53602560000002 534 254 C 534 269.4639744 479.3787456 282 412 282 C 344.6212544 282 290 269.4639744 290 254 Z"/></g><g><path fill="none" stroke="#000000" paint-order="fill stroke markers" d=" M 290 254 C 290 238.53602560000002 344.6212544 226 412 226 C 479.3787456 226 534 238.53602560000002 534 254 C 534 269.4639744 479.3787456 282 412 282 C 344.6212544 282 290 269.4639744 290 254 Z" stroke-miterlimit="10" stroke-dasharray=""/></g><g><g><path fill="none" stroke="none"/><text fill="#000000" stroke="none" font-family="Arial" font-size="13px" font-style="normal" font-weight="bold" text-decoration="undefined" x="618" y="645" text-anchor="middle" dominant-baseline="central" transform="matrix(1 0 0 1 -206 -390)">UCF-2 Visualizzazione fasi</text></g></g><g><path fill="#ffffff" stroke="none" paint-order="stroke fill markers" d=" M 490 162 L 631 162 L 641 172 L 641 212 L 490 212 L 490 162"/></g><g><path fill="none" stroke="#000000" paint-order="fill stroke markers" d=" M 490 162 L 631 162 L 641 172 L 641 212 L 490 212 L 490 162 L 490 162" stroke-miterlimit="10" stroke-dasharray=""/></g><g><path fill="none" stroke="#000000" paint-order="fill stroke markers" d=" M 631 162 L 631 172 L 641 172 L 631 162" stroke-miterlimit="10" stroke-dasharray=""/></g><g><g><path fill="none" stroke="none"/><text fill="#000000" stroke="none" font-family="Arial" font-size="13px" font-style="normal" font-weight="normal" text-decoration="undefined" x="701" y="557" text-anchor="start" dominant-baseline="text-before-edge" transform="matrix(1 0 0 1 -206 -390)">Condizione: il backend</text><text fill="#000000" stroke="none" font-family="Arial" font-size="13px" font-style="normal" font-weight="normal" text-decoration="undefined" x="701" y="570" text-anchor="start" dominant-baseline="text-before-edge" transform="matrix(1 0 0 1 -206 -390)">ritorna un errore</text></g></g><g><path fill="none" stroke="#000000" paint-order="fill stroke markers" d=" M 412 187 L 489 187" stroke-miterlimit="10" stroke-dasharray="3"/></g></g></svg>