<svg version="1.1" xmlns="http://www.w3.org/2000/svg" xmlns:xlink="http://www.w3.org/1999/xlink" width="605" height="332"><defs/><g><g><rect fill="#ffffff" stroke="none" x="248" y="176" width="432" height="312" transform="matrix(1 0 0 1 -86 -166)"/></g><g><path fill="none" stroke="#000000" paint-order="fill stroke markers" d=" M 162 10 L 594 10 L 594 322 L 162 322 L 162 10 Z Z" stroke-miterlimit="10" stroke-dasharray=""/></g><g><g><path fill="none" stroke="none"/><text fill="#000000" stroke="none" font-family="Arial" font-size="13px" font-style="normal" font-weight="bold" text-decoration="undefined" x="464.5" y="189.5" text-anchor="middle" dominant-baseline="central" transform="matrix(1 0 0 1 -86 -166)">Visualizzazione log</text></g></g><g><path fill="#ffffff" stroke="none" paint-order="stroke fill markers" d=" M 242 270 C 242 254.53602560000002 295.725824 242 362 242 C 428.274176 242 482 254.53602560000002 482 270 C 482 285.4639744 428.274176 298 362 298 C 295.725824 298 242 285.4639744 242 270 Z"/></g><g><path fill="none" stroke="#000000" paint-order="fill stroke markers" d=" M 242 270 C 242 254.53602560000002 295.725824 242 362 242 C 428.274176 242 482 254.53602560000002 482 270 C 482 285.4639744 428.274176 298 362 298 C 295.725824 298 242 285.4639744 242 270 Z" stroke-miterlimit="10" stroke-dasharray=""/></g><g><g><path fill="none" stroke="none"/><text fill="#000000" stroke="none" font-family="Arial" font-size="13px" font-style="normal" font-weight="bold" text-decoration="undefined" x="448" y="437" text-anchor="middle" dominant-baseline="central" transform="matrix(1 0 0 1 -86 -166)">UCF-7 Visualizzazione log</text></g></g><g><path fill="#ffffff" stroke="none" paint-order="stroke fill markers" d=" M 234 94 C 234 74.1177472 291.3075456 58 362 58 C 432.6924544 58 490 74.1177472 490 94 C 490 113.8822528 432.6924544 130 362 130 C 291.3075456 130 234 113.8822528 234 94 Z"/></g><g><path fill="none" stroke="#000000" paint-order="fill stroke markers" d=" M 234 94 C 234 74.1177472 291.3075456 58 362 58 C 432.6924544 58 490 74.1177472 490 94 C 490 113.8822528 432.6924544 130 362 130 C 291.3075456 130 234 113.8822528 234 94 Z" stroke-miterlimit="10" stroke-dasharray=""/></g><g><g><path fill="none" stroke="none"/><text fill="#000000" stroke="none" font-family="Arial" font-size="13px" font-style="normal" font-weight="bold" text-decoration="undefined" x="448" y="248" text-anchor="middle" dominant-baseline="central" transform="matrix(1 0 0 1 -86 -166)">UCE-7 Visualizzazione</text><text fill="#000000" stroke="none" font-family="Arial" font-size="13px" font-style="normal" font-weight="bold" text-decoration="undefined" x="448" y="261" text-anchor="middle" dominant-baseline="central" transform="matrix(1 0 0 1 -86 -166)">errore server</text><text fill="#000000" stroke="none" font-family="Arial" font-size="13px" font-style="normal" font-weight="bold" text-decoration="undefined" x="448" y="274" text-anchor="middle" dominant-baseline="central" transform="matrix(1 0 0 1 -86 -166)">visualizzazione log</text></g></g><g><path fill="none" stroke="#000000" paint-order="fill stroke markers" d=" M 362 131 L 362 241" stroke-miterlimit="10" stroke-dasharray="3"/></g><g><path fill="none" stroke="#000000" paint-order="fill stroke markers" d=" M 357.790482243984 230.83732514237585 L 362 241 L 366.209517756016 230.83732514237585" stroke-miterlimit="10" stroke-dasharray=""/></g><g><rect fill="#ffffff" stroke="none" x="391" y="359" width="53.49169921875" height="13" transform="matrix(1 0 0 1 -86 -166)"/></g><g><g><path fill="none" stroke="none"/><text fill="#000000" stroke="none" font-family="Arial" font-size="13px" font-style="normal" font-weight="normal" text-decoration="undefined" x="417.745849609375" y="365.5" text-anchor="middle" dominant-baseline="central" transform="matrix(1 0 0 1 -86 -166)">«extend»</text></g></g><g><path fill="#ffffff" stroke="none" paint-order="stroke fill markers" d=" M 62.860439453125 243.85000000000002 C 62.860439453125 238.96227952000004 66.81824182112499 235 71.700439453125 235 C 76.58263708512501 235 80.540439453125 238.96227952000004 80.540439453125 243.85000000000002 C 80.540439453125 248.73772048 76.58263708512501 252.7 71.700439453125 252.7 C 66.81824182112499 252.7 62.860439453125 248.73772048 62.860439453125 243.85000000000002 Z"/></g><g><path fill="none" stroke="#000000" paint-order="fill stroke markers" d=" M 62.860439453125 243.85000000000002 C 62.860439453125 238.96227952000004 66.81824182112499 235 71.700439453125 235 C 76.58263708512501 235 80.540439453125 238.96227952000004 80.540439453125 243.85000000000002 C 80.540439453125 248.73772048 76.58263708512501 252.7 71.700439453125 252.7 C 66.81824182112499 252.7 62.860439453125 248.73772048 62.860439453125 243.85000000000002 Z" stroke-miterlimit="10" stroke-dasharray=""/></g><g><path fill="none" stroke="#000000" paint-order="fill stroke markers" d=" M 71.700439453125 252.7 L 71.700439453125 270.3" stroke-miterlimit="10" stroke-dasharray=""/></g><g><path fill="none" stroke="#000000" paint-order="fill stroke markers" d=" M 62.340439453124986 259.3 L 81.06043945312501 259.3" stroke-miterlimit="10" stroke-dasharray=""/></g><g><path fill="none" stroke="#000000" paint-order="fill stroke markers" d=" M 71.700439453125 270.3 L 58.700439453125 288" stroke-miterlimit="10" stroke-dasharray=""/></g><g><path fill="none" stroke="#000000" paint-order="fill stroke markers" d=" M 71.700439453125 270.3 L 84.700439453125 288" stroke-miterlimit="10" stroke-dasharray=""/></g><g><g><path fill="none" stroke="none"/><text fill="#000000" stroke="none" font-family="Arial" font-size="13px" font-style="normal" font-weight="bold" text-decoration="undefined" x="158.200439453125" y="468.5" text-anchor="middle" dominant-baseline="central" transform="matrix(1 0 0 1 -86 -166)">Utente autenticato</text></g></g><g><path fill="none" stroke="#000000" paint-order="fill stroke markers" d=" M 134 273 L 241 272" stroke-miterlimit="10" stroke-dasharray=""/></g><g><path fill="#ffffff" stroke="none" paint-order="stroke fill markers" d=" M 426 162 L 567 162 L 577 172 L 577 208 L 426 208 L 426 162"/></g><g><path fill="none" stroke="#000000" paint-order="fill stroke markers" d=" M 426 162 L 567 162 L 577 172 L 577 208 L 426 208 L 426 162 L 426 162" stroke-miterlimit="10" stroke-dasharray=""/></g><g><path fill="none" stroke="#000000" paint-order="fill stroke markers" d=" M 567 162 L 567 172 L 577 172 L 567 162" stroke-miterlimit="10" stroke-dasharray=""/></g><g><g><path fill="none" stroke="none"/><text fill="#000000" stroke="none" font-family="Arial" font-size="13px" font-style="normal" font-weight="normal" text-decoration="undefined" x="517" y="333" text-anchor="start" dominant-baseline="text-before-edge" transform="matrix(1 0 0 1 -86 -166)">Condizione: il backend</text><text fill="#000000" stroke="none" font-family="Arial" font-size="13px" font-style="normal" font-weight="normal" text-decoration="undefined" x="517" y="346" text-anchor="start" dominant-baseline="text-before-edge" transform="matrix(1 0 0 1 -86 -166)">ritorna un errore</text></g></g><g><path fill="none" stroke="#000000" paint-order="fill stroke markers" d=" M 362 186 L 425 186" stroke-miterlimit="10" stroke-dasharray="3"/></g></g></svg>