<svg version="1.1" xmlns="http://www.w3.org/2000/svg" xmlns:xlink="http://www.w3.org/1999/xlink" width="661" height="348"><defs/><g><g><rect fill="#ffffff" stroke="none" x="384" y="400" width="472" height="328" transform="matrix(1 0 0 1 -206 -390)"/></g><g><path fill="none" stroke="#000000" paint-order="fill stroke markers" d=" M 178 10 L 650 10 L 650 338 L 178 338 L 178 10 Z Z" stroke-miterlimit="10" stroke-dasharray=""/></g><g><g><path fill="none" stroke="none"/><text fill="#000000" stroke="none" font-family="Arial" font-size="13px" font-style="normal" font-weight="bold" text-decoration="undefined" x="620.5" y="413.5" text-anchor="middle" dominant-baseline="central" transform="matrix(1 0 0 1 -206 -390)">Visualizzazione attributi</text></g></g><g><path fill="#ffffff" stroke="none" paint-order="stroke fill markers" d=" M 60.28880308948868 222.56999999999994 C 60.28880308948868 216.18006486399997 65.3979661463614 211 71.700439453125 211 C 78.0029127598886 211 83.11207581676132 216.18006486399997 83.11207581676132 222.56999999999994 C 83.11207581676132 228.9599351359999 78.0029127598886 234.14 71.700439453125 234.14 C 65.3979661463614 234.14 60.28880308948868 228.9599351359999 60.28880308948868 222.56999999999994 Z"/></g><g><path fill="none" stroke="#000000" paint-order="fill stroke markers" d=" M 60.28880308948868 222.56999999999994 C 60.28880308948868 216.18006486399997 65.3979661463614 211 71.700439453125 211 C 78.0029127598886 211 83.11207581676132 216.18006486399997 83.11207581676132 222.56999999999994 C 83.11207581676132 228.9599351359999 78.0029127598886 234.14 71.700439453125 234.14 C 65.3979661463614 234.14 60.28880308948868 228.9599351359999 60.28880308948868 222.56999999999994 Z" stroke-miterlimit="10" stroke-dasharray=""/></g><g><path fill="none" stroke="#000000" paint-order="fill stroke markers" d=" M 71.700439453125 234.14 L 71.700439453125 256.86" stroke-miterlimit="10" stroke-dasharray=""/></g><g><path fill="none" stroke="#000000" paint-order="fill stroke markers" d=" M 59.617530362215916 242.65999999999997 L 83.78334854403408 242.65999999999997" stroke-miterlimit="10" stroke-dasharray=""/></g><g><path fill="none" stroke="#000000" paint-order="fill stroke markers" d=" M 71.700439453125 256.86 L 54.91862127130685 280" stroke-miterlimit="10" stroke-dasharray=""/></g><g><path fill="none" stroke="#000000" paint-order="fill stroke markers" d=" M 71.700439453125 256.86 L 88.48225763494315 280" stroke-miterlimit="10" stroke-dasharray=""/></g><g><g><path fill="none" stroke="none"/><text fill="#000000" stroke="none" font-family="Arial" font-size="13px" font-style="normal" font-weight="bold" text-decoration="undefined" x="278.200439453125" y="684.5" text-anchor="middle" dominant-baseline="central" transform="matrix(1 0 0 1 -206 -390)">Utente autenticato</text></g></g><g><path fill="none" stroke="#000000" paint-order="fill stroke markers" d=" M 134 257 L 273 256" stroke-miterlimit="10" stroke-dasharray=""/></g><g><path fill="none" stroke="#000000" paint-order="fill stroke markers" d=" M 414 149 L 414 225" stroke-miterlimit="10" stroke-dasharray="3"/></g><g><path fill="none" stroke="#000000" paint-order="fill stroke markers" d=" M 409.790482243984 214.8373251423759 L 414 225 L 418.209517756016 214.8373251423759" stroke-miterlimit="10" stroke-dasharray=""/></g><g><rect fill="#ffffff" stroke="none" x="569" y="583" width="53.49169921875" height="13" transform="matrix(1 0 0 1 -206 -390)"/></g><g><g><path fill="none" stroke="none"/><text fill="#000000" stroke="none" font-family="Arial" font-size="13px" font-style="normal" font-weight="normal" text-decoration="undefined" x="595.745849609375" y="589.5" text-anchor="middle" dominant-baseline="central" transform="matrix(1 0 0 1 -206 -390)">«extend»</text></g></g><g><path fill="#ffffff" stroke="none" paint-order="stroke fill markers" d=" M 306 103 C 306 78.14718399999998 354.35324160000005 58 414 58 C 473.64675839999995 58 522 78.14718399999998 522 103 C 522 127.85281599999996 473.64675839999995 148 414 148 C 354.35324160000005 148 306 127.85281599999996 306 103 Z"/></g><g><path fill="none" stroke="#000000" paint-order="fill stroke markers" d=" M 306 103 C 306 78.14718399999998 354.35324160000005 58 414 58 C 473.64675839999995 58 522 78.14718399999998 522 103 C 522 127.85281599999996 473.64675839999995 148 414 148 C 354.35324160000005 148 306 127.85281599999996 306 103 Z" stroke-miterlimit="10" stroke-dasharray=""/></g><g><g><path fill="none" stroke="none"/><text fill="#000000" stroke="none" font-family="Arial" font-size="13px" font-style="normal" font-weight="bold" text-decoration="undefined" x="620" y="474.5" text-anchor="middle" dominant-baseline="central" transform="matrix(1 0 0 1 -206 -390)">UCE-4 Visualizzazione</text><text fill="#000000" stroke="none" font-family="Arial" font-size="13px" font-style="normal" font-weight="bold" text-decoration="undefined" x="620" y="487.5" text-anchor="middle" dominant-baseline="central" transform="matrix(1 0 0 1 -206 -390)">errore server</text><text fill="#000000" stroke="none" font-family="Arial" font-size="13px" font-style="normal" font-weight="bold" text-decoration="undefined" x="620" y="500.5" text-anchor="middle" dominant-baseline="central" transform="matrix(1 0 0 1 -206 -390)">visualizzazione</text><text fill="#000000" stroke="none" font-family="Arial" font-size="13px" font-style="normal" font-weight="bold" text-decoration="undefined" x="620" y="513.5" text-anchor="middle" dominant-baseline="central" transform="matrix(1 0 0 1 -206 -390)">attributi</text></g></g><g><path fill="#ffffff" stroke="none" paint-order="stroke fill markers" d=" M 274 254 C 274 238.53602560000002 336.90398559999994 226 414.5 226 C 492.09601440000006 226 555 238.53602560000002 555 254 C 555 269.4639744 492.09601440000006 282 414.5 282 C 336.90398559999994 282 274 269.4639744 274 254 Z"/></g><g><path fill="none" stroke="#000000" paint-order="fill stroke markers" d=" M 274 254 C 274 238.53602560000002 336.90398559999994 226 414.5 226 C 492.09601440000006 226 555 238.53602560000002 555 254 C 555 269.4639744 492.09601440000006 282 414.5 282 C 336.90398559999994 282 274 269.4639744 274 254 Z" stroke-miterlimit="10" stroke-dasharray=""/></g><g><g><path fill="none" stroke="none"/><text fill="#000000" stroke="none" font-family="Arial" font-size="13px" font-style="normal" font-weight="bold" text-decoration="undefined" x="620.5" y="645" text-anchor="middle" dominant-baseline="central" transform="matrix(1 0 0 1 -206 -390)">UCF-4 Visualizzazione attributi</text></g></g><g><path fill="#ffffff" stroke="none" paint-order="stroke fill markers" d=" M 490 170 L 631 170 L 641 180 L 641 209 L 490 209 L 490 170"/></g><g><path fill="none" stroke="#000000" paint-order="fill stroke markers" d=" M 490 170 L 631 170 L 641 180 L 641 209 L 490 209 L 490 170 L 490 170" stroke-miterlimit="10" stroke-dasharray=""/></g><g><path fill="none" stroke="#000000" paint-order="fill stroke markers" d=" M 631 170 L 631 180 L 641 180 L 631 170" stroke-miterlimit="10" stroke-dasharray=""/></g><g><g><path fill="none" stroke="none"/><text fill="#000000" stroke="none" font-family="Arial" font-size="13px" font-style="normal" font-weight="normal" text-decoration="undefined" x="701" y="565" text-anchor="start" dominant-baseline="text-before-edge" transform="matrix(1 0 0 1 -206 -390)">Condizione: il backend</text><text fill="#000000" stroke="none" font-family="Arial" font-size="13px" font-style="normal" font-weight="normal" text-decoration="undefined" x="701" y="578" text-anchor="start" dominant-baseline="text-before-edge" transform="matrix(1 0 0 1 -206 -390)">ritorna un errore</text></g></g><g><path fill="none" stroke="#000000" paint-order="fill stroke markers" d=" M 414 187 L 489 188" stroke-miterlimit="10" stroke-dasharray="3"/></g></g></svg>