<svg xmlns="http://www.w3.org/2000/svg" width="65.35" height="32.204" viewBox="0 0 65.35 32.204">
  <g id="logo" transform="translate(-17.645 0)">
    <g id="logoADESUITE" transform="translate(17.796 0.001)">
      <g id="Livello_1" data-name="Livello 1">
        <path id="Tracciato_10426" data-name="Tracciato 10426" d="M22.52,2.86A5.74,5.74,0,0,0,14.7.76l-.2.12-.32.22-.2.14a5.6,5.6,0,0,0-1.84,2.27l-1.71,3L.78,23.2A5.84,5.84,0,1,0,10.9,29l6.59-11.42h0l6.67,11.55A5.74,5.74,0,0,0,32,31.24l.2-.12a5.74,5.74,0,0,0,2.1-7.82Z" fill="#fff"/>
        <path id="Tracciato_10427" data-name="Tracciato 10427" d="M64.69,13.79l-.08-.18-.08-.18-.11-.18a4.84,4.84,0,0,0-.3-.44h0A5.11,5.11,0,0,0,62,11.1L59.3,9.53,44.09.75a5.33,5.33,0,0,0-7.27,2h0a5.25,5.25,0,0,0-.7,2.83v5.68a4.68,4.68,0,0,0,8.76,2.27L49.17,16h0L38.68,22.09a5.22,5.22,0,0,0-1.91,7.12l.11.19A5.23,5.23,0,0,0,44,31.31L62.62,20.56c.11-.07.21-.16.31-.23l.23-.16a5.21,5.21,0,0,0,1.53-6.38Z" fill="#fff"/>
      </g>
    </g>
  </g>
</svg>
