<?xml version="1.0" encoding="UTF-8" standalone="no"?>
<!-- Generator: Adobe Illustrator 25.1.0, SVG Export Plug-In . SVG Version: 6.00 Build 0)  -->

<svg
   version="1.1"
   id="Livello_1"
   x="0px"
   y="0px"
   viewBox="0 0 809.9 273.9"
   style="enable-background:new 0 0 809.9 273.9;"
   xml:space="preserve"
   sodipodi:docname="logo-ADeQA.svg"
   inkscape:version="1.3 (0e150ed6c4, 2023-07-21)"
   xmlns:inkscape="http://www.inkscape.org/namespaces/inkscape"
   xmlns:sodipodi="http://sodipodi.sourceforge.net/DTD/sodipodi-0.dtd"
   xmlns="http://www.w3.org/2000/svg"
   xmlns:svg="http://www.w3.org/2000/svg"><defs
   id="defs15"><linearGradient
     id="swatch16"
     inkscape:swatch="solid"><stop
       style="stop-color:#ffffff;stop-opacity:1;"
       offset="0"
       id="stop16" /></linearGradient></defs><sodipodi:namedview
   id="namedview15"
   pagecolor="#ffffff"
   bordercolor="#000000"
   borderopacity="0.25"
   inkscape:showpageshadow="2"
   inkscape:pageopacity="0.0"
   inkscape:pagecheckerboard="0"
   inkscape:deskcolor="#d1d1d1"
   inkscape:zoom="1.6088405"
   inkscape:cx="405.2608"
   inkscape:cy="137.05522"
   inkscape:window-width="3200"
   inkscape:window-height="1711"
   inkscape:window-x="-9"
   inkscape:window-y="-9"
   inkscape:window-maximized="1"
   inkscape:current-layer="Livello_1" />&#10;<style
   type="text/css"
   id="style1">&#10;	.st0{fill:url(#SVGID_1_);}&#10;	.st1{fill:url(#SVGID_2_);}&#10;	.st2{fill:url(#SVGID_3_);}&#10;	.st3{fill:url(#SVGID_4_);}&#10;	.st4{fill:#FFFFFF;}&#10;</style>&#10;<linearGradient
   id="SVGID_1_"
   gradientUnits="userSpaceOnUse"
   x1="25.3254"
   y1="7.1057"
   x2="175.3287"
   y2="266.9114"
   gradientTransform="matrix(1 0 0 -1 6.285336e-03 273.9389)">&#10;	<stop
   offset="0"
   style="stop-color:#FFA87B"
   id="stop1" />&#10;	<stop
   offset="1"
   style="stop-color:#F35C6E"
   id="stop2" />&#10;</linearGradient>&#10;<path
   class="st0"
   d="M174.5,6.5l1.7,1c23.4,13.5,31.5,43.5,17.9,66.9l-101,174.9c-13.5,23.4-43.5,31.5-66.9,17.9l-1.7-1  C1,252.8-7,222.8,6.5,199.4l101-174.9C121.1,1,151-7,174.5,6.5z"
   id="path2" />&#10;<linearGradient
   id="SVGID_2_"
   gradientUnits="userSpaceOnUse"
   x1="68.1202"
   y1="229.0171"
   x2="218.1163"
   y2="-30.7863"
   gradientTransform="matrix(1 0 0 -1 0 273.9375)">&#10;	<stop
   offset="7.000000e-02"
   style="stop-color:#5C3E84"
   id="stop3" />&#10;	<stop
   offset="0.31"
   style="stop-color:#604FA6"
   id="stop4" />&#10;	<stop
   offset="0.6"
   style="stop-color:#6460C7"
   id="stop5" />&#10;	<stop
   offset="0.84"
   style="stop-color:#676ADB"
   id="stop6" />&#10;	<stop
   offset="1"
   style="stop-color:#686EE2"
   id="stop7" />&#10;</linearGradient>&#10;<path
   class="st1"
   d="M294.1,199.4l-101-174.9C179.5,1.1,149.6-6.9,126.2,6.5l-1.7,1c-9,5.2-16,13.1-20.2,22.5L13.6,187.5  c27.5-47.6,89-64.1,136.6-36.6l0,0l0.2-0.4l57.1,98.9c13.6,23.4,43.5,31.4,66.9,17.9l1.7-1C299.6,252.8,307.6,222.8,294.1,199.4z"
   id="path7" />&#10;<linearGradient
   id="SVGID_3_"
   gradientUnits="userSpaceOnUse"
   x1="331.4785"
   y1="218.1918"
   x2="547.0585"
   y2="93.7318"
   gradientTransform="matrix(1 0 0 -1 0 273.9375)">&#10;	<stop
   offset="0"
   style="stop-color:#FFA87B"
   id="stop8" />&#10;	<stop
   offset="1"
   style="stop-color:#F35C6E"
   id="stop9" />&#10;</linearGradient>&#10;<path
   class="st2"
   d="M535.5,97.5L377.7,6.4c-21.8-12.5-49.6-5-62.2,16.7l0,0c-4.2,7.4-6.3,15.8-6,24.2l-0.1,0.6v48  c0,22.1,17.9,40,40,40c14.5,0,27.9-7.9,34.9-20.5l105.7,61c21.8,12.5,49.6,5.1,62.2-16.7l0,0C564.7,137.9,557.2,110.1,535.5,97.5z"
   id="path9" />&#10;<linearGradient
   id="SVGID_4_"
   gradientUnits="userSpaceOnUse"
   x1="377.1959"
   y1="176.2676"
   x2="515.6959"
   y2="-31.2124"
   gradientTransform="matrix(1 0 0 -1 0 273.9375)">&#10;	<stop
   offset="0"
   style="stop-color:#5C3E84"
   id="stop10" />&#10;	<stop
   offset="1"
   style="stop-color:#686EE2"
   id="stop11" />&#10;</linearGradient>&#10;<path
   class="st3"
   d="M552.6,115l-0.9-1.6c-4.7-8.2-11.9-14.6-20.5-18.4L387.8,12.4c43.4,25,58.4,81,33.3,124.4l0,0l0.4,0.2l-90.1,52  c-21.3,12.4-28.6,39.6-16.3,61l0.9,1.6c12.4,21.3,39.6,28.6,61,16.3l159.3-92C557.6,163.6,564.8,136.3,552.6,115z"
   id="path11" />&#10;<path
   class="st4"
   d="M598,233.8c0,4.1-1,7.1-3,9.1c-2,2-4.3,3-6.8,3h-23.7c0,1.9,1.1,3.4,3.3,4.7c2.2,1.3,4.4,1.9,6.6,1.9  c3.9,0,6.9-0.4,9.1-1.2l1.1-0.4c1.6-0.7,2.9-1.1,4-1.1c2.1,0,4,1.5,5.5,4.5c0.9,1.8,1.3,3.3,1.3,4.6c0,5.9-7.1,8.9-21.3,8.9  c-4.9,0-9.3-0.8-13.2-2.5c-3.8-1.7-6.8-4-9-6.8c-4.2-5.4-6.3-11.4-6.3-18.1c0-8.4,2.7-15.1,8.2-20.2c5.4-5,12.2-7.5,20.3-7.5  c9.3,0,16.1,3.3,20.4,9.8C596.9,225.9,598,229.7,598,233.8z M576.9,236.7c2.5,0,3.8-1.1,3.8-3.2c0-1.5-0.6-2.8-1.8-3.7  c-1.2-0.9-2.8-1.4-5-1.4c-2.2,0-4.3,0.9-6.5,2.7c-2.1,1.8-3.2,3.6-3.2,5.6H576.9z"
   id="path12" />&#10;&#10;&#10;&#10;<path
   d="m 703.64369,246.73003 q 2.2154,1.46957 3.12762,2.20435 1.04254,0.61233 2.08508,2.08189 1.04254,1.46957 1.04254,3.06161 0,2.93913 -3.38826,7.71523 -4.43078,6.00073 -8.47062,6.00073 -2.47603,0 -7.55842,-3.30653 -0.65158,-0.36739 -3.64888,-2.32681 -2.9973,-1.95942 -4.69143,-2.93914 -12.11952,8.81741 -27.23634,8.81741 -20.19921,0 -34.14317,-13.47105 -13.81365,-13.47104 -13.81365,-32.08557 0,-10.16451 3.90952,-18.98193 3.90953,-8.93987 10.4254,-14.94061 6.51587,-6.00074 14.98651,-9.42973 8.47062,-3.42899 17.46253,-3.42899 19.28698,0 33.49158,13.10365 14.2046,13.10365 14.2046,33.18775 0,10.16452 -4.82175,20.20657 4.69143,2.93913 7.03714,4.53117 z m -49.52062,-0.3674 q 9.38285,0 16.81095,-6.61305 7.42809,-6.61306 7.42809,-17.87975 0,-11.02177 -7.55841,-17.75728 -7.42809,-6.73553 -16.55032,-6.73553 -9.38285,0 -16.81094,6.85798 -7.42809,6.73553 -7.42809,17.75729 0,10.77684 7.42809,17.63483 7.55841,6.73551 16.68063,6.73551 z m 118.06758,-63.19144 35.18571,68.33494 q 2.2154,4.16378 2.2154,6.24567 0,4.4087 -7.55842,7.96015 -4.43079,2.08189 -7.42809,2.08189 -2.08508,0 -3.7792,-1.10217 -1.56382,-1.10218 -2.34572,-2.32682 -0.65158,-1.22464 -1.95476,-3.67392 l -6.77651,-13.22611 h -36.09793 l -6.7765,13.22611 q -1.30317,2.44928 -2.08508,3.55146 -0.65159,1.10217 -2.34571,2.32681 -1.56382,1.10218 -3.64889,1.10218 -2.9973,0 -7.4281,-2.08189 -7.5584,-3.42899 -7.5584,-7.83769 0,-2.08189 2.21539,-6.24567 0,0 35.18571,-68.4574 1.43348,-2.81667 4.30047,-4.53117 2.9973,-1.7145 6.25523,-1.7145 7.03715,0 10.4254,6.36813 z m -10.55571,29.39137 -8.60095,16.77758 h 17.33222 z"
   id="text16"
   style="font-size:140.807px;font-family:'Fredoka One';-inkscape-font-specification:'Fredoka One, Normal';stroke-width:20.023;fill:#ffffff;fill-opacity:1;stroke-dasharray:none"
   aria-label="QA"
   inkscape:highlight-color="#ffffff" /></svg>
